<?xml version="1.0" standalone="no"?>
<!DOCTYPE svg PUBLIC "-//W3C//DTD SVG 1.1//EN" "http://www.w3.org/Graphics/SVG/1.1/DTD/svg11.dtd" >
<svg xmlns="http://www.w3.org/2000/svg">
<metadata></metadata>
<defs>
<font id="mateurmedium" horiz-adv-x="700" >
<font-face units-per-em="2048" ascent="1638" descent="-410" />
<missing-glyph horiz-adv-x="614" />
<glyph horiz-adv-x="0" />
<glyph unicode="&#xd;" horiz-adv-x="681" />
<glyph unicode=" "  horiz-adv-x="614" />
<glyph unicode="&#x09;" horiz-adv-x="614" />
<glyph unicode="&#xa0;" horiz-adv-x="614" />
<glyph unicode="!" horiz-adv-x="776" d="M107 -196.5q6 28.5 28 42.5q6 4 12 11q4 41 19 90q8 29 33.5 43t52.5 6q47 -15 51 -62q23 2 43 -6q57 -18 88 -88q33 -74 -35 -137q-51 -47 -116 -47q-76 0 -113 63q-35 2 -53 31q-16 25 -10 53.5zM127 309q-12 147 3 329.5t39 327t77 357.5t82 315l90 312q8 27 33.5 41 t53 6t42 -34t6.5 -54l-90 -310q-31 -109 -82 -312.5t-74.5 -342.5t-38 -312t-2.5 -310q2 -29 -16.5 -51.5t-47 -24.5t-51 16t-24.5 47z" />
<glyph unicode="&#x22;" horiz-adv-x="950" d="M-129 811q0 29 20 49q133 133 211 309q18 43 39 117q-6 -2 -14 -4q-23 -4 -43 4q-39 18 -41 62q0 16 6 30l10 17l4 4l5 4q41 41 71 59q51 29 94 13h17q29 2 51.5 -16.5t24.5 -47.5q4 -42 -33 -65q0 -6 -2 -15q-12 -109 -62 -219q-88 -199 -239 -350q-20 -20 -49 -20.5 t-49.5 20t-20.5 49.5zM157 694.5q-1 28.5 17 48.5q174 188 293 355q75 106 106 176q-4 -2 -18 -14q-16 -12 -29 -21q-51 -33 -100 -22q-41 8 -57 40q-18 33 -4 70q10 29 43 59q55 49 108 70q25 8 51 12q27 8 56 2q10 0 18 3q29 2 51.5 -15.5t26.5 -46.5v-16l4 -13 q16 -51 -6 -122q-31 -94 -135 -242q-125 -174 -306 -369q-20 -20 -48.5 -21t-49 18.5t-21.5 48z" />
<glyph unicode="#" horiz-adv-x="1771" d="M-42 750.5q-7 27.5 7.5 52t40.5 33.5q121 31 395 122q10 332 88 525q12 27 39 38t53.5 -0.5t38 -38t1.5 -52.5q-66 -158 -78 -424l116 36l17 56q51 156 76 211l12 24q12 23 31 33q41 23 77 -2q20 -16 29 -43q2 -12 2 -31q-4 -78 -33 -194q74 14 152 23t182 20l144 14 q29 2 51 -15.5t25 -46t-14 -51t-46 -26.5l-164 -15q-119 -12 -196.5 -22t-153.5 -29l-16 -4q-6 -35 -11 -65l-6 -52q37 8 72 15q88 14 139 21t89 13.5t79 8.5t63.5 4t94.5 4l123 6q29 2 50 -17.5t23 -48t-17.5 -50t-47.5 -23.5q-53 -2 -123 -6l-92 -4q-23 0 -62 -3.5 t-76.5 -8.5t-85 -12t-137.5 -24q-47 -6 -108 -18q-37 -389 -45 -448q-4 -29 -27.5 -47.5t-51.5 -14.5t-46.5 27.5t-14.5 50.5q8 63 17 139q-18 -51 -37 -72q-53 -70 -119 -30q-43 25 -59.5 98.5t-20.5 214.5q-109 -16 -200 -20q-29 -2 -49.5 18.5t-22.5 49t18.5 49 t49.5 22.5q94 4 204 22v54v14q-229 -78 -354 -111q-29 -6 -53.5 8.5t-31.5 42zM537 627q0 -39 2 -72l20 78zM537 770l59 12l25 103l-82 -27q-2 -18 -2 -65v-23z" />
<glyph unicode="$" horiz-adv-x="1853" d="M49 122q-8 28 6.5 53.5t40.5 33.5l453 135l37 246q25 160 28 192q-68 -2 -137 0q-164 4 -184 6q-59 8 -96 31q-59 35 -66 101q-6 78 70 178q84 111 207.5 192.5t265.5 120.5q0 41 -2 82q0 29 19.5 50.5t48 21.5t50 -19.5t21.5 -48.5t2 -57q317 33 535 -168q20 -20 21 -49 t-18.5 -49.5t-48.5 -21.5t-49 17q-176 162 -444 129q-6 -164 -35 -376q188 -2 322 -23q197 -35 362 -117q86 -41 127 -84q80 -78 29 -151q-31 -47 -107 -82q-51 -25 -129 -47q-51 -14 -121 -29q-14 -4 -30 -8l-27 -4q-10 -2 -16 -4q-322 -82 -361 -94l-147 -43 q-8 -66 -14 -123q-4 -29 -26 -47.5t-50.5 -15.5t-47 24.5t-16.5 50.5l8 68l-393 -119q-29 -8 -54.5 6t-33.5 42zM272 936q12 -6 39 -8q14 -2 170 -6q56 -2 154 0q27 193 35 344q-223 -76 -359 -254q-27 -35 -39 -76zM696 387l90 27l365 94l76 16q66 14 112 27q68 20 109 39 q16 8 31 18q-29 23 -82 49q-150 74 -326 103q-127 22 -315 22z" />
<glyph unicode="%" horiz-adv-x="1949" d="M-225 1165.5q2 28.5 24 46.5q12 10 49 46t73 65t69 49q109 59 272 70l10 6q47 27 95.5 35t98.5 -1t79.5 -18.5t79.5 -27.5q27 -12 38 -39t1 -54l-5 -8q113 -94 105 -248q-6 -113 -99.5 -195.5t-215.5 -117.5q-125 -39 -232 -18q-133 25 -186 127q-70 133 32 329l33 56 q-20 -8 -37 -19q-29 -14 -53 -35.5t-57 -53.5t-60 -54q-23 -18 -51 -16t-46.5 24.5t-16.5 51zM154 948q23 -43 88 -55q74 -14 168 14.5t153.5 81.5t61.5 107q8 156 -201 196q-56 11 -115 11q-72 -57 -121 -156q-70 -131 -34 -199zM364.5 -31.5q-10.5 27.5 2.5 51.5 q231 496 471.5 901.5t535.5 735.5q18 20 47 22t50.5 -17.5t23.5 -47.5t-18 -51q-285 -317 -520.5 -714.5t-462.5 -885.5q-12 -27 -40 -37t-53.5 2.5t-36 40zM938 123q-27 98 31 217q43 88 123 159t174 91q2 8 6 14q14 27 41.5 35t52.5 -6l68 -35q59 -31 92 -51 q115 -70 162 -141q78 -123 12 -236q-47 -84 -172 -139q-98 -47 -217 -66q-121 -18 -199 0q-141 33 -174 158zM1071 158q12 -43 74 -58q49 -12 146.5 3.5t178.5 52.5q84 39 109 84q23 39 -10 92q-23 37 -88 80q-37 -25 -74 -2q-4 2 -53 39l-15 8q-68 4 -137 -48.5 t-108 -129.5q-35 -72 -23 -121z" />
<glyph unicode="&#x26;" horiz-adv-x="2074" d="M-156 -6q-37 150 60 346q74 152 231 338q88 104 205 223q-37 186 -14 354q14 94 55 186.5t104.5 172.5t157.5 131t203 55q111 4 164 -45q88 -80 59 -209q-20 -86 -96 -190q-29 -41 -68 -85t-65 -71l-62 -61l-35 -35l-227 -221l-22 -25q25 -98 67 -182q104 -217 301 -420 q37 -39 74 -72q106 70 208.5 155t213 196.5t182.5 189.5l193 215q18 20 46.5 22.5t50 -17t23.5 -48.5t-18 -51l-184 -207l-176 -184q-111 -113 -214.5 -200t-209.5 -161q119 -82 217 -94q29 -4 46 -26.5t14 -51t-25.5 -46t-51.5 -15.5q-156 20 -327 151q-287 -166 -592 -209 q-141 -18 -250 0q-199 33 -238 191zM-20 27q16 -68 126 -86q84 -14 205 2q258 35 500 166l-49 51q-211 221 -328 454q-28 61 -53 129q-74 -78 -139 -155q-145 -174 -213 -309q-74 -152 -49 -252zM463 1024l182 178q4 6 37 37t57.5 56.5t59.5 65.5t61 77q59 82 72 139 q12 49 -17 76q-10 10 -65 8q-145 -4 -254 -131t-131 -295q-14 -102 -2 -211z" />
<glyph unicode="'" horiz-adv-x="495" d="M116 1194q-1 39 0 61.5t2 57.5t4 61.5t6 58t7 60.5q6 29 28.5 46t51.5 12t46 -27t13 -51l-8 -58q-4 -29 -6 -52.5t-3 -58t-2 -52t0 -57.5t1 -53.5t2 -58.5t2 -54t3 -60t3 -58q2 -29 -17.5 -50t-48 -23t-50 17t-23.5 48q0 12 -3 58.5t-3 59.5t-2 56t-2 60.5t-1 56.5z" />
<glyph unicode="(" horiz-adv-x="663" d="M-135 354q12 217 63.5 441.5t110.5 392.5q84 229 276 518q16 25 44 30t52.5 -11.5t29.5 -44t-11 -52.5q-182 -274 -260 -489q-57 -158 -104 -373q-49 -213 -62 -420q-29 -520 209 -678q20 -12 63 -20q8 -2 16.5 -3t17.5 -3t16 -4q31 -4 53 -11q29 -8 43 -32.5t6 -53 t-32.5 -43t-53.5 -6.5q-16 4 -41 8q-49 10 -51 11q-70 14 -115 43q-303 199 -270 800z" />
<glyph unicode=")" horiz-adv-x="608" d="M-51 -256q4 10 41 108.5t47 131.5l45 125q33 92 49 147l37 137q23 82 37 156q16 70 26 143q86 594 -243 832q-23 18 -28 45.5t12.5 51.5t45 28.5t52.5 -11.5q395 -287 299 -966q-10 -78 -25 -152q-16 -76 -41 -160l-41 -143q-16 -59 -49 -151l-45 -132q-12 -35 -48 -131 t-40 -108q-10 -27 -37 -39t-53.5 -2t-38.5 36.5t-2 53.5z" />
<glyph unicode="*" horiz-adv-x="1470" d="M186.5 1136.5q10.5 26.5 36.5 39.5q66 29 133 53q-57 35 -114 59q-27 10 -38 37t0 53.5t37.5 37.5t53.5 -1q96 -39 217 -123q123 238 152 289q14 25 42.5 33t53 -6.5t33 -43t-6.5 -53.5q-43 -74 -112 -208q193 27 506 26q29 0 49 -20.5t20 -49t-20.5 -49t-48.5 -20.5 q-305 0 -488 -27l29 -18l39 -25q41 -8 69 -26l-32 12l2 -2l20 -12l148 -97q4 -2 6 -4l57 -39q16 -10 23 -16q4 -2 6 -4l6 -6q6 -6 10 -15q20 -33 0 -67q-23 -37 -65 -35q-8 0 -17 2q-4 2 -10 4q-2 2 -6 4q-33 18 -330 207q-43 27 -88 59q-61 -109 -119 -190 q-16 -23 -44.5 -28t-52.5 11.5t-29 45t12 53.5q39 53 80 121q-66 -23 -125 -49q-27 -12 -53.5 -2t-39 36.5t-2 53zM682 1008l35 -19h4l-6 4q-27 14 -33 15zM793 1108h2l-2 2v-2zM797 1106v2v-2z" />
<glyph unicode="+" horiz-adv-x="2097" d="M156 627q0 35 28 65q39 37 187 99q94 39 211 79q0 246 22 414q4 27 27.5 45.5t51.5 14t46.5 -28t13.5 -51.5q-20 -143 -22 -346q31 8 41 12q240 66 484.5 83t561.5 11q29 0 48.5 -21.5t19.5 -50t-21.5 -48t-50.5 -19.5q-309 6 -544.5 -10.5t-460.5 -79.5q-18 -4 -78 -25 q2 -293 -6 -416q-2 -29 -23.5 -48t-50.5 -17t-48.5 23.5t-17.5 49.5q8 123 7 361q-90 -33 -158 -61l-43 -17q10 -16 10 -35q0 -29 -19 -50t-48 -21q-82 -2 -117 14q-49 23 -51 74z" />
<glyph unicode="," horiz-adv-x="696" d="M-403.5 -731q6.5 29 28.5 43q270 178 471 379q143 139 197 250q23 42 29 79l-3 -4q-57 -43 -102 -47t-78 23q-29 25 -41 67q-8 31 8 64q8 14 21 29q18 20 47 45q25 20 47 36q12 8 21 13q18 10 32 12q37 8 86 -4l31 -6q14 -4 25 -4q29 -4 46 -27.5t13 -52.5 q-4 -23 -20 -39q33 -109 -37 -246q-66 -131 -223 -289q-207 -205 -492 -393q-25 -16 -53.5 -10t-44 29.5t-9 52.5z" />
<glyph unicode="-" d="M-151 459q11 27 38 37q240 102 514 137q29 2 51.5 -15.5t25.5 -46t-14.5 -51t-45.5 -26.5q-254 -31 -477 -125q-27 -12 -53.5 -1t-38 37.5t-0.5 53.5z" />
<glyph unicode="." horiz-adv-x="563" d="M37 147q4 20 14 41v2q6 27 31 43q31 33 82 62q25 14 52.5 6t41.5 -35q16 -30 0 -63q41 -23 64 -58q31 -47 16 -108q-10 -51 -48 -72.5t-79 -17.5q-68 4 -123 57q-66 63 -51 143z" />
<glyph unicode="/" horiz-adv-x="1335" d="M-57 -356q428 1206 1046 1986q18 23 47 26t51.5 -14.5t25.5 -46t-13 -51.5q-602 -760 -1026 -1945q-10 -29 -36 -41.5t-53.5 -2t-40 36t-1.5 52.5z" />
<glyph unicode="0" horiz-adv-x="1343" d="M-139 668q-14 205 53 391q63 176 164 280q-2 6 -2 13q-2 29 15.5 51t45.5 27q53 6 103 8q53 18 147 32q63 10 156 -22l67 -27q41 -18 47 -20q25 -10 37 -37q231 -111 359 -408q59 -139 68 -299.5t-38 -310.5q-53 -158 -167.5 -266.5t-288.5 -130.5q-227 -29 -398.5 67.5 t-267.5 278.5q-88 168 -100 373zM-1 678q11 -176 85 -318q78 -147 211 -221q133 -76 315 -51q127 16 213 96t127 207q39 121 32 257t-56 251q-113 258 -305 346q-140 63 -355 55q-23 -10 -41 -20q-51 -27 -101 -107.5t-79 -162.5q-57 -156 -46 -332z" />
<glyph unicode="1" horiz-adv-x="925" d="M135 1323q-2 20 8 47q4 10 13 25l26 49q25 47 76 35l8 10q20 25 53 96q20 45 25 51q6 16 12 25q8 10 17 18q27 20 59 15q59 -10 88 -82q14 -37 25 -101q4 -29 18 -202q53 -647 142 -1465q2 -29 -15.5 -51t-46.5 -25.5t-51.5 14t-26.5 46.5q-98 936 -141 1468q0 14 -2 46 t-5 60.5t-5 53.5q-20 -35 -39 -57l-94 -105q-20 -16 -33 -24q-23 -14 -47 -13q-29 4 -47 27q-14 16 -17 39z" />
<glyph unicode="2" horiz-adv-x="2215" d="M143 33q12 82 121 221q76 98 228 254l235 235q147 143 180 179l56 57l71 74q33 37 60 71q94 123 73 199q-16 66 -100 108t-219 52q-125 8 -247 -12.5t-181 -57.5q-10 -6 -17.5 -13t-19.5 -20.5t-29 -27.5q-20 -20 -50 -18.5t-49 22t-17 50.5t22 48l19 19l32 32 q18 16 35 27q84 51 226.5 75.5t285.5 14.5q72 -6 138.5 -21.5t131 -45t110.5 -80t65 -115.5q37 -143 -99 -320q-29 -39 -65.5 -79.5t-78.5 -81.5t-50 -52q-33 -35 -183 -180l-235 -235q-137 -143 -217 -244q-82 -102 -92 -150q10 -2 24 -2q31 -2 191 25q102 14 315 59 q139 27 348 47q104 10 177 14.5t152 4.5t117 -1t149.5 -8t172.5 -10q29 -2 48.5 -23.5t17.5 -50t-23.5 -48t-50.5 -17.5q-61 4 -172 10.5t-147.5 7.5t-112.5 1t-145.5 -4.5t-169.5 -14.5q-201 -18 -332 -45q-236 -47 -324 -61q-172 -27 -213 -25q-70 0 -110 29 q-61 43 -52 127z" />
<glyph unicode="3" horiz-adv-x="1693" d="M-30.5 174q-2.5 29 17 50.5t48 23.5t51.5 -18.5t47.5 -46t40.5 -41t35 -25.5q127 -68 336 -34t409 153q205 123 307.5 282.5t57.5 308.5q-53 176 -297 248q-172 49 -459 49q-10 0 -19 -1t-24.5 -4t-30.5 -3q-72 -8 -118 17q-35 18 -41 55q-8 41 26 69q14 12 43 23l23 8 q12 4 16 5t6 3q90 57 109 74q27 23 39 39q4 6 4 8q-14 68 -174 96q-70 14 -293 23q-29 2 -49.5 22.5t-18.5 49t22.5 49t49.5 18.5q6 0 57.5 -2t82 -3t81.5 -7q49 -4 95 -12q254 -47 284 -207q12 -57 -24 -113q-23 -33 -66 -67q248 -6 418 -56q317 -92 393 -340 q29 -119 9.5 -224t-87 -204.5t-155.5 -179.5t-195 -143q-143 -86 -301 -135q-156 -49 -312.5 -49.5t-269.5 61.5q-29 16 -58.5 41.5t-57 55.5t-35.5 36q-20 18 -22.5 47z" />
<glyph unicode="4" horiz-adv-x="1767" d="M-197 205q-2 12 0 26q0 27 15 62q37 90 153 233q90 115 213 240q33 35 70 70l78 69l69 66l80 67l72 60l80 65l74 62q225 184 350 305q10 63 22 121q6 29 30 44t52 9q23 -5 39 -23v2q20 23 49 25t50.5 -17.5t23.5 -48t-16 -49.5q-55 -63 -121 -129q-8 -55 -13.5 -111.5 t-9.5 -123t-6 -109.5t-3 -125t-1 -110v-127v-117v-82q154 14 324 14q29 0 49 -20.5t20 -49t-20.5 -49t-48.5 -20.5q-168 0 -322 -14q6 -227 31 -408q4 -27 -14.5 -50t-46 -27.5t-51 14t-27.5 47.5q-25 180 -31 405q-295 -43 -723 -188q-10 -4 -22.5 -8t-28.5 -12l-29 -11 q-66 -25 -115 -39q-168 -45 -262 13q-6 4 -11 9t-7 9l-2 2q-2 2 -4 5t-2 5q-2 4 -3 7zM-43 262q43 0 104 17q41 12 103 34q82 31 84 31q451 154 766 199v98q0 492 16 676l-235 -201l-74 -59l-80 -66l-70 -59l-77 -68l-68 -59q-43 -37 -78 -70l-65 -67q-117 -119 -205 -228 q-86 -108 -121 -178z" />
<glyph unicode="5" horiz-adv-x="1775" d="M-21.5 80q-3.5 29 14 51.5t46.5 26.5q63 6 118.5 12t78 9t44 5t30.5 3t22.5 4.5t34 6.5t51.5 9t90 16l131 23q4 0 139 20.5t224.5 36.5t136.5 33q123 43 178 99.5t55 109.5q2 55 -53 119q-53 61 -168 114q-135 63 -288.5 71.5t-309.5 -22.5q-47 -6 -94 -18 q-51 -12 -76 -23q0 -2 -2 -6t-2 -6q-12 -25 -27 -37q-37 -37 -86 -18q-31 12 -43 45q-2 8 -2 16q-2 6 0 15q0 8 2 24q0 14 8 76q14 135 21 223q6 104 14 191l-78 -23q-27 -10 -52 3.5t-34.5 41t4 53t41.5 33.5l134 43q4 27 26.5 44.5t48.5 15.5q29 -5 47 -25 q530 141 1082 141q29 0 49 -20.5t20 -49t-20.5 -49t-48.5 -20.5q-545 0 -1073 -145q-12 -125 -21 -242q-4 -78 -16 -178q23 6 51 12q53 14 106 23q131 18 228.5 23t218.5 -14.5t229 -70.5q141 -68 223 -161t80 -199q0 -111 -87 -199t-240 -141q-41 -14 -121 -30.5 t-147.5 -28t-152.5 -23.5t-99 -17l-136 -20q-57 -10 -90 -16l-51 -11q-20 -4 -34.5 -6t-24 -3t-32 -4t-45 -5t-78.5 -8t-118 -15q-29 -2 -51 15.5t-25.5 46.5z" />
<glyph unicode="6" horiz-adv-x="1603" d="M-274.5 564.5q6.5 27.5 30.5 43.5l125 80q84 55 138.5 87t111.5 59q154 373 454 605t691 261q31 2 52.5 -16.5t23.5 -48t-16.5 -51t-47.5 -23.5q-319 -25 -571 -200t-404 -464q51 12 109 23q150 25 344 0q139 -18 287 -80q297 -123 327 -314q29 -172 -157 -327 q-160 -131 -404 -193.5t-444 -7.5q-281 80 -326 344q-23 131 19 299q-37 -20 -115 -72l-123 -80q-25 -14 -52.5 -8t-43 31t-9 52.5zM186 367q31 -180 226 -234q164 -47 374.5 7.5t346.5 166.5q125 104 110 197q-18 115 -244 209q-129 53 -249 67q-178 23 -304 0 q-116 -18 -206 -53q-78 -213 -54 -360z" />
<glyph unicode="7" horiz-adv-x="1718" d="M-49 1312.5q0 28.5 20 49t49 20.5q205 0 560 109q16 4 79 25l86 24q23 8 79.5 24.5t88.5 24.5l82 17q47 12 90 19t84 11q74 8 166 2q45 -2 74 -8q20 -4 33 -8q39 -16 51 -51q23 -80 -35 -185q-37 -70 -117 -159q-51 -59 -133 -142q-84 -80 -90 -88l-289 -323 q229 35 428 53q29 2 51.5 -16.5t24.5 -47t-16.5 -51t-46.5 -24.5q-258 -23 -580 -78q-248 -293 -436 -557q-18 -23 -46 -28t-51.5 12.5t-28.5 45t11 52.5q152 211 338 436l-145 -27q-27 -6 -51.5 10.5t-29.5 44t11.5 52t44.5 29.5q174 35 309 59l400 453q8 10 94 94 q80 78 127 131q68 80 100 137q10 20 17 43q-12 2 -27 2q-80 4 -141 -2q-39 -4 -78 -10t-85 -16.5t-75.5 -17.5t-85 -23.5t-76 -21.5t-86 -25.5t-79.5 -24.5q-180 -55 -319.5 -85t-281.5 -30q-29 0 -49 20.5t-20 49z" />
<glyph unicode="8" horiz-adv-x="1984" d="M156 201q-45 150 108 370q121 175 377 408q-133 70 -213 133q-106 86 -139 176q-45 123 30 242q27 41 78 84l23 16l26 21q10 10 21 20q20 18 49 18.5t49 -22.5q33 -35 10 -80q139 35 291 35q129 -2 213 -37q121 -51 131 -164q10 -117 -112 -233q-33 -31 -90 -76 q-63 -49 -72 -55l-49 -45l106 -54l101 -53l84 -45l102 -57l109 -68q6 -4 36.5 -22.5t55.5 -34.5l59 -39q35 -25 67.5 -51.5t57.5 -50.5q90 -88 98 -172q14 -117 -110 -193q-174 -106 -506 -164q-152 -25 -309 -33q-170 -8 -291 5q-336 35 -391 221zM289 242q29 -98 270 -123 q115 -12 270 -4q147 8 293 32q309 53 457 144q49 31 47 57q-4 35 -59 90q-27 27 -67 56.5t-64.5 46t-71.5 45t-49 30.5q-78 51 -148 93l-114 61l-131 68l-148 75q-274 -248 -395 -421q-115 -166 -90 -250zM417.5 1338.5q20.5 -56.5 98.5 -118t236 -141.5l94 80q12 12 76 62 q51 41 79 67q74 72 70 121q-2 29 -47 47q-57 25 -160 27q-214 2 -286 -35q-4 -33 -11 -47q-10 -27 -36.5 -39t-53 -2t-39 36.5t-2.5 53.5q2 4 2 6q-41 -61 -20.5 -117.5z" />
<glyph unicode="9" horiz-adv-x="1765" d="M-172 112.5q0 28.5 20.5 49t49.5 20.5q524 0 839 62q530 102 647 372q41 96 5 304q-4 29 -17 73q-23 80 -22 82q-2 8 -4 19q-12 -14 -27 -29q-135 -139 -287 -215q-90 -43 -196.5 -69.5t-222 -31t-228.5 32.5q-113 39 -192 121q-119 121 -52 281q43 106 156 198 q416 342 1036 138q27 -8 40 -34t4 -53.5t-34.5 -40.5t-54.5 -3q-549 180 -901 -113q-86 -72 -119 -146q-31 -76 23 -129q76 -78 198.5 -101t246.5 -0.5t235 77.5q131 63 250 186q59 61 71 105q0 4 1 9t3 7q2 14 11 27q16 23 41.5 29t50.5 -9l22 -18l9 -13q31 -41 43 -110 l6 -45q2 -23 6 -37q2 -10 6 -23.5t8 -29t8 -25.5l21 -86q41 -248 -17 -381q-145 -340 -747 -457q-326 -63 -866 -63q-29 0 -49.5 20.5t-20.5 49z" />
<glyph unicode=":" horiz-adv-x="630" d="M92 158q-4 29 12.5 52t45.5 30q14 2 26 4q33 23 70 6h2q27 0 47 -2q74 -10 102.5 -59.5t-0.5 -108.5q-18 -35 -55 -64q-35 -29 -72 -41q-57 -20 -100 5q-55 31 -53 106l4 29q-23 16 -29 43zM115 827q10 31 32 66q14 20 37 47q4 4 8.5 9t6.5 8.5t4 5.5q18 23 47 26.5 t51 -14.5q20 -16 25 -42.5t-9 -49.5q25 -20 33 -49q18 -53 -2 -97.5t-67 -62.5q-39 -16 -85 -2t-73 57t-8 98z" />
<glyph unicode=";" horiz-adv-x="661" d="M-10 -308.5q0 29.5 20 48.5q4 4 76 70l74 71q61 70 67 125q-10 2 -20 8q-43 0 -62 37q-4 10 -6 20.5t-2 14.5l2 6q0 4 1 8t3 10.5t7 14.5q12 29 32 90q8 27 34 40t54 3q45 -14 47 -61q23 -16 41 -45q14 -27 9 -56v-2q2 -10 2 -71q0 -115 -107 -234q-33 -37 -82 -82 q-70 -63 -71 -65q-20 -20 -50 -20.5t-49.5 20t-19.5 50zM217 860q12 31 37 58q10 23 33 34q14 8 30 9l25 12q27 12 53.5 2t38.5 -37q10 -25 3.5 -49.5t-29.5 -38.5q10 -47 -9 -82q-14 -31 -41.5 -42t-51 -8t-42.5 13q-31 18 -45 54t-2 75z" />
<glyph unicode="&#x3c;" horiz-adv-x="1585" d="M92 659q-6 27 8 54q4 8 13 18q10 10 26 25q25 20 68 53q82 59 149 102q127 78 324 174l326 158q25 14 52 5t40.5 -34.5t4.5 -53.5t-36 -40l-326 -159q-201 -98 -311 -168q-57 -35 -141 -97l-23 -16q51 -25 140 -57l155 -52l96 -30q252 -92 401.5 -193.5t293.5 -298.5 q16 -23 11 -51.5t-27.5 -46t-51.5 -12t-47 27.5q-127 178 -260 267.5t-369 175.5q-4 2 -94 30l-156 52q-98 35 -157 63q-37 20 -62 37q-41 31 -47 67z" />
<glyph unicode="=" horiz-adv-x="1624" d="M64.5 580.5q-5.5 27.5 11 52.5t45.5 29q829 162 1204 208q29 2 51.5 -15t25.5 -46t-14.5 -51.5t-46.5 -26.5l-131 -16q-66 -8 -141 -21l-125 -20l-139 -23l-125 -22q-35 -6 -139 -27l-125 -24l-140 -27q-119 -23 -131 -25q-27 -6 -51 10.5t-29.5 44zM82 855q-8 28 6 53.5 t41 33.5q356 104 936 105q29 0 49.5 -20.5t20.5 -49.5t-20.5 -49.5t-49.5 -20.5q-559 0 -895 -100q-29 -8 -54.5 6t-33.5 42z" />
<glyph unicode="&#x3e;" horiz-adv-x="1323" d="M-148.5 90q5.5 29 27.5 45q350 248 946 584q4 0 19 6q10 6 22 10q35 18 59.5 34.5t35.5 31.5q-8 6 -23 14q-31 18 -86 39q-94 39 -262 86l-275 76q-176 45 -215 59q-29 8 -42 34t-4 53.5t34.5 40.5t52.5 3q41 -12 214 -57t274 -74q172 -51 274 -92q63 -25 105 -47 q55 -31 75 -66q41 -68 -2 -139q-25 -39 -77 -76q-33 -23 -78 -45q-12 -6 -27 -12l-6 -2q-590 -332 -932 -576q-25 -16 -53.5 -11t-45 28.5t-11 52.5z" />
<glyph unicode="?" horiz-adv-x="1488" d="M115 1342q0 29 20 49q6 6 30.5 35.5t51.5 56t53 43.5q76 47 236 88q160 39 313 43q188 4 301 -53q156 -76 148 -244q-4 -109 -78 -229.5t-193 -262.5l-133 -147l-133 -152q-53 -63 -86 -110q-45 -70 -63 -115q-27 -63 -11 -78q10 -8 39 -16q6 -2 12.5 -3t13.5 -2t11 -3 q29 -6 47 -13q27 -10 40.5 -35.5t3 -52t-36 -40t-52.5 -3.5q-10 4 -31 8l-40 9q-66 16 -101 49q-86 80 -24 233q23 57 77 140q33 51 93 118l143 162l125 144q231 272 237 403q4 78 -71 115q-82 41 -236 39q-137 -4 -278.5 -39t-198.5 -72q-16 -10 -31.5 -25.5t-36 -41 t-43.5 -48.5q-20 -20 -48.5 -20t-49 20.5t-20.5 49.5zM397 -115q2 12 4 18.5t3 8.5l2 2v4q0 29 20 49.5t49 20.5q17 0 31 -6q23 2 43 -11q2 0 12 -4q33 -8 33 -10q31 -10 49 -27q47 -43 16.5 -100t-104.5 -68q-59 -10 -109 13q-66 29 -49 110z" />
<glyph unicode="@" horiz-adv-x="2033" d="M-20.5 1037q34.5 177 135 337t247.5 252q186 117 382 131.5t358 -63.5q162 -74 292 -216.5t208 -326.5q43 -96 66.5 -194.5t19 -221.5t-53.5 -217q-96 -190 -297 -182q-160 6 -323 135q-33 27 -62 55q-59 -86 -147 -129t-201 -26q-88 14 -137 51q-109 78 -88 252 q16 143 106 268q102 143 236 158q68 8 129 -21q47 33 96 17q45 -16 70 -74q23 -53 28 -131q8 -117 -28 -232q39 -43 84 -77q129 -102 243 -107q111 -4 168 105q35 70 38 163t-17.5 180t-56.5 175q-70 162 -183 284q-113 121 -248 183q-301 133 -608 -58q-125 -78 -209 -213 t-111.5 -282.5t9.5 -298t139 -256.5q205 -213 686 -324q285 -66 799 -110q29 -2 47.5 -25t16 -51.5t-25 -47t-50.5 -16.5q-524 47 -817 113q-522 121 -758 362q-127 135 -172 318.5t-10.5 360.5zM518 657q-10 -92 31 -125q23 -14 76 -22q135 -20 213 98q10 15 18 29 q-39 55 -61 111q-51 117 -25 213q-16 4 -33 2q-72 -8 -139.5 -102.5t-79.5 -203.5z" />
<glyph unicode="A" horiz-adv-x="1329" d="M14 882v6q0 26 16 46q18 22 48 24l225 21l23 70q29 92 108 321l70 191q14 41 24 63q6 14 11 23q6 8 12 14q8 10 20 16q17 9 33 9q18 0 35 -11q8 -4 14 -9t9 -9l2 -4l4 -8q2 -2 4 -8.5t6 -16.5l18 -51l52 -156l81 -254l39 -133l105 6q29 2 50 -17.5t23.5 -48t-17 -50 t-48.5 -23.5l-72 -4q127 -461 199 -907q1 -5 1 -11q-1 -23 -15 -41q-18 -22 -46 -27q-6 -1 -12 -1q-20 0 -38 13q-22 17 -29 46q-70 451 -203 918q-166 -13 -356 -29l-240 -801q-10 -27 -34.5 -41t-52.5 -5t-42 33.5t-6 53.5l225 746l-170 -17q-29 -2 -51.5 16.5t-24.5 46.5 zM453 993l274 23l-33 102l-80 252l-16 47l-33 -92q-80 -229 -108 -317z" />
<glyph unicode="B" horiz-adv-x="1828" d="M134 1374v35q0 51 2 95q3 60 9 118q4 30 26 48q20 16 44 16h6q29 -4 47.5 -25t16.5 -49h12q197 -10 211 -10q58 1 148 1t212 -1q158 -2 207 -7q92 -8 209 -34q51 -12 86 -25q18 -6 33 -12q10 -6 18 -13q27 -20 29 -51q1 -11 1 -22q0 -123 -120 -260q-43 -47 -123 -88 l-59 -29l-49 -27q-23 -14 -210.5 -122.5t-281.5 -172t-143 -108.5q23 0 55 4q104 6 189 16q10 0 43 4l86 15q53 8 100 14q227 33 369 39q32 1 60 1q56 0 95 -5q94 -10 127 -55q20 -27 20 -56q0 -47 -53 -98q-53 -49 -176 -117q-41 -23 -91 -43t-109 -41l-86 -30l-140 -52 q-113 -43 -172 -69l-98 -39l-61 -27q-25 -10 -54.5 -25.5t-41 -20.5t-60.5 -32l-76 -41q-17 -9 -34 -9q-24 0 -46 20l-12 -62q-5 -29 -29 -44q-17 -11 -37 -11q-8 0 -16 2q-29 6 -44 29.5t-9 52.5q27 125 33 273q3 74 3 139.5t-3 123.5q-2 90 -21 283q-2 23 -11 117t-11 127 t-9.5 114.5t-8.5 128.5t-2 117zM274 1475q-2 -9 -2 -35q0 -30 2 -78q3 -69 4 -99v-15q0 -4 -1 -10q1 -28 7 -106q8 -92 9.5 -114.5t10.5 -116.5t11 -119q4 -55 9 -98q12 14 30 33q57 57 176 137q94 63 285 174q193 113 211 125q25 14 61 33l58 28q55 29 80 58q70 76 84 137 q-23 6 -56 14q-109 25 -190 33q-45 4 -195 6q-122 1 -211 1t-145 -1q-20 0 -223 11q-6 0 -15 2zM328 98q27 12 67 35l51 29l41 22q31 14 44.5 20.5t46.5 20.5l65 29l86 35q59 25 174 67q111 41 139 54q35 14 92.5 33.5t100.5 36t80 36.5q69 37 110 68q-22 1 -50.5 1 t-61.5 -1q-135 -6 -355 -37q-49 -6 -102 -15l-86 -12q-35 -6 -45 -8q-86 -10 -197 -16q-68 -6 -110 -7q-27 0 -43 3q-12 0 -21.5 3t-17.5 7q4 -80 4 -155q0 -134 -12 -249z" />
<glyph unicode="C" horiz-adv-x="1890" d="M-16 262q-16 51 -16 110q0 91 36 203q39 127 115 254q90 156 237 310q143 154 318 266q301 194 572 195q111 0 216 -33q25 -8 53.5 -21.5t57.5 -29.5l39 -19q27 -12 37 -39.5t-2.5 -53.5t-40 -36t-52.5 2q-23 10 -49 24.5t-44.5 22.5t-39.5 15q-87 27 -178 27 q-232 0 -493 -171q-158 -102 -293 -244.5t-219 -283.5q-66 -113 -101 -228q-28 -89 -29 -156q0 -40 11 -73q45 -150 280 -201q106 -22 205 -21q6 -1 12 -1q104 2 187 20q70 16 258 97l115 51q49 23 102 51.5t78 42.5l98 57l111 64q25 16 53 8q27 -9 42 -33q10 -16 10 -33 q0 -9 -3 -19q-8 -28 -33 -42q-33 -20 -108 -65l-101 -58q-27 -16 -82 -46t-107 -53.5t-122 -51.5q-195 -86 -278 -105q-98 -23 -218 -24h-17q-113 0 -232 24q-313 70 -385 297z" />
<glyph unicode="D" horiz-adv-x="1888" d="M-108 -202q12 26 38 38q143 57 291 146q2 45 16.5 294.5t18.5 382.5q1 48 1 106q0 144 -7 349l-4 107q-66 -47 -101 -129q-10 -27 -36.5 -38.5t-53 0t-38 38t0.5 53.5q37 88 91.5 142t130.5 95q-2 106 -2 193q0 29 20.5 49.5t49 20.5t49 -20.5t20.5 -49.5q0 -59 2 -127 l4 2q221 102 426 154q139 36 277 36q66 0 131 -8q117 -14 217 -71.5t161 -145.5q66 -93 72 -205q1 -10 1 -20q0 -103 -58 -217q-53 -100 -191 -244q-174 -180 -624 -518q-289 -217 -439 -311q-6 -164 -6 -299q0 -29 -20.5 -49.5t-49 -20.5t-49 20.5t-20.5 49.5q0 100 4 215 q-117 -63 -231 -111q-27 -10 -53.5 1t-38.5 38q-6 14 -6 27.5t6 26.5zM367 72q119 80 346 250q430 324 604 505q127 131 170 211q43 79 43 152q0 77 -49 147q-43 61 -117 103.5t-164 52.5q-49 6 -101 6q-279 0 -659 -176l-57 -27q2 -35 4 -98t2 -80q8 -194 8 -335 q0 -71 -2 -128q-1 -87 -28 -583z" />
<glyph unicode="E" horiz-adv-x="2107" d="M-100 1115q10 28 37 40q117 61 235 111l-2 47q-2 184 -12 289q-2 29 16 51q20 22 48 24h5q25 -1 45 -17q22 -18 25 -46q10 -106 12 -293q565 213 1158 213q56 0 112 -2q29 0 49.5 -21.5t19.5 -50t-22.5 -49t-50.5 -18.5q-50 2 -100 2q-596 0 -1162 -221q2 -84 6 -150 l15 -203q178 45 322.5 73t318.5 50q125 15 241 15q46 -1 92 -3q158 -8 289 -45q27 -8 41.5 -33.5t6 -53t-34 -42t-54.5 -6.5q-121 37 -269 43q-31 1 -63 1q-120 0 -253 -18q-168 -22 -307.5 -49.5t-319.5 -72.5l33 -444q215 41 365 64q150 24 346 42q135 12 266 13 q58 0 114 -3q184 -8 363 -43q27 -5 43 -29q12 -19 12 -39q0 -7 -1 -13q-5 -28 -29.5 -44t-53.5 -10q-170 33 -346 40q-48 2 -98 2q-132 0 -270 -14q-192 -18 -338 -41.5t-363 -64.5l6 -84q2 -29 -17.5 -50t-47.5 -23h-6q-24 0 -44 17q-22 19 -24 48l-4 66l-184 -37 q-29 -4 -52.5 12t-28.5 45t11 52.5t45 29.5l199 37l-33 436l-174 -43q-27 -6 -52.5 8.5t-31.5 42t8 53t43 31.5l197 49q-10 125 -17 230q-2 45 -4 100l-178 -84q-25 -14 -52.5 -5t-41.5 35q-8 15 -7 30q-1 11 3 23z" />
<glyph unicode="F" horiz-adv-x="1466" d="M-68 1382.5q0 28.5 21.5 48t50.5 19.5h24q85 0 187 12v8q2 29 22.5 49.5t49.5 18.5q25 -2 43 -17.5t22 -39.5q240 39 305 47q190 20 262 22q18 0 43 1q76 0 216 -5q29 0 48 -20.5t19 -50t-20.5 -49t-50.5 -19.5q-53 0 -128 2t-90.5 2t-65.5 -2t-90 -6t-126 -14 q-16 -2 -320 -48q2 -88 10.5 -179t26 -218t23.5 -180q299 55 594 90q29 2 51 -15.5t25 -46t-14 -51t-46 -26.5q-299 -35 -598 -90l4 -58q4 -68 4 -145.5t-2 -172.5t-2 -147q0 -29 -20.5 -49t-49 -20t-49 20.5t-20.5 48.5q0 2 3 228q1 76 1 127q0 101 -4 102q0 18 -2 37 l-17 -2q-29 -6 -52 9t-29.5 44t9 52.5t44.5 29.5l30 6q-4 47 -21 178t-26.5 225.5t-11.5 182.5q-102 -10 -187 -10h-28q-29 0 -48.5 21.5t-19.5 50z" />
<glyph unicode="G" horiz-adv-x="2011" d="M68 801q20 217 135 407t291 310q121 80 251 112q78 20 162 20q57 0 117 -10q147 -22 283 -108q168 -106 247 -246q14 -25 6 -53.5t-32.5 -42.5t-53 -6t-42.5 33q-61 111 -199 196q-111 70 -231 89q-49 9 -95 9q-68 0 -131 -17q-106 -28 -207 -93q-150 -98 -248 -262 t-114 -351q-4 -43 -4 -84q0 -168 67 -290q82 -150 238 -228q152 -76 348 -76q1 -1 2 -1q194 0 383 75q86 33 137 64q20 10 35 20l-37 11q-70 16 -96 18q-12 2 -33 2q-6 0 -14 -2q-45 -5 -84 -5q-19 0 -37 1h-8q-12 2 -29 12q-31 21 -31 54q0 10 3 22q6 29 32 43q8 4 19 6 q8 2 20 4q18 2 49 4h72q23 4 61.5 12.5t49.5 8.5q14 4 77.5 16t98.5 19l186 24q27 4 50.5 -14.5t27.5 -45.5q1 -5 1 -10q0 -22 -15 -42q-19 -23 -47 -27q-4 0 -73 -9.5t-106 -13.5q28 -31 28 -70q0 -7 -1 -14q-2 -35 -31 -67q-31 -39 -98 -78q-59 -35 -158 -74 q-209 -83 -431 -83h-5q-225 1 -408 91q-197 98 -299 287q-84 152 -84 353q0 49 5 100z" />
<glyph unicode="H" horiz-adv-x="1316" d="M164 1394q-1 47 -1 96t1 99q0 29 21.5 48.5t50 19.5t48 -21.5t19.5 -50.5q-2 -21 -2 -55q0 -26 1 -58q3 -76 3 -108.5t6 -106t8.5 -104.5t12.5 -104l12 -109q4 -33 15.5 -111.5t15.5 -119.5q2 29 22 47t49 18q35 0 76 2t68.5 5t77.5 14l69 12q20 4 81 18.5t75 16.5 q2 55 8 206.5t8 207.5t4 206q1 38 1 69q0 95 -5 136q-2 29 18.5 49.5t49.5 22.5h5q26 -1 44 -19q20 -20 23 -49q3 -177 3 -266v-39q-1 -84 -12 -309q-8 -221 -10 -309q-2 -84 -2 -163q0 -440 66 -730q2 -8 2 -16q0 -19 -12 -37q-16 -24 -42 -32q-8 -2 -16 -1q-18 1 -36 11 q-24 16 -32 42q-70 308 -70 751q0 61 1 125q-106 -25 -150.5 -33t-133.5 -20q-76 -10 -142 -10h-21q-49 0 -63 47l6 -49q12 -98 23.5 -211t23.5 -249t21 -214q2 -29 -16.5 -50.5t-47.5 -24.5t-50.5 15.5t-25.5 47.5q-8 76 -20 211t-23.5 246.5t-23.5 211.5l-25 201l-26 203 q-8 68 -18.5 174t-12.5 200z" />
<glyph unicode="I" horiz-adv-x="589" d="M129 540q-5 106 -5 214q0 198 16 406q26 322 91 554q8 30 34 44q16 9 33 9q10 1 20 -3q28 -8 42 -34q9 -16 10 -34q0 -9 -3 -19q-63 -223 -87 -531q-16 -203 -16 -398q0 -102 4 -201q12 -291 54 -541q4 -29 -13.5 -51.5t-46.5 -27.5q-6 -1 -13 -1q-21 0 -39 14 q-22 18 -28 46q-39 256 -53 554z" />
<glyph unicode="J" horiz-adv-x="909" d="M-142 -20q3 28 25.5 45.5t50.5 15.5q6 -2 136 -21q86 -12 143 -14h19q141 0 202 57q117 111 117 474q-2 170 -51 559q-2 14 -35 176q-18 93 -18 163q0 21 2 40q2 27 16 57h-23h-22q-205 0 -328 16q-29 4 -46 27.5t-13 52.5t27 46q20 15 42 15q6 0 11 -1q115 -16 307 -17 h35h34q2 0 5 2q2 0 11 3t13 3q25 8 45 4q27 -4 45.5 -21t22.5 -44q2 -11 2 -23q0 -40 -27 -90q-18 -37 -18 -43q-1 -14 -1 -30q0 -53 15 -132l37 -188q49 -397 51 -575v-10q0 -414 -162 -566q-100 -94 -295 -94h-24q-61 2 -160 16q-125 18 -131 19q-29 4 -46 26 q-14 20 -14 43v9z" />
<glyph unicode="K" horiz-adv-x="1822" d="M101 780q-5 13 -5 26q0 14 6 28q12 26 37 38q0 25 -2 121.5t-3 132t-1 118.5t1 133t3 118q2 66 6 127q2 31 23.5 49.5t51.5 16.5t48.5 -23.5t16.5 -50.5q-10 -144 -10 -368q0 -126 3 -277q240 270 577 476t667 263q8 2 15 2q20 0 37 -12q22 -16 28 -46q1 -7 2 -13 q0 -21 -12 -39q-16 -24 -46 -27q-324 -59 -659.5 -272.5t-556.5 -485.5v-2q506 -223 780 -430q68 -51 125 -109q57 -61 143 -159l101 -115q20 -23 18 -52q-1 -28 -23 -48q-20 -18 -45 -17h-5q-28 2 -48 23q-27 29 -106.5 121t-132.5 145q-51 53 -113 100q-254 195 -739 410 q2 -455 10 -590q2 -29 -17.5 -50.5t-48 -23.5t-50 17.5t-23.5 48.5q-6 98 -8.5 200.5t-2.5 255t-2 201.5l-2 2q-27 10 -38 37z" />
<glyph unicode="L" horiz-adv-x="1482" d="M80 6q-2 27 -2 60q0 48 4 108q6 63 17.5 161.5t13.5 113.5q33 377 37 485q2 53 2 102q0 55 -2 106q-2 43 -3 91q-1 59 3 128q6 124 24 218q4 29 28 45q19 12 40 12q6 0 13 -1q28 -5 44 -29.5t10 -51.5q-16 -92 -20 -202q-2 -55 -2 -106.5t2 -97.5t2 -101t-2 -117 q-4 -113 -37 -494q-2 -14 -13.5 -111.5t-17.5 -160.5q-4 -55 -4 -98q0 -29 2 -52q2 -47 10 -71q6 -2 15 -2q26 -4 67 -4h29q111 6 309 38q145 25 330 62q195 41 201 43q29 4 52 -12q22 -18 28 -46q1 -7 2 -13q0 -21 -12 -39q-16 -24 -46 -29q-8 0 -201.5 -40t-330.5 -65 q-201 -33 -326 -39q-25 -1 -48 -1q-45 0 -77 5q-78 12 -106 60q-31 49 -35 145z" />
<glyph unicode="M" horiz-adv-x="1998" d="M2 -6q49 397 186 1003q12 57 21.5 94t14.5 62t15.5 57.5t13.5 46t20.5 67.5t27.5 83l59 190q8 29 15 41q2 8 4 15q4 6 6 10q6 6 10 12q18 16 41 19h9q35 0 55 -29q10 -12 12 -27q2 -8 2 -16v-14q-2 -2 -2 -15q14 -27 18 -69q4 -49 5 -51q90 -315 147 -469 q59 -158 113 -242q27 -43 49 -62q14 27 33 76q20 47 92 266q63 188 110 291q74 160 150 205q47 28 89 28q43 0 81 -30q47 -39 69 -127q12 -53 21 -131q0 -10 2 -51q2 -23 4 -29q113 -696 279 -1182q4 -11 4 -23q0 -15 -8 -30q-14 -26 -40 -35.5t-52.5 4t-35.5 39.5 q-172 498 -286 1207q0 10 -2 39q-4 41 -4 49q-6 68 -17 108q-8 37 -20 51q-6 -2 -15 -6q-39 -23 -92 -143q-43 -92 -104 -279l-94 -272q-27 -63 -47 -100q-39 -61 -89 -70q-9 -1 -18 -1q-52 0 -100 40q-39 33 -78 94q-59 94 -125 266q-59 158 -125 389q-6 -25 -20 -65 l-17 -53q-2 -8 -11 -38t-12.5 -41t-9.5 -44l-14 -60q-6 -29 -18 -77q-135 -598 -183 -988q-5 -29 -27 -46q-19 -14 -42 -14h-8q-28 3 -46 25q-16 20 -16 46v6z" />
<glyph unicode="N" horiz-adv-x="1716" d="M53 1559v6q-1 25 15 45q18 22 46.5 25t51 -14t27.5 -46q4 -33 18 -74l4 125q2 29 22.5 48.5t49 18.5t48 -21.5t19.5 -49.5q-6 -176 -6 -362q86 -123 219 -279l301 -330q188 -201 230 -248l174 -202l-49 159q-33 104 -37 125q-80 351 -80 693q0 329 74 651q6 27 30 42 q18 11 37 11q7 0 15 -2q28 -6 43.5 -30.5t9.5 -53.5q-69 -305 -70 -619q0 -327 76 -663q4 -18 35 -113l59 -190q35 -113 55 -191q12 -49 19 -73q6 -33 6 -54v-10q-2 -12 -6 -22q-10 -25 -33 -39q-16 -8 -32.5 -8t-32.5 8q-12 6 -25 16q-10 12 -25 41q-27 53 -28 53 q-41 53 -129 158l-193 223q-39 45 -227 246l-301 330l-113 135q6 -319 45 -856q2 -29 -16.5 -51.5t-47 -24.5t-51 16.5t-24.5 47.5q-45 610 -47 1058l-14 25q-125 190 -142 320z" />
<glyph unicode="O" horiz-adv-x="1873" d="M-87 787q0 219 126 417q57 86 156.5 171t195.5 138q203 111 442 111q64 0 132 -8q23 24 48 24q16 0 34 -10l102 -51q164 -47 313 -137q25 -14 32 -42t-7 -52q-4 -9 -12 -17q80 -96 127 -219q47 -125 51 -249q1 -17 0 -34q0 -107 -21 -213q-43 -248 -172 -430t-319 -268 q-138 -68 -301 -68q-52 0 -106 6q-224 28 -435 177q-173 123 -279 327q-106 206 -107 427zM60 872q-6 -49 -7 -96q0 -90 23 -177q35 -132 113.5 -253t191.5 -199q121 -87 248 -125q107 -33 205 -32q18 0 34 1q112 7 215 54q156 70 264.5 224.5t145.5 371.5q21 99 21 186v31 q-4 100 -44 205q-51 135 -140 221t-234 164q-137 38 -263 38q-200 0 -372 -95q-88 -49 -174 -121q-86 -74 -133 -144q-76 -113 -94 -254z" />
<glyph unicode="P" horiz-adv-x="1466" d="M-46 760q9 28 33.5 42.5t53.5 6.5q102 -33 190 -43q-2 109 -6 207q-2 59 -18 274q-10 133 -14 219q-61 -14 -121 -34q-27 -10 -53.5 3t-36 39.5t4 53.5t40.5 35q157 53 315 73q76 10 153 10q86 0 176 -12q171 -22 314 -94q51 -25 87 -48.5t79 -62t67.5 -92t26.5 -116.5 v-9q0 -216 -295 -399q-111 -68 -233 -117q-125 -47 -219 -63q-63 -10 -125 -12v-594q0 -29 -20.5 -49.5t-49.5 -20.5t-49.5 20.5t-20.5 49.5v598q-109 12 -233 49q-27 10 -41 34q-9 15 -9 31q0 10 4 21zM332 1495q2 -70 14 -235q16 -213 19 -283q4 -102 6 -217q51 2 102 12 q82 12 194.5 55t211.5 105q227 139 227 280q0 66 -47 114q-45 46 -135 91q-185 91 -414 91q-86 0 -178 -13z" />
<glyph unicode="Q" horiz-adv-x="2052" d="M-66 788q-1 21 -1 42q0 168 57 328q63 181 207.5 329.5t349.5 222.5q14 6 31 10q10 25 32 37q14 8 29 8q8 0 16 -2q20 -2 99 -14q25 1 51 1q123 0 274 -30q29 -4 45.5 -27.5t10.5 -52.5q0 -8 -5 -16q201 -109 372 -271.5t253 -340.5q66 -146 66 -311q0 -68 -11 -140 q-49 -293 -284 -457q164 -119 284 -239q21 -21 21 -50q0 -28 -21 -49q-20 -20 -48.5 -20t-49.5 21q-133 133 -321 262l-23 -9q-156 -63 -346 -76q-56 -4 -109 -4q-129 0 -245 23q-172 29 -311.5 110t-228.5 192.5t-138 244.5t-56 278zM74 795q6 -166 74.5 -307.5t209 -248 t334.5 -141.5q120 -20 233 -20q167 0 318 45l-176 102q-27 14 -35 42t6.5 53.5t42 33.5t52.5 -6q143 -78 266 -158q229 131 272 396q11 62 11 121q0 132 -54 247q-90 195 -304 372t-435 253q-51 16 -144 31q-84 -6 -153 -31q-172 -61 -294 -187t-177 -280q-48 -134 -48 -276 q0 -20 1 -41z" />
<glyph unicode="R" horiz-adv-x="1626" d="M95 1209q5 132 34 237q6 25 27.5 39t46.5 12q2 23 17 39t38 20l86 21l62 12q14 4 46.5 9.5t63.5 7.5q20 2 86 4q133 6 228 6q110 0 167 -8q285 -41 334 -181q9 -28 10 -57q0 -100 -108 -221q-49 -53 -127 -117.5t-131 -101.5l-137 -94l-90 -62l-152 -104l59 -17 q217 -57 279 -90q184 -104 290.5 -264t176.5 -383q4 -11 4 -23q1 -15 -7 -29q-14 -26 -42 -35q-11 -4 -22 -4q-16 0 -30 8q-26 13 -34 42q-66 205 -157 342t-249 223q-45 27 -243 80l-136 35l-45 12q-10 2 -14 4q-6 0 -8 2q-6 2 -10 5q-16 8 -29 30q-7 16 -7 32t7 32 q6 10 14 20t23 23l61 43l193 131q10 8 92 61l131 90q49 37 120.5 95.5t114.5 107.5q73 79 73 122q0 8 -3 15q-4 12 -19.5 25.5t-67.5 33t-134 29.5q-53 8 -155 8q-88 0 -212 -6q-57 -2 -81.5 -4t-55.5 -6t-41 -6t-57 -13t-88 -20q-10 -2 -21 -2q-2 -4 -2 -10 q-27 -94 -31 -212q-1 -36 -2 -70q0 -76 7 -140l24 -233q12 -137 17 -228q2 -61 6 -491q0 -29 -20.5 -49.5t-49.5 -20.5t-49.5 20.5t-20.5 49.5q-4 420 -6 487q-2 74 -16 211q-13 139 -23 241q-6 67 -7 147q0 42 2 88z" />
<glyph unicode="S" horiz-adv-x="1990" d="M-103 -264v8q0 24 14 43q17 23 46 27q31 4 75 7t76.5 6t63.5 11q297 74 698.5 253t599.5 343q129 106 156 209q6 22 6 44q0 80 -84 151q-49 41 -111.5 73.5t-115.5 53t-137 39t-133.5 26.5t-147.5 23l-139 20q-6 2 -44 7t-81 12.5t-84 15.5q-182 33 -242 70 q-96 55 -96 149q0 13 2 27q8 78 82 164q57 66 138 121t139 65q122 25 248 25q232 0 477 -84q27 -8 40 -35t3.5 -53.5t-36 -40t-53.5 -3.5q-225 77 -435 77q-110 0 -216 -21q-31 -6 -92 -48t-106.5 -95.5t-51.5 -88.5q-2 -23 27 -41q39 -23 199 -51q39 -8 82 -15t78.5 -12.5 t41.5 -5.5q37 -6 135.5 -20t151.5 -23.5t144.5 -30t155 -44t137 -62.5t130.5 -88q135 -114 134 -254q0 -41 -11 -84q-39 -143 -200 -278q-217 -180 -631 -363q-416 -184 -725 -262q-35 -8 -77 -13t-89 -9.5t-66 -6.5h-6q-25 0 -45 16q-22 18 -25 46z" />
<glyph unicode="T" horiz-adv-x="1466" d="M-168 1409v5q0 26 18 46q20 22 48 23q35 2 557 45l18 53q12 27 39 38q14 6 28 6q13 0 25 -5q23 -10 35 -32.5t6 -47.5q328 25 570 25q29 0 49 -20.5t20 -49.5t-20.5 -49.5t-48.5 -20.5q-254 0 -611 -28q-37 -179 -37 -463q0 -63 2 -131q12 -350 72 -772q4 -29 -14 -53 q-18 -23 -46 -27q-5 -1 -10 -1q-22 0 -42 14q-24 18 -27 46q-59 412 -72 789q-2 70 -2 135q0 267 33 452q-424 -37 -516 -43q-29 -2 -50.5 17.5t-23.5 48.5z" />
<glyph unicode="U" horiz-adv-x="1931" d="M31 1207q2 126 3 178.5t7 183.5q2 29 22.5 49t49 18t49 -22t18.5 -49l-8 -258q-2 -44 -2 -105.5t2 -139.5q4 -157 20.5 -259.5t51.5 -228t88 -230.5q88 -170 212 -232q84 -42 175 -42q43 0 88 10q135 29 265 132t218 253q78 137 134.5 327.5t85 407.5t42 392t19.5 386 q0 29 21.5 48.5t50 19.5t48 -21.5t19.5 -50.5q-6 -213 -19.5 -389t-43 -405.5t-90 -431t-148.5 -353.5q-98 -174 -251.5 -296t-323.5 -156q-58 -12 -114 -12q-124 0 -238 57q-166 82 -273 291q-43 84 -76 180t-52.5 176t-30.5 193.5t-16 183.5q-4 50 -4 128q0 31 1 67z" />
<glyph unicode="V" horiz-adv-x="1601" d="M80 1530q-1 5 -1 11q1 23 15 41q18 24 45 29t50.5 -12.5t29.5 -44.5q27 -168 92.5 -343t158.5 -385t142 -347q8 -20 64 -194q31 -94 45 -131q16 74 33 196q12 92 26 221l15 148q55 338 166.5 647t287.5 641q12 25 40 34q11 4 22 4q15 -1 31 -9q26 -14 35 -40q4 -11 4 -22 q0 -16 -9 -32q-170 -324 -278.5 -622t-159.5 -622q-4 -18 -16 -139q-12 -139 -25 -227q-20 -137 -43 -230q-31 -125 -80 -165q-25 -20 -55 -21q-31 2 -53 23q-16 16 -29 47q-4 10 -10 32q-4 16 -7 19q-29 66 -73 205l-62 192q-41 117 -136 331t-165.5 403.5t-99.5 361.5z " />
<glyph unicode="W" horiz-adv-x="2074" d="M-130 1456q9 28 34.5 40.5t53.5 3.5t40 -34l43 -82q29 -29 22 -30q-2 0 -16 20v-2q8 -16 6 -35l51 -106q57 -123 187 -357q154 -279 194 -360q2 -4 74 -176q119 573 285 977q35 88 108.5 246.5t100.5 220.5q4 10 14 41l18 57q12 35 21 49q6 12 14 21q6 6 16 11t34 10 q5 1 9 1q19 0 33 -16q12 -8 19.5 -19.5t9.5 -19.5v-8q2 -8 2 -19q0 -47 -33 -112q-23 -47 -24 -62q-16 -104 -16 -227q0 -169 30 -373q49 -354 137 -674q31 -111 84 -243l-2 26q-10 261 -10 400q0 59 2 96q14 279 94 545t215 569q12 27 39 37t53 -2q28 -12 38 -39 q5 -12 4 -24q0 -15 -7 -29q-133 -295 -207.5 -548t-89.5 -517q-2 -33 -2 -87q0 -135 11 -397q5 -112 5 -170q0 -19 -1 -32q0 -45 -7 -72q-2 -20 -10 -35q-14 -35 -47 -45q-13 -4 -25 -4q-23 0 -44 14q-10 8 -21 21q-12 16 -29 43q-25 47 -59 125q-74 172 -119 332 q-152 545 -168 999q-37 -80 -63 -143q-168 -410 -287 -1010q-16 -85 -16 -110q0 -7 4 -11q2 -6 10 -17.5t8 -13.5q20 -31 25 -53q2 -12 2 -23q0 -43 -37 -71q-21 -16 -42 -16l-40 14q-10 8 -18 18q-6 6 -15 21q-8 16 -26 53q-29 61 -70 156l-47 110l-43 99q-16 37 -21 45 q-55 119 -187 355t-194 361q-70 147 -83 187q-6 14 -9 22v4l-10 19q-9 16 -9 33q0 11 4 22zM-80 1317q0 -4 2 -6v2zM45 1376l2 -2q-2 2 -2 4v-2z" />
<glyph unicode="X" horiz-adv-x="2095" d="M-72 -92q0 29 23 49q72 66 260 264q174 182 266 271q154 145 336 299l-178 192l-199 217q-66 72 -159 185.5t-154 207.5q-14 25 -8 53q5 28 29 44q17 11 37 12q7 0 15 -2q28 -6 46 -29q57 -92 146 -200.5t155 -180.5l194 -213l183 -198q279 229 843 643q23 18 51 13 t46 -27q14 -18 14 -39q0 -6 -1 -13q-5 -29 -28 -45q-557 -412 -831 -635q186 -213 313 -403.5t186 -382.5q8 -29 -6 -53.5t-41.5 -33.5t-52 5t-35.5 41q-51 174 -171 353t-302 384q-178 -152 -334 -297q-88 -84 -260 -264q-190 -199 -266 -270q-20 -19 -49 -19h-1 q-27 0 -47 22t-20 50z" />
<glyph unicode="Y" horiz-adv-x="2256" d="M-142 1493q-4 12 -4 25q0 14 6 28q13 27 39.5 37t53.5 -2q104 -45 282.5 -168t200.5 -137q94 -57 133 -76q33 -14 148 -92q10 -6 28 -18l43 -33l43 -31q84 -57 111 -70q27 -14 62 -20q21 21 48 21q10 0 21 -3q16 -4 29 -16q74 29 174 123l90 90q57 57 92 88l242 201 l221 182q21 16 46 16h5q29 -2 48 -24q16 -21 16 -46v-6q-2 -28 -25 -46l-221 -181q-158 -129 -242 -202q-29 -25 -84 -80l-94 -92q-125 -119 -227 -158q-16 -6 -37 -10q-10 -61 -12 -143q-1 -42 -1 -80t1 -72.5t1 -74.5t-1 -85q-16 -551 -27 -729q-2 -29 -23 -49 q-20 -17 -45 -17h-5q-29 2 -48.5 23.5t-17.5 50.5q10 176 26 725q1 22 1 56t-1 80t-1 89t1 83q2 81 13 151q-47 10 -86 28q-35 18 -129 84l-43 31l-41 31q-18 12 -29 18q-106 70 -127 80q-47 23 -150 84q-51 31 -209.5 142.5t-256.5 154.5q-27 12 -38 39z" />
<glyph unicode="Z" horiz-adv-x="2289" d="M-4 1388q8 28 32.5 43t53.5 7q45 -12 94 -20.5t88 -13.5t96 -5h91q31 0 98 6l94 8q23 2 102 10l99 11q205 20 571 34q55 2 195 5q80 2 125 2q14 1 24.5 1t18.5 -1h16h8q4 0 10 -2q18 -4 35 -23q22 -27 22 -60q0 -19 -7 -40q-12 -27 -39 -60q-39 -43 -115 -102 q-35 -27 -125 -90q-70 -49 -72 -51l-303 -254q270 -12 555 -50q29 -4 46.5 -27.5t13.5 -52t-27.5 -46t-52.5 -13.5q-362 49 -688 51l-467 -424l-135 -122q-2 -4 -4 -7q-2 -4 -7 -8l-4 -4l-2 -2l-2 -2l-8 -8l-33 -27l-12 -12l-45 -39l18 4q348 72 437 82q262 33 409 45 q131 10 305 10q43 0 89 -1q230 -3 419 -42q29 -4 45 -28q11 -18 11 -39q1 -7 -1 -15q-6 -28 -30.5 -43.5t-52.5 -9.5q-177 35 -395 38q-40 1 -77 1q-171 0 -301 -12q-160 -14 -405 -43q-72 -8 -426 -80q-113 -23 -166 -27q-16 -2 -31 -2q-21 0 -37 4q-66 14 -73 74v11 q0 61 63 100q14 8 25 14l14 6q4 2 8 6l80 70q4 6 15 14q6 6 215 197l348 317q-231 -14 -381 -59q-27 -10 -52.5 3t-34.5 41t4 53.5t42 33.5q217 70 581 72q238 213 424 362l78 53q72 51 119 88q25 18 45 37q-23 0 -55 -2q-137 -2 -193 -4q-362 -14 -563 -35l-94 -10 q-76 -8 -105 -10l-96 -8q-71 -4 -107 -5q-18 0 -42 -1q-26 0 -56 1q-62 1 -106.5 6t-99 13t-105.5 23q-29 9 -43 33q-9 16 -9 32q0 10 3 20z" />
<glyph unicode="[" horiz-adv-x="735" d="M35 -23q4 70 16 181q14 152 35 311q4 31 19.5 129t25.5 184q12 80 16 133q10 117 5 330q-8 254 -2 344q2 25 19 44.5t44 21.5q4 20 20 35.5t39 19.5l129 16q29 4 51.5 -14t26.5 -47t-14.5 -51.5t-46.5 -26.5l-129 -16q-4 -96 2 -322q6 -221 -4 -346q-4 -47 -17 -133 l-26 -188q-12 -90 -19 -133q-25 -184 -37 -306q-10 -106 -14 -174v-57v-2h2q33 0 90 16q45 12 101 35l32 14q18 8 21 9q29 10 54.5 -2.5t35.5 -40t-2 -53t-39 -35.5q-2 0 -4 -3q-4 -2 -10 -4l-37 -14q-72 -29 -113 -41q-78 -23 -131 -20q-100 2 -131 77q-8 20 -8 60 q-2 27 0 69z" />
<glyph unicode="\" horiz-adv-x="1161" d="M-80 1661q-6 29 10.5 53.5t44 29.5t52 -11t28.5 -43q29 -141 97.5 -283.5t180 -328t159.5 -281.5q168 -326 442 -981q12 -27 1 -53.5t-38 -38t-53.5 0t-36.5 37.5q-274 649 -438 973q-39 74 -154 265.5t-190.5 351t-104.5 309.5z" />
<glyph unicode="]" horiz-adv-x="696" d="M-8 1535q8 28 33.5 42t52.5 6q18 -6 31.5 -9t18.5 -5t9 -3t6 -1q4 -2 64 -2q10 0 18 1t22.5 4t31.5 5q72 8 118 -21q68 -43 76 -143q6 -66 -10 -160q-10 -59 -33 -149q-20 -82 -22 -94q-39 -244 -54 -697v-145q0 -125 -8 -209t-33 -158q-12 -39 -32.5 -70.5t-37 -47 t-46.5 -41.5l-45 -37q-23 -20 -51.5 -18.5t-48 23t-17.5 50.5t22 47q27 25 53.5 46.5t36 29.5t18.5 22.5t17 36.5q20 66 27.5 149t4.5 157.5t1 168.5q14 461 53 713q4 20 27 109q23 84 31 137q14 78 10 123q-2 14 -5 24.5t-5 12.5l-2 2q-4 4 -29 0q-82 -10 -88 -11 q-72 0 -86 4q-2 0 -80 21q-29 8 -43 33.5t-6 53.5z" />
<glyph unicode="^" horiz-adv-x="1124" d="M54 879.5q-9 27.5 5 54.5q78 150 179 311q57 92 98 141q25 33 43 50q16 12 33 18q37 16 69 -2q35 -23 74 -90q27 -43 57 -115l47 -110q23 -53 25 -60q23 -45 38 -71.5t38 -55.5l28 -39q6 -8 43 -51l54 -57q20 -23 18 -51.5t-23.5 -48t-50 -17.5t-47.5 23l-47 53l-41 45 q-10 10 -30.5 35.5t-32.5 46.5l-31 49q-18 33 -39 74q-6 12 -31 71l-45 109q-29 61 -49 98q-33 -43 -80 -119q-98 -160 -174 -303q-12 -25 -39.5 -34t-53.5 4.5t-35 41z" />
<glyph unicode="_" horiz-adv-x="1333" d="M-98 -252q2 29 23 48.5t50 17.5q98 -8 266.5 -5t266.5 6t266 11t266 10q29 0 50.5 -19.5t21.5 -48t-19.5 -50t-48.5 -21.5q-98 -2 -268 -10.5t-269 -11.5t-270 -6t-270 5q-29 2 -48 23.5t-17 50.5z" />
<glyph unicode="`" horiz-adv-x="714" d="M182 1378q-6 53 39 82q18 14 49 19q0 2 31 6l10 2q27 10 53.5 -1t38.5 -38q19 -49 -22 -82q16 -12 27 -25q25 -29 42 -65.5t25 -64t13.5 -73.5t6.5 -63.5t0 -69t-1 -53.5q0 -29 -20.5 -49t-49.5 -20t-49.5 20.5t-20.5 48.5v47v45q0 12 -1 40t-3 40.5t-6 34t-9 34.5 t-13.5 29.5t-20.5 28.5q-2 2 -43 27q-68 41 -76 100z" />
<glyph unicode="a" horiz-adv-x="1015" d="M-119 475q6 29 31 43q111 68 260 103q137 262 299 454q18 23 47 25h6q26 0 46 -16q22 -18 24 -47t-16 -52l-27 -33v-4q23 -102 123 -448q86 -297 119 -463q2 -8 2 -15q-1 -20 -13 -38q-16 -24 -43.5 -29.5t-52 11t-29.5 42.5q-33 162 -118 451l-23 84q-12 -6 -24 -11 q-35 -4 -111 -16l-115 -18q-61 -123 -127 -279l-16 -41q8 -25 -2 -47q-72 -176 -72 -178l-4 -8l-6 -6q-8 -12 -25 -21t-33 -9q-14 0 -28 7q-27 12 -35 41q-6 14 -4 29q0 6 2 12l6 25l19 51q55 160 71 198q39 96 78 179q-55 -20 -104 -52q-25 -14 -54 -8q-28 7 -42 31 q-10 17 -11 36q0 9 2 17zM348 653q94 12 119 19h10q-20 72 -35 133q-49 -72 -94 -152z" />
<glyph unicode="b" horiz-adv-x="1140" d="M-66 -50q-5 12 -4 25q0 15 6 29q12 27 39 37q106 41 187 80q-6 76 -21 559q-39 14 -43 55q-1 6 -1 11q0 40 40 59q-4 72 -15 197q-12 124 -18 210q-6 75 -5 172v30q1 116 14 214q3 28 27 46q19 14 41 14h11q28 -4 46 -27.5t14 -52.5q-12 -90 -13 -196v-29q0 -87 5 -154 l16 -203q10 -123 14 -201q98 12 164 11h27q8 0 70.5 -2.5t89 -4.5t75.5 -8q45 -6 84 -14q104 -23 129 -105q6 -21 6 -44q0 -44 -22 -95q-37 -82 -121 -170q-293 -309 -751 -483q-12 -5 -24 -5q-15 0 -29 7q-28 12 -38 38zM281 686q14 -461 16 -493q215 125 377 294 q70 72 96 134q12 29 10 41q-6 6 -24 10q-35 6 -76 11t-64.5 6t-83 4t-75.5 3h-19q-58 0 -157 -10z" />
<glyph unicode="c" horiz-adv-x="1402" d="M-10 388q24 64 65 128q61 94 154 180q88 82 192 140q152 83 281 83q84 0 158 -36q25 -14 35 -41t-3.5 -52.5t-40 -35.5t-53.5 2q-46 22 -100 22q-92 0 -209 -63q-88 -49 -166 -121q-78 -74 -129 -154q-71 -110 -71 -185q0 -35 16 -62q49 -85 248 -85q49 0 106 5 q86 8 191 32q49 12 108 32t98 36l113 45q72 29 102 43q29 10 55 -1q24 -11 36 -39q6 -14 6 -27.5t-6 -25.5q-12 -26 -37 -38q-29 -10 -103 -41l-114 -47q-43 -16 -107.5 -37.5t-118.5 -34.5q-111 -29 -211 -37q-59 -5 -111 -5q-288 0 -376 155q-32 55 -32 125q-1 74 24 140z " />
<glyph unicode="d" horiz-adv-x="1298" d="M-39 289q-1 13 -1 27q0 71 35 146q42 89 114 165q70 74 158.5 127t178.5 67q28 4 55 4q73 1 139 -31q90 -44 144 -153q2 123 2 228q0 158 -4 278q-2 39 -6 138t-5 153q0 27 -0.5 61.5t0.5 76.5q1 83 7 153q2 29 24 47q20 16 46 16h6q29 -2 47.5 -24.5t16.5 -51.5 q-6 -68 -8 -144q-1 -46 0 -83v-46q1 -52 5.5 -149.5t6.5 -142.5q4 -238 4 -293t-4 -293.5t-4 -294.5l67 23q29 10 54.5 -3.5t34.5 -41.5q4 -11 4 -22q0 -16 -8 -30q-13 -26 -40 -34l-115 -39v-23q0 -29 -20.5 -49t-48.5 -20q-23 0 -42.5 14t-25.5 37q-74 -20 -133 -33 q-73 -10 -187 -15q-44 -2 -82 -2q-62 0 -110 5q-137 20 -216 84.5t-89 167.5zM100 301q8 -100 187 -125q41 -5 101 -5q30 0 66 1q106 4 167 16q68 10 155 37q2 70 6 348q-10 -18 -28 -28q-27 -12 -54 -3t-41 36q-51 109 -154 109q-17 0 -36 -3q-135 -23 -260 -154 q-55 -58 -84 -120q-25 -54 -25 -97v-12z" />
<glyph unicode="e" horiz-adv-x="1585" d="M-131 791q-4 12 -4 23q0 15 7 29q13 25 42 34v2l-6 22q-6 29 8 53.5t42 31.5q9 2 18 2q18 0 34 -9q24 -14 33 -41l6 -25q223 55 496 68q113 5 220 5q142 0 273 -9q31 -2 50.5 -22.5t17.5 -50.5t-22.5 -49t-49.5 -17q-124 8 -257 8q-109 0 -225 -6q-257 -12 -468 -60 q35 -139 57 -239q639 16 742 16q29 0 49 -20.5t20 -49t-20.5 -49t-48.5 -20.5q-125 0 -715 -15q14 -80 25 -155q600 38 976 38q67 0 127 -1q29 0 48.5 -21.5t19.5 -50.5t-21.5 -48.5t-50.5 -19.5q-60 1 -128 1q-371 0 -959 -37q4 -43 4 -84q0 -29 -19.5 -50.5t-48 -21.5 t-50 19.5t-21.5 47.5q0 39 -4 80h-3q-29 -2 -50 17.5t-23 48.5t16 50.5t47 23.5q-10 76 -26 159h-27q-31 0 -51.5 19.5t-20.5 49.5t19.5 50.5t48.5 20.5h2q-18 86 -49 204q-27 -6 -50.5 7.5t-29.5 40.5z" />
<glyph unicode="f" horiz-adv-x="999" d="M-22 809q-1 6 -1 11q0 22 15 40q18 23 47 27q41 4 84 6q-35 186 -43 328q-2 23 -2 54q0 47 4 114q8 111 33 208q35 141 102 199q45 39 104 39h11q59 -4 123 -51q53 -39 108 -150q12 -25 33.5 -73t30.5 -64q14 -27 5 -54.5t-35 -40.5t-53.5 -4t-39.5 34q-10 18 -31.5 67 t-34.5 74q-39 80 -65 100q-31 20 -49 23q-8 0 -17 -6q-35 -29 -57 -125q-20 -86 -27 -185q-5 -76 -5 -123q0 -16 1 -28q8 -143 45 -336q92 -6 256 -28.5t197 -26.5q29 -4 46 -27q14 -20 14 -43v-8q-3 -29 -25.5 -46.5t-51.5 -15.5q-57 6 -196 26.5t-211 27.5 q33 -158 45 -238q8 -41 14 -81t10.5 -90t6.5 -77.5t5 -90t4 -76t4 -89.5t3 -80q2 -29 -18.5 -49t-48.5 -22h-6q-25 0 -44 19q-20 20 -22 48q0 12 -2 69.5t-3 75t-3 68.5t-4.5 74t-5.5 67t-7 72l-8 66l-10 71l-53 267q-49 -2 -95 -8q-29 -4 -51 14t-26 47z" />
<glyph unicode="g" horiz-adv-x="1042" d="M-427 -362q5 28 28.5 44.5t52.5 10.5q246 -42 435 -42q67 0 126 5q330 29 432 217q36 67 36 181q0 21 -1 44q-2 47 -12 133q-12 109 -15 134q-2 37 -4 84q-70 -117 -143 -185q-113 -103 -241 -103q-35 0 -70 7q-90 18 -129 63q-54 63 -54 157q0 59 21 130q47 154 166 281 q133 143 280 157q16 2 31 2q105 0 190 -71h5q34 0 57 -27q16 -20 18 -53v-8l4 -6q14 -19 14 -40q0 -15 -7 -30v-49q-2 -10 -3.5 -27.5t-1.5 -19.5q-2 -25 -2 -39q6 -172 9 -215q2 -33 13 -124t13 -143q1 -26 1 -51q0 -151 -52 -248q-139 -254 -543 -290q-65 -6 -137 -6 q-202 0 -461 47q-29 4 -45 28q-12 17 -12 38q0 7 1 14zM168 477q-15 -51 -15 -88q0 -43 21 -67q8 -8 51 -19q19 -4 37 -4q78 0 152 68q74 70 147 204q60 111 78 185q-59 64 -126 64q-8 0 -17 -1q-96 -10 -193 -114q-98 -104 -135 -228z" />
<glyph unicode="h" horiz-adv-x="1120" d="M88 985q-1 52 -1 102q0 249 17 429q2 29 25 47q21 16 46 16h5q28 -2 47 -24.5t17 -51.5q-17 -182 -17 -438v-78q0 -59 4.5 -242.5t4.5 -283.5v-51v-54q16 41 59 162q33 92 43 111q47 88 115.5 165.5t140.5 108.5q45 21 85 21q54 0 99 -39q72 -63 92 -223q6 -39 13 -211 q6 -147 6 -179q0 -23 -2 -30v-2l12 -150v-6q-1 -26 -17 -46q-18 -22 -48 -24h-5q-25 0 -45 16q-22 18 -24 48l-10 151q-2 16 -2 19v4v4q0 4 2 10v4q0 35 -7 176q-6 160 -12 199q-14 106 -45 135q-10 8 -35 -2q-43 -20 -97 -81.5t-93 -133.5q-6 -10 -35 -92 q-41 -117 -64 -170q-41 -106 -73 -160q-23 -41 -45 -61q-31 -29 -64 -29q-21 0 -43 12q-20 10 -28 31q-4 6 -6.5 12.5t-2.5 12.5q0 4 -2 12v33q-2 35 -2 94v203q0 100 -4 282.5t-4 241.5z" />
<glyph unicode="i" horiz-adv-x="577" d="M70 1346q0 22 12 38q0 25 16 46q18 22 47 24q2 0 4 1q25 1 47 -17t25 -47l8 -97q2 -29 -16 -51t-47 -24t-51.5 16t-24.5 47l-2 16q-18 18 -18 48zM100 469q-1 22 -1 43q0 246 85 403q14 27 42 35q10 3 20 3q18 0 34 -9q26 -14 33.5 -41.5t-6.5 -52.5q-68 -124 -68 -328 q0 -24 1 -49q8 -244 100 -352q16 -18 16 -44v-6q-2 -31 -24 -49q-19 -17 -45 -16h-5q-30 2 -49 25q-125 143 -133 438z" />
<glyph unicode="j" horiz-adv-x="692" d="M-133 -37q-1 5 -1 9q0 22 16 42q18 23 45.5 27t51 -14.5t27.5 -46.5q29 -221 88 -369q39 -100 88 -146q33 -33 70 -33q5 0 10 1l2 4q12 20 27 57l28 90q13 76 13 298v89q-2 205 -37 617q-37 440 -43 624q0 29 19.5 49.5t48 21.5t49 -18t22.5 -48q6 -162 43 -619 q33 -399 37 -627q1 -51 1 -96q0 -227 -17 -315q-6 -39 -33 -113q-18 -49 -37 -80q-33 -57 -78 -67q-30 -7 -58 -7q-90 0 -163 70q-70 68 -121 197q-66 164 -98 403zM178 1698v6q0 25 16 44q19 21 48 24q4 1 8 1q23 0 42 -15q21 -19 25 -48q2 -31 5 -70q27 -20 43 -34 q23 -16 25 -45q1 -4 1 -7q0 -25 -15 -44q-18 -23 -46 -26h-8q-23 0 -43 15q-6 4 -48 35q-29 20 -38 45q-8 20 -11 55q0 35 -4 64z" />
<glyph unicode="k" horiz-adv-x="1265" d="M78 1657q-5 12 -5 24q0 15 7 29q12 26 38 37q12 5 25 5q15 0 29 -7q27 -12 37 -39q51 -137 76.5 -289.5t26.5 -315.5v-40q0 -139 -6 -256q-7 -133 -21.5 -312.5t-18.5 -281.5q-2 -55 -2 -451q0 -29 -20.5 -49t-49 -20t-49 20.5t-20.5 48.5q0 397 2 455q4 115 18.5 294 t21.5 306t7 279.5t-22 294.5q-25 139 -74 268zM313 199q2 16 11 39q12 37 41 90q41 86 127 225q164 270 235 360q53 68 78 88q12 8 86 50q16 9 33 9q10 0 20 -3q28 -8 41.5 -34t5.5 -53.5t-35 -41.5q-61 -33 -65 -37q-10 -8 -53 -64q-72 -92 -228 -346q-80 -133 -123 -217 q-23 -45 -32 -71v-3q20 -18 49 -26q55 -16 153 -19h35q64 0 144 5q121 8 139 8q29 0 49 -20.5t20 -49.5t-20 -49.5t-49 -20.5q-14 0 -131 -6q-87 -6 -156 -6h-33q-117 2 -190 25q-111 33 -146 110q-7 18 -7 40q0 9 1 18zM446 199q3 0 5 -2q-1 3 -3 3q-1 0 -2 -1z" />
<glyph unicode="l" horiz-adv-x="491" d="M4 884q-8 126 -8 251t8 249q16 246 68 512q4 30 28 46q18 13 39 12q7 0 13 -1q28 -5 44.5 -28.5t10.5 -52.5q-47 -258 -63 -496q-9 -123 -9 -248q-1 -117 7 -236q16 -245 44.5 -455t81.5 -507q2 -8 2 -15q0 -20 -12 -37q-16 -22 -45 -28l-14 -2q-21 0 -39 12 q-24 16 -27 46q-55 301 -84 513t-45 465z" />
<glyph unicode="m" horiz-adv-x="1554" d="M72 35l14 84l12 61q2 12 11.5 45t19.5 62l31 84q6 12 71 180q66 162 74 176q2 4 13.5 34t21.5 53.5t26.5 55t32.5 52.5q47 62 104 62q16 0 34 -5q70 -20 116 -135q10 -27 13 -84q1 -20 1 -47.5t-1 -63.5q-1 -108 -1 -175.5t1 -94.5q4 -156 24 -227q4 -12 10 -23l15 25 q25 43 67 137l174 366q51 98 93 152q57 82 114 92q12 2 24 2q37 -1 62 -25q33 -32 47 -77q25 -76 29 -230q4 -147 4 -186q0 -158 -4 -184v-15l8 -129v-5q1 -26 -17 -45q-20 -21 -48.5 -23t-50 17t-23.5 48l-8 129q0 29 2 41q2 0 2 166q0 43 -4 182q-4 113 -17 172l-10 -12 q-33 -45 -78 -133q-18 -37 -172 -363q-47 -98 -73 -147q-18 -33 -35 -53q-27 -33 -56 -43q-26 -10 -50 -10q-43 0 -79 32q-37 33 -59 101q-27 88 -31 264q-1 28 -1 97.5t1 178.5q1 34 1 59.5t-1 43.5l-4 37q-8 25 -18 40q-12 -20 -24.5 -45.5t-27 -63.5t-20.5 -48 q-6 -16 -70 -176q-68 -164 -71 -176q-20 -53 -28.5 -77t-17.5 -54.5t-10.5 -41t-10.5 -58.5t-17 -85q-5 -27 -29 -43q-19 -12 -39 -12q-6 0 -13 1q-28 6 -44 30q-12 18 -12 38q0 7 2 15z" />
<glyph unicode="n" horiz-adv-x="1189" d="M90 874q0 4 27 121q6 29 29.5 44.5t52 9t44 -29.5t9.5 -52l-10 -41q-4 -20 -7.5 -34.5t-5.5 -29.5q-1 -13 -1 -34q0 -98 30 -373q16 -143 33 -238l6 21q16 45 31 108l8 29q4 14 6 24.5t2 12.5l25 98l32 113q10 41 30 104.5t42.5 115.5t46.5 97q102 184 209 184h3 q100 0 159 -139q37 -84 56.5 -197.5t21.5 -179.5v-207v-385q0 -29 -20.5 -49t-49.5 -20t-49.5 20.5t-20.5 48.5v385v203q-2 55 -19 156.5t-46 169.5q-18 43 -35 55q-35 -18 -86 -111q-23 -43 -42 -89t-37.5 -103t-29 -94t-29 -111t-26.5 -102q0 -2 -2 -11.5t-6 -23.5l-8 -29 q-16 -66 -35 -121q-27 -78 -57 -118q-45 -66 -102 -66q-19 0 -40 8q-29 12 -45 47q-6 14 -12 35q-8 33 -18 90q-14 90 -33 254q-32 294 -32 399q0 21 1 35zM311 119v2v-2z" />
<glyph unicode="o" horiz-adv-x="1226" d="M-10 352q-9 53 -9 105q0 70 17 137q29 115 96 211q113 160 281 188q32 6 65 6q155 0 305 -131q23 -20 25 -48.5t-16 -49.5l-9 -8q47 -39 86 -76q176 -167 176 -332q0 -13 -1 -26q-16 -156 -129 -246q-115 -88 -269 -109q-48 -7 -96 -7q-98 0 -193 28q-143 41 -227 139 q-80 94 -102 219zM122 467q0 -8 -1 -16q0 -131 78 -228q55 -65 165 -97q71 -20 145 -21q40 0 81 6q119 16 193.5 75.5t82.5 153.5q1 7 1 15q0 107 -132 231q-31 29 -70.5 61.5t-66.5 50.5l-78 52q-47 35 -63 45q-29 21 -29 56v9q-14 -2 -31 -4q-109 -18 -188 -131 q-82 -117 -87 -258z" />
<glyph unicode="p" horiz-adv-x="1275" d="M24 815q0 26 17 47q2 4 8 10l10 17q23 31 50 45l2 2q4 88 14 160q4 29 27 46q20 14 42 14q5 0 10 -1q29 -4 46.5 -27.5t13.5 -52.5q-8 -49 -12 -102q51 8 98 10q35 2 70 2q143 0 280 -33q170 -41 267 -129q90 -86 90 -192q0 -36 -10 -74q-41 -150 -246 -311l-86 -66 q-35 -25 -76 -47t-58.5 -30.5t-78.5 -32.5l-90 -39q-27 -12 -54.5 -1t-39 36.5t0 53t35.5 38.5l92 39l74 32q16 6 52 26.5t67 43.5l76 57q168 131 196 238q5 18 5 35q0 51 -46 92q-68 63 -211 98q-112 27 -239 27q-30 0 -62 -2q-51 -2 -100 -10l-10 -3q0 -47 3 -201 q2 -92 2 -160q0 -46 -1 -81l-8 -205q-6 -158 -8 -230q-2 -44 -2 -108v-82q2 -120 10 -221q2 -29 -16.5 -50t-47.5 -23h-6q-26 0 -46 16q-22 18 -24 49q-8 100 -9 224v77q0 72 1 121q2 74 8.5 232.5t8.5 203.5q0 25 -4 357q-9 -2 -17 -2q-23 0 -43 16q-25 19 -25 51z" />
<glyph unicode="q" horiz-adv-x="1196" d="M140 504q16 114 71 217q94 170 271 248q88 39 187.5 39t209.5 -39h2q12 4 24 4q29 0 49.5 -20.5t20.5 -49.5q0 -166 -9.5 -398.5t-17.5 -403.5q-6 -137 -6 -302v-84q2 -215 23 -393q2 -29 -15.5 -51.5t-46.5 -25.5h-8q-24 0 -43 15q-23 17 -27 46q-22 201 -22 468 q0 137 6 292q-23 -29 -57 -29q-2 0 -76 -1h-44q-39 0 -56 1q-27 2 -87.5 8t-105.5 23.5t-86 44.5q-94 61 -133 169q-28 78 -28 158q0 32 4 64zM278 404q13 -121 97 -177q23 -14 52.5 -24t53 -16.5t64.5 -8.5l63 -2q13 -1 41 -1h31q53 1 72 1q39 0 59 -33q25 641 25 695h-2 q-85 30 -160 30q-74 0 -138 -28q-130 -58 -202 -187q-57 -107 -57 -211q0 -19 1 -38z" />
<glyph unicode="r" horiz-adv-x="927" d="M-14 963q2 29 22.5 49t49 18t49 -22.5t18.5 -49.5q0 -23 -2 -45q195 141 508 168h6q25 0 45 -16q22 -18 25 -47v-6q-1 -26 -17 -46q-18 -22 -47 -24q-168 -14 -293 -62.5t-225 -148.5q6 -121 27 -346q16 -205 24 -326q2 -29 -18 -50t-48 -23h-5q-25 0 -45 18 q-22 20 -23 47q-8 121 -23 281q-16 188 -25 342q-5 93 -5 179q0 56 2 110z" />
<glyph unicode="s" horiz-adv-x="1353" d="M14 20q-5 12 -4 25q0 15 6 29q12 26 39 37l123 43l219 79q113 45 211 91q182 84 283 157q61 47 94 111q-8 6 -20 10q-41 20 -103 37q-131 39 -325 55q-6 1 -37.5 1t-89.5 -1q-92 0 -152 21q-70 20 -104 47q-52 41 -52 94v6q2 47 48 84q29 25 73 45q70 33 166 56.5 t146 23.5q29 0 49 -20.5t20 -49t-20 -49t-49 -20.5q-33 0 -114 -19.5t-138 -48.5q-8 -2 -15 -6q12 -6 31 -12q39 -12 111 -12q60 1 94.5 1t44.5 -1q207 -18 354 -60q70 -20 121 -45q39 -18 61 -37q48 -36 48 -84q0 -119 -158 -237q-113 -84 -309 -174q-98 -45 -213 -91 l-224 -81q-106 -37 -125 -45q-12 -5 -24 -5q-14 0 -29 7q-27 12 -37 38z" />
<glyph unicode="t" horiz-adv-x="954" d="M9 828q-1 7 -1 12q0 22 12 40q16 24 46 27q80 16 167 25q18 430 119 739q8 29 34 42q15 8 31 8q11 0 23 -4q28 -9 41 -34.5t2 -52.5q-90 -287 -110 -690q56 2 129 2t164 -2q29 0 48 -21.5t19 -50t-21.5 -48t-49.5 -19.5q-91 2 -164.5 2t-128.5 -2v-44q0 -398 69 -720 q6 -27 -9 -51.5t-43 -30.5q-8 -2 -15 -2q-19 -1 -37 11q-24 16 -31 44q-74 340 -74 742v41q-72 -6 -139 -19q-29 -6 -52.5 11t-28.5 45z" />
<glyph unicode="u" horiz-adv-x="1159" d="M63 381q-20 101 -20 218q0 131 25 282q6 27 30 44q18 13 38 13q6 0 12 -1q28 -5 45.5 -28.5t13.5 -52.5q-24 -139 -24 -257q0 -102 18 -189q23 -115 75 -166q44 -47 118 -47q16 0 32 2q88 10 163 64t122 140q55 94 70.5 199t17.5 266q0 29 20.5 49.5t49 20.5t49 -20.5 t20.5 -49.5q-2 -115 -6 -182.5t-28.5 -168.5t-69.5 -183q-63 -111 -165 -185.5t-227 -89.5q-24 -3 -47 -3q-132 0 -219 89q-80 82 -113 236z" />
<glyph unicode="v" horiz-adv-x="1224" d="M-27 979q-2 8 -2 16q-1 21 11 37q16 24 44.5 29.5t52.5 -9.5t30 -44q20 -96 55 -185q35 -92 89 -213t81 -190l51 -137l4 20l35 176q18 86 20 96q72 252 173.5 445.5t267.5 353.5q23 20 51 20q1 0 2 1q28 1 46 -21q20 -22 20 -51t-21 -47q-152 -145 -245 -323.5 t-158 -413.5q-2 -4 -19 -86l-35 -177l-37 -176l-12 -59q-4 -12 -6 -21q-2 -6 -4 -10q-4 -14 -16 -26q-22 -22 -51 -22q-6 0 -13 1q-23 4 -39 21q-10 10 -16 26q-6 12 -15 37l-34 107q-31 92 -80 217q-23 57 -76 178q-57 127 -96 231.5t-58 198.5z" />
<glyph unicode="w" horiz-adv-x="1368" d="M-20 831q-2 8 -2 16q0 19 10 37q14 26 41.5 32t53.5 -8.5t32 -43.5q70 -276 172 -518q45 -104 80 -162l4 11q20 51 47 159q43 166 49 183q29 102 57 145q18 29 37 47q23 20 45 29q14 4 27 4q39 0 63 -37q35 -53 41 -154q1 -17 1 -41q0 -48 -3 -124q-3 -73 -3 -116 q0 -22 1 -36q4 -43 12 -64q2 8 7 21q20 92 22 96q10 29 28.5 86.5t35 102.5t32.5 84q18 47 43 100l54 115l47 96q12 27 40 37q12 4 24 4q15 0 29 -6q26 -12 36 -40q5 -12 5 -25q0 -14 -7 -27l-47 -97l-54 -112l-43 -99l-30 -84l-33 -98l-29 -82q-4 -10 -6 -21.5t-6 -29.5 t-6 -33q-18 -74 -58 -112q-29 -29 -70 -29q-22 0 -46 8q-45 16 -74 51q-39 49 -45 150q-1 16 -1 40q0 48 3 126q2 63 4 82q-2 -8 -47 -175q-31 -115 -51 -174q-16 -43 -35 -69q-27 -43 -61 -58q-18 -8 -35 -8q-34 0 -68 29q-25 23 -49 63q-43 68 -96 191q-104 250 -178 538z " />
<glyph unicode="x" horiz-adv-x="1685" d="M92 983v5q0 26 18 46q20 22 48 23.5t49.5 -18t23.5 -48.5q8 -135 207 -377q61 72 152 166q270 285 454 428q43 33 95 70l118 78l99 63q19 12 40 12q6 0 12 -1q28 -6 44 -30q12 -19 12 -39q0 -7 -1 -13q-5 -28 -29 -43q-35 -25 -99 -64l-110 -74q-51 -35 -95 -69 q-182 -141 -440 -414l-160 -176l154 -164q109 -119 176.5 -197.5t110.5 -142.5q14 -25 8 -54q-5 -28 -29 -44q-17 -11 -36 -10q-8 0 -17 2q-29 6 -45 28q-37 59 -94 127l-166 183l-150 161q-84 -113 -108 -180q-4 -8 -4 -29q-2 -51 -2 -53q-4 -29 -25.5 -47t-50.5 -15 t-47.5 24t-16.5 50q2 8 2 17v16v15q2 41 13 71q35 92 147 238q-248 293 -258 479z" />
<glyph unicode="y" horiz-adv-x="1130" d="M-124 -685q-1 7 -1 13q0 21 12 39l109 170l127 211l102 176l113 185l-68 157l-73 176l-66 156q-39 94 -68.5 178t-54.5 166q-8 29 6.5 54.5t42 33.5t53 -6t33.5 -41q10 -41 25 -80l29 -84l28 -78q10 -33 33 -86l31 -77l35 -82l32 -78l36 -84t34 -78q117 193 188 346 q35 76 80 209q55 160 82 223q10 27 37 38q13 6 26.5 6t26.5 -6q27 -11 38 -38q5 -12 5 -25q0 -14 -6 -28q-16 -39 -76 -213q-49 -143 -86 -223q-84 -180 -247 -449q12 -27 0.5 -53.5t-37.5 -36.5q-10 -6 -23 -6l-90 -150l-104 -174l-127 -213q-51 -86 -111 -174 q-16 -25 -44 -29q-6 -1 -12 -1q-21 0 -40 12q-25 16 -30 44z" />
<glyph unicode="z" horiz-adv-x="1243" d="M34 876q4 28 28 44q19 14 41 15q5 0 10 -1q119 -20 267 -22q44 -1 85 -1q100 0 190 4h109q45 0 72 -2h26q6 -2 12.5 -2t10.5 -2q14 -4 24 -12q52 -41 52 -102v-11q-6 -43 -41 -88q-12 -16 -32 -34.5t-34 -30.5l-12 -10l-297 -283l-178 -176q334 -12 596 -53q29 -6 46 -29 q13 -18 13 -39q0 -7 -1 -13q-5 -28 -27 -46q-18 -14 -41 -14q-5 0 -11 1q-305 49 -756 58q-29 0 -48 21.5t-19 49.5q0 27 18.5 46.5t44.5 21.5q104 117 267 272l294 281q8 8 29 25.5t33 31.5h-41h-105q-92 -4 -204 -4h-77q-158 2 -286 23q-29 5 -46 29q-13 18 -13 39 q0 7 1 13z" />
<glyph unicode="{" horiz-adv-x="1202" d="M85 557q-11 27 0 53.5t38 36.5l125 53q6 45 10 91q8 80 10 194v100v103q2 147 15 215q12 82 41 131q47 84 129 80q37 -2 77 -23l23 -14q10 -4 16 -8q27 -10 38 -37t0 -53.5t-37.5 -37.5t-53.5 1q-12 4 -31 14l-8 4q-8 4 -12 8q-10 4 -14 7q-4 -4 -7 -11q-16 -27 -24 -84 q-10 -57 -12 -196v-99v-102q-2 -123 -11 -209q-6 -53 -14 -115q0 -16 -4 -28q-2 -23 -12.5 -93.5t-13.5 -94t-9 -83t-8 -92t-3 -85t1 -99.5t6 -98q0 -6 2 -37t2 -53q4 -29 6 -48l2 -18q27 -51 68 -75.5t121 -41.5q186 -39 344 29q25 12 52.5 1t38.5 -36.5t0 -53.5t-38 -38 q-193 -86 -426 -37q-102 20 -168 62q-70 39 -115 129q-10 20 -16 57q-4 25 -6 59q-2 23 -4 52.5t-2 35.5q-20 231 24 568l-49 -21q-27 -12 -53.5 -1t-37.5 38z" />
<glyph unicode="|" horiz-adv-x="815" d="M428 1290q2 119 10 234q2 29 24.5 47t51.5 16t47.5 -24.5t16.5 -51.5q-10 -111 -11.5 -229.5t2.5 -282t4 -231.5v-233q0 -172 1 -259.5t5.5 -224.5t14.5 -250q2 -29 -16.5 -51t-47 -24t-51 16t-24.5 47q-8 115 -13.5 245t-6.5 244.5t-1 245.5v244q0 63 -4 232t-2 290z " />
<glyph unicode="}" horiz-adv-x="780" d="M-22.5 -337q10.5 28 36 40t54.5 2q6 -2 63 -27q23 -10 33 -10q8 -6 31 19q2 23 0 57q-2 63 -9 180l-10 187q-2 53 -4 67v41q6 139 21 246q-2 23 8 43q0 4 41 194q41 188 53 314q18 178 -6 280q-27 106 -96 134q-14 6 -66 12q-6 0 -86 6q-29 2 -47.5 24.5t-16 51t24.5 47 t51 16.5q78 -6 88 -8q70 -8 101 -18q139 -53 182 -232q31 -127 10 -328q-14 -131 -55 -327l-23 -103l117 29q29 6 53.5 -8t30.5 -43t-8 -53.5t-43 -30.5l-178 -45q-10 -88 -17 -209v-27q2 -23 4 -67l11 -185q6 -119 8 -184q2 -41 0 -63v-25q-2 -8 -2 -14q-4 -18 -17 -33 q-78 -94 -165 -84q-31 4 -72 20q-55 23 -60 25q-27 10 -39 35.5t-1.5 53.5z" />
<glyph unicode="~" horiz-adv-x="1310" d="M151 1327.5q-5 27.5 11 52.5q88 133 180 166q84 31 178 -18q20 -10 41 -25l49 -37l35 -24q59 -43 103 -47q76 -10 108 2q14 4 47 22q53 31 86 45q27 14 53.5 5t40 -35.5t4 -53t-35.5 -39.5q-29 -14 -80 -43q-45 -25 -66 -32q-66 -25 -178 -11q-74 10 -162 72l-41 29 l-39 28q-16 12 -30 21q-39 20 -66 10q-49 -16 -113 -112q-16 -25 -43.5 -30t-52 11t-29.5 43.5z" />
<glyph unicode="&#xa2;" horiz-adv-x="1406" d="M-22.5 486.5q22.5 107.5 90.5 211.5q86 131 223 222.5t289 99.5l53 199q8 27 32.5 41t52 7t42 -32t8.5 -53l-47 -174q119 -31 223 -119q23 -18 25 -47t-16.5 -51.5t-47 -24.5t-51.5 16q-80 68 -172 88q-119 -428 -168 -657l-16 -80q102 -4 235 45q164 61 340 193 q25 18 52.5 14t46 -27.5t14.5 -51t-27 -46.5q-190 -143 -377 -213q-164 -59 -307 -53q-51 -324 -57 -350q-4 -29 -27.5 -45.5t-52.5 -11.5t-45.5 29t-9.5 52q6 43 53 340q-279 51 -348 258q-33 113 -10.5 220.5zM113.5 458q-17.5 -83 5.5 -147q44 -129 241 -166q8 51 19 97 q47 227 160 632q-102 -18 -195.5 -84.5t-159.5 -166.5q-53 -82 -70.5 -165z" />
<glyph unicode="&#xa3;" horiz-adv-x="2045" d="M25 -12q-12 37 10 69q29 39 86 74q55 31 63 39q195 164 242 274q47 115 -18 320q-84 -16 -160 -37q-27 -8 -52.5 6.5t-33.5 42t6 53t43 33.5q72 18 149 35q-25 66 -38 111t-25 108.5t-9 121.5t23 112q27 70 82.5 109.5t114.5 43.5t121 -6q90 -18 170 -74.5t112 -132.5 q10 -25 17.5 -47t9.5 -49l4 -39q0 -14 -1 -44t-1 -36q0 -29 -20.5 -49t-49 -20t-49 20t-20.5 49v39v37q0 8 -1 25.5t-5 30t-11 26.5q-18 41 -69 78t-115 51q-125 27 -158 -62q-14 -37 -16 -78.5t10.5 -94t25.5 -94.5t38 -113q78 10 422 41q29 2 51 -16.5t24 -47.5t-16 -51.5 t-47 -24.5q-328 -29 -387 -37q72 -236 6 -393q-47 -117 -188 -248q141 29 208 39q516 70 1190 -6q29 -4 46.5 -26.5t14.5 -51t-25.5 -46t-51.5 -15.5q-649 76 -1153 6q-66 -8 -236 -43q-29 -6 -88 -20.5t-90 -20.5q-4 -2 -18 -6q-20 -6 -29 -8q-27 -6 -45 -6q-49 4 -63 49z " />
<glyph unicode="&#xa5;" horiz-adv-x="1857" d="M-67.5 1503q1.5 29 23 48.5t50.5 17.5t49 -25q176 -203 295 -364.5t205 -345.5q2 -4 23 -56q16 -41 26 -61l6 -10q14 6 31 4q12 -2 25 -9q25 23 53 62q29 33 67.5 88t44.5 61q137 162 306.5 303.5t390.5 294.5q23 16 51.5 11.5t44.5 -28.5t11 -52.5t-29 -44.5 q-213 -150 -376 -285t-292 -289q-4 -4 -39 -53l-70 -94q-47 -57 -84 -90q-25 -25 -47 -37q0 -29 2 -60q291 41 539 50q29 0 50.5 -19.5t21.5 -48.5t-19.5 -50.5t-48.5 -21.5q-242 -6 -526 -47l6 -33l127 17q381 49 586 49q29 0 49 -20.5t20 -49t-20.5 -49t-48.5 -20.5 q-215 0 -566 -47l-120 -17q8 -55 16 -98q4 -29 -13.5 -51.5t-46 -27.5t-51 12.5t-28.5 45.5q-4 39 -17 101q-186 -25 -319 -35q-29 -2 -50.5 17.5t-23.5 48t17.5 50t48.5 23.5q139 10 303 33l-6 29q-176 -29 -439 -80q-29 -6 -53.5 10t-29.5 44t11.5 52.5t43.5 28.5 q270 55 450 84q-4 45 -4 86q-12 10 -24 23q-29 27 -54 75q-16 29 -32 74q-20 47 -21 49q-80 172 -192.5 324.5t-286.5 353.5q-18 20 -16.5 49z" />
<glyph unicode="&#xa8;" horiz-adv-x="866" d="M43 1292q0 10 1 15.5t1 7.5v2v2q-2 17 4 31q12 45 60 51q117 12 161 -8q27 -10 39 -33q18 -29 10 -62q-8 -29 -38 -55q-33 -27 -84 -45q-25 -10 -45 -12q-43 -8 -74 14q-41 31 -35 92zM356 1239q-10 39 17 80q16 25 47 55q4 2 67 51q23 18 51.5 14.5t47.5 -26.5 q12 -17 14 -37l10 -10q45 -45 33 -98q-6 -20 -22 -37q-4 -4 -10.5 -8t-16.5 -9l-33 -14q-47 -16 -84 -22q-29 -4 -51 0q-55 10 -70 61z" />
<glyph unicode="&#xa9;" horiz-adv-x="1931" d="M-173 729q5 143 82 272t190.5 228.5t254.5 171.5q139 70 293 103.5t303.5 27.5t283.5 -72.5t220 -191.5q24 -35 4 -74q147 -125 213 -289q37 -96 41 -192.5t-36 -195.5t-124 -181q-133 -129 -368 -201q-229 -72 -488 -72q-127 0 -243.5 19.5t-226 61.5t-195.5 115 t-135 169q-74 158 -69 301zM-26.5 772q-26.5 -139 44.5 -283q72 -139 254.5 -212.5t423.5 -73.5q238 0 443 63q209 63 315 168q182 178 88 418q-45 109 -135 200t-203 140q-115 47 -239 68q-70 12 -125.5 16t-118 1t-99 -6t-122.5 -13.5t-131 -16.5h-17q-156 -90 -254 -210 t-124.5 -259zM360 666q-43 115 58 252q80 111 207 180q145 80 249 41q37 -14 62 -54q6 -8 9 -13t5 -7v-4l4 -4q18 -23 16.5 -51.5t-24 -47t-51.5 -16.5t-47 25q-2 4 -29 43q-47 10 -127 -35q-100 -53 -162 -139q-57 -76 -38 -121q20 -55 161 -74q72 -10 320 -4 q29 0 50 -19.5t21 -48t-19 -50t-48 -21.5q-260 -6 -340 4q-225 31 -277 164z" />
<glyph unicode="&#xab;" horiz-adv-x="1249" d="M117 530q-20 51 10 103q18 37 63 78q61 55 252 180q25 16 53.5 10t44 -29.5t9.5 -52.5t-29 -43q-178 -119 -235 -170q-20 -18 -31 -31h2q20 -14 63 -32q4 0 259 -92q29 -10 41 -36t1.5 -53.5t-36 -40t-52.5 -2.5q-258 92 -266 95q-55 25 -86 45q-49 31 -63 71zM530 537 q-53 76 17 161q37 47 115 99q96 66 215 118q27 12 53 2t38.5 -36.5t2.5 -53.5t-37 -39q-113 -53 -195 -106q-47 -33 -71 -57q39 -6 104 -15q37 -4 80 -8l74 -8q33 -2 41 -2q29 -4 46 -26.5t14 -51.5t-25.5 -46t-51.5 -15q-6 2 -38.5 4t-75.5 6t-80 8q-76 10 -121 18 q-31 6 -49 13q-37 12 -56 35z" />
<glyph unicode="&#xad;" d="M-151 459q11 27 38 37q240 102 514 137q29 2 51.5 -15.5t25.5 -46t-14.5 -51t-45.5 -26.5q-254 -31 -477 -125q-27 -12 -53.5 -1t-38 37.5t-0.5 53.5z" />
<glyph unicode="&#xae;" horiz-adv-x="2007" d="M-125 850q27 145 117 270q88 127 223 217t326.5 127t406.5 2q29 -6 45.5 -29.5t12.5 -52.5q-5 -16 -15 -30q174 -27 332 -99q125 -57 235.5 -152t172.5 -212q109 -207 12 -385q-78 -143 -279 -250q-160 -84 -360.5 -131t-345.5 -49q-481 -6 -723 235q-109 111 -150 250 q-39 139 -10 289zM10 823q-20 -115 9.5 -222t113.5 -191q201 -199 625 -195q129 2 313 45t330 119q164 86 219 192q61 113 -12 254q-49 94 -142.5 174t-199.5 129q-113 51 -225.5 77t-240.5 26t-227.5 -8.5t-255.5 -30.5q-26 -2 -49 12q-104 -74 -169.5 -173t-88.5 -208z M506 1004q2 25 19.5 43t41.5 22q-4 10 -4 23q0 29 20.5 49t49.5 20h14q6 0 15.5 1t15.5 1q39 4 67 -4q129 -33 140 -115q10 -63 -62 -131q-14 -14 -47 -40.5t-41 -34.5q-6 -6 -12 -11q12 -10 33 -18q55 -27 159 -45q59 -10 121 -19q66 -8 125.5 -13t67.5 -5q29 -4 46 -26.5 t14 -51t-25.5 -46t-51.5 -15.5q-8 2 -69.5 7t-128 13t-125.5 19q-119 23 -191 55q-31 14 -55 31q4 -152 23 -324q2 -29 -16.5 -50.5t-47.5 -24.5t-50.5 15.5t-25.5 47.5q-33 336 -20 627zM641 1022q4 -12 4 -27q-2 -27 -2 -53q10 10 45 37q27 23 39 35l4 4q-8 4 -18 6 q-8 2 -27 2q-4 -2 -20.5 -3t-24.5 -1z" />
<glyph unicode="&#xb4;" horiz-adv-x="669" d="M199 1349.5q2 28.5 24 49.5l111 96q20 18 49 16t48.5 -23.5t17.5 -50t-25 -48.5l-111 -97q-20 -18 -48.5 -16t-48 23.5t-17.5 50z" />
<glyph unicode="&#xbb;" horiz-adv-x="1144" d="M115.5 720q-6.5 28 7.5 52.5t41.5 31.5t52.5 -7q72 -41 170 -84q43 -18 59 -27q39 -23 56 -49q25 -43 2 -92q-12 -27 -43 -62q-23 -23 -168 -159q-20 -18 -49 -18.5t-48.5 21t-19.5 50.5t23 49q139 131 155 149l-22 11q-109 45 -185 92q-25 14 -31.5 42zM472 247.5 q-3 28.5 13 51.5q18 23 179 182l94 99l28 32v2h-2q-53 -4 -59 -4q-2 0 -102 8q-29 2 -47.5 25t-16.5 51.5t24.5 47t51.5 16.5q10 -2 30.5 -3t37 -3t30.5 -2h8q4 0 13.5 1t21.5 3q55 2 92 -23q37 -27 49.5 -71t6.5 -82q-4 -16 -15 -33l-14 -19q-12 -16 -35 -41l-98 -102 q-154 -154 -166 -170q-18 -23 -47 -26t-51.5 14.5t-25.5 46z" />
<glyph unicode="&#x400;" horiz-adv-x="1665" d="M-88 1169.5q0 28.5 20.5 49t49.5 20.5q55 0 112 2l-4 64q-2 29 16.5 51t47 24t51 -16t24.5 -47l4 -66l86 9q66 6 166 18q117 12 181 18q242 23 628 23q29 0 49.5 -20.5t20.5 -49t-20.5 -49t-49.5 -20.5q-381 0 -616 -23q-63 -6 -179 -19.5t-165 -17.5t-90 -8 q16 -254 20 -508l307 68q346 76 580 108q29 4 52.5 -13t27.5 -46t-13.5 -52.5t-46.5 -27.5q-233 -33 -569 -104l-334 -74q0 -125 -2 -250q641 111 1108 111q29 0 49.5 -20.5t20.5 -49.5t-20.5 -49.5t-49.5 -20.5q-461 0 -1110 -114l-4 -154q0 -29 -21.5 -49.5t-50 -19.5 t-49 22.5t-18.5 50.5l4 125l-72 -12q-29 -6 -52.5 10t-28.5 45t11.5 52.5t45.5 27.5l98 18q2 125 2 248l-102 -18q-29 -6 -52.5 10t-28.5 45t11 52.5t45 27.5l125 24q-6 262 -23 527q-63 -2 -122 -2q-29 0 -49.5 20.5t-20.5 49zM362 1831.5q5 28.5 29.5 43.5t53 10t42.5 -30 q74 -109 121 -167t127 -123q23 -18 25 -47t-16.5 -51.5t-47 -24.5t-51.5 16q-88 74 -141 139q-53 63 -131 181q-16 25 -11 53.5z" />
<glyph unicode="&#x401;" horiz-adv-x="1701" d="M-102.5 1190q-6.5 29 9 52.5t44.5 29.5l135 26q-16 94 -23 168q-2 29 16.5 51.5t47.5 24.5t51.5 -16.5t24.5 -46.5q6 -70 18 -154q559 102 1041 131q29 2 50 -17.5t23 -48t-17.5 -50t-47.5 -23.5q-473 -29 -1022 -129q29 -152 39 -225q16 -125 26 -269l146 31 q592 125 950 139q29 2 49.5 -18.5t22.5 -49t-18.5 -49t-49.5 -22.5q-332 -14 -926 -135q-35 -6 -86 -21q-57 -12 -79 -16q6 -96 10 -227q23 4 143 30l156 35q37 8 140 29.5t158.5 30t143.5 22.5t166 22.5t160 14.5q29 2 50 -17.5t23.5 -48t-17 -50t-48.5 -23.5 q-100 -8 -193 -19q-100 -12 -172.5 -23.5t-185.5 -33.5l-164 -33l-184 -41q-129 -29 -172 -39q4 -168 8 -252q2 -29 -18.5 -49t-49 -22t-49 18.5t-22.5 48.5q-4 82 -8 228l-127 -25q-27 -6 -51.5 10.5t-29.5 44t11 52t45 28.5l148 31q-4 135 -9 231q-102 -16 -190 -16 q-29 0 -49.5 20.5t-20.5 49t20.5 49t49.5 20.5q84 0 182 17q-10 150 -29 276q-8 74 -36 219l-131 -24q-29 -6 -52.5 9t-30 44zM403 1567l13 92q4 29 27.5 47t51 14t46 -27.5t14.5 -50.5l-12 -92q-4 -29 -27.5 -47t-51.5 -14t-46.5 27.5t-14.5 50.5zM718 1583q-3 29 13 51 l57 72q18 23 47 26t51.5 -14.5t25.5 -46t-13 -51.5l-57 -72q-18 -23 -47 -25.5t-51.5 14.5t-25.5 46z" />
<glyph unicode="&#x402;" horiz-adv-x="1693" d="M-28 1282q-5 29 11.5 52.5t45.5 27.5q166 31 366 47q20 35 62 35q35 0 55 -29q133 8 352 12q29 0 50.5 -19t21.5 -48t-19.5 -50.5t-48.5 -21.5q-213 -4 -342 -10q-2 -307 6 -447q2 -51 9 -110q186 68 381 76q330 14 481 -156q45 -51 62.5 -128t-1.5 -142 q-55 -190 -352 -428q-180 -143 -444 -301q-25 -14 -52.5 -8t-42 31.5t-8.5 53t33 41.5q258 156 428 291q260 209 303 357q10 33 0 74.5t-33 68.5q-104 121 -368 106q-193 -8 -377 -82l12 -149q20 -250 21 -412q0 -29 -20.5 -49t-49.5 -20t-49.5 20.5t-20.5 48.5 q0 156 -20 402l-14 172q-10 25 -4 51q-8 96 -13 184q-8 147 -6 445q-182 -14 -334 -41q-29 -6 -52.5 10t-28.5 45z" />
<glyph unicode="&#x403;" horiz-adv-x="1204" d="M51 1262q-2 29 16.5 51t47.5 24l20 2q20 27 55 27q28 0 48 -18q535 49 671 57q29 2 50.5 -17.5t23.5 -48t-17.5 -50t-47.5 -23.5q-143 -8 -658 -56q2 -274 33 -1187q0 -29 -19.5 -50.5t-48 -21.5t-50 19.5t-21.5 47.5q-31 907 -33 1180q-27 0 -47.5 18.5t-22.5 45.5z M421 1505q-5 28 11 51q27 41 60 82l77 97l62 77q18 23 47 26t51.5 -14.5t25.5 -46t-14 -51.5l-61 -75l-74 -95q-33 -39 -59 -77q-16 -25 -45 -30t-52.5 11.5t-28.5 44.5z" />
<glyph unicode="&#x404;" horiz-adv-x="1579" d="M-10 659q-2 29 16 50q18 178 101 341.5t206 276.5q211 193 447 170q266 -25 457 -323q14 -25 8 -52.5t-31 -43t-52.5 -9.5t-43.5 31q-152 242 -350 260q-174 16 -340 -135q-98 -90 -166 -218t-90 -268q174 14 620 68q29 2 51.5 -15.5t25.5 -46t-14.5 -51t-46.5 -26.5 q-461 -53 -645 -68q2 -117 45 -217q61 -156 183 -219q182 -96 436 8q178 70 440 260q23 16 51.5 11t46 -27.5t12.5 -51t-28 -47.5q-270 -195 -469 -276q-315 -125 -555 0q-164 86 -248 289q-55 137 -55 293q-10 16 -12 36z" />
<glyph unicode="&#x405;" horiz-adv-x="1523" d="M-137 -99.5q10 27.5 37 40.5l700 321l150 64q104 45 172 75q152 70 211 129q16 14 23 26.5t7 16.5v5q-6 23 -57 51q-57 35 -166 71q-63 23 -139 43l-174 48q-98 25 -142 36q-127 33 -194 62q-102 41 -133 90q-47 78 -15 174q25 70 90 143q53 61 122 110.5t120 68.5 q158 57 287 20q131 -39 223 -130t145 -226q12 -27 1 -53.5t-37.5 -38t-53 -0.5t-36.5 38q-70 168 -196 241t-288 17q-31 -12 -86 -51q-53 -39 -96 -88q-47 -53 -62 -96q-12 -35 0 -55q6 -12 66 -35q61 -25 180 -57l144 -37l178 -47q78 -23 141 -43q123 -41 193 -84 q100 -59 120 -138q25 -94 -69 -182q-76 -76 -250 -156l-172 -73l-150 -66l-700 -321q-25 -12 -52.5 -2t-39.5 35.5t-2 53z" />
<glyph unicode="&#x406;" horiz-adv-x="526" d="M98 1053q6 174 29 344q4 29 27.5 46t52.5 13t46 -27.5t13 -52.5q-23 -162 -29 -329.5t6.5 -373.5t24 -323t37.5 -362q2 -29 -15.5 -51.5t-46 -25.5t-51 14.5t-26.5 45.5q-27 250 -37 365t-23.5 329t-7.5 388z" />
<glyph unicode="&#x407;" horiz-adv-x="702" d="M35 1602q0 2 4 53q2 29 10 47q6 14 25 39q20 25 35 47q16 23 44.5 28t52 -11.5t29 -45t-11.5 -53.5l-41 -53l-4 -6v-2q-4 -51 -4 -56q-2 -29 -24.5 -47t-51 -16t-47 24.5t-16.5 51.5zM190 1409q4 29 28 45t52.5 11t45 -28.5t10.5 -52.5q-100 -555 39 -1306 q6 -29 -10.5 -52.5t-45 -28.5t-52.5 11.5t-28 44.5q-145 774 -39 1356zM330 1593l12 105q4 29 26.5 46t51.5 14t46 -25.5t15 -51.5l-12 -104q-4 -29 -26.5 -46.5t-51.5 -14t-46 25.5t-15 51z" />
<glyph unicode="&#x408;" horiz-adv-x="1071" d="M16 477v33q0 29 19.5 50.5t48.5 21.5t50.5 -19.5t21.5 -48.5v-35q0 -20 1 -25t2 -18.5t5 -21.5l10 -25q25 -63 93.5 -167.5t144.5 -182.5q88 -86 153 -102q55 -12 97 45q37 51 47 239q8 164 -9 432q-8 145 -24 295q-14 156 -30.5 305.5t-20.5 182.5q-2 29 16 50t47 24 t50.5 -15t25.5 -47q2 -33 19.5 -182.5t31.5 -307t25 -296.5q16 -272 8 -449q-12 -227 -72 -313q-96 -133 -244 -99q-104 25 -219 140q-88 88 -163.5 204.5t-106.5 190.5q-8 23 -13 41t-8.5 37.5t-4.5 29t-1 33.5z" />
<glyph unicode="&#x409;" horiz-adv-x="2045" d="M18 186.5q0 28.5 21 49.5q51 51 100 112l107 148l94 131l176 233l221 287l183 229q6 74 14 146q4 29 27.5 46t52 13t46 -27.5t13.5 -52.5l-2 -16q12 -4 23 -12q23 -20 24.5 -49t-16.5 -50l-47 -53q-12 -223 14 -543q174 0 320 -14q164 -14 262 -43q63 -18 102 -43 q57 -37 68 -90q27 -135 -105 -254q-92 -84 -268 -162q-135 -59 -315 -115l4 -84q2 -29 -18.5 -49t-49.5 -22t-49.5 18.5t-22.5 48.5q0 23 -2 49l-71 -20q-27 -8 -52.5 6t-34 42t6 53.5t43.5 33.5l98 27q-6 92 -23.5 269t-19.5 210q-29 0 -48.5 19.5t-21.5 48.5q0 25 16.5 45 t41.5 24q-16 211 -17 371l-462 -606l-91 -123q-61 -88 -115.5 -158t-107.5 -123q-20 -20 -49 -20t-49.5 20.5t-20.5 49zM1081 639q41 -424 41 -438q156 49 271 98q156 70 231 137q70 64 62 119q-2 2 -9 6q-20 12 -65 25q-84 27 -236 39q-143 12 -295 14z" />
<glyph unicode="&#x40a;" horiz-adv-x="1949" d="M98 1651q-6 29 8.5 53.5t43 30.5t53 -8.5t30.5 -43.5q14 -55 25.5 -111t21 -123t14.5 -109t12 -123.5t9 -108.5l9 -121q8 -96 10 -110l4 -54q293 100 532 133q-2 311 25 580q4 29 25.5 47.5t50 15t47 -24.5t16.5 -50q-25 -258 -24 -553q227 12 405 -43q162 -51 242 -146 q80 -96 72 -221q-6 -109 -72 -216t-170 -195q-84 -70 -217 -158q-123 -80 -199 -121q-2 -25 -20.5 -43t-44 -20.5t-45.5 12.5l-127 -56q-27 -12 -53.5 -1.5t-39 37t-2 53t36.5 38.5l150 66q-45 541 -54 858q-233 -33 -524 -135q37 -479 43 -743q0 -29 -19.5 -50.5t-48 -21.5 t-50 19.5t-21.5 47.5q-4 248 -57 932q0 14 -7.5 112.5t-10.5 122t-10 105.5t-11 119l-15 104q-8 66 -18 117zM1012 831q6 -309 47 -806q51 29 133 81q127 84 205 150q86 74 139 158q51 82 55 155q8 156 -217 228q-155 46 -362 34z" />
<glyph unicode="&#x40b;" horiz-adv-x="1701" d="M-81 1343.5q1 28.5 21.5 48t49.5 19.5q156 -6 448 16l-16 107q-4 29 13.5 52.5t46 27.5t52 -13.5t27.5 -46.5l17 -118l10 2q381 23 618 -25q27 -4 43.5 -28.5t11 -52t-30 -44t-52.5 -10.5q-217 43 -582 20h-2q25 -219 39 -428q123 33 260 45q80 6 164 7q119 0 178 -21 q168 -55 223 -213q43 -125 8 -303q-49 -250 -215 -524q-14 -27 -41.5 -33t-53.5 8t-32 42t9 52q152 262 196 482q29 141 -2 229q-33 94 -137 129q-37 12 -135 12q-78 0 -150 -6q-139 -12 -266 -47q16 -391 -14 -788q-2 -29 -24.5 -47.5t-51.5 -16.5t-47.5 24.5t-16.5 51.5 q27 387 17 729q-39 -16 -78 -37q-27 -12 -53.5 -3t-40 36t-4 53.5t35.5 40.5q66 31 134 55q-12 225 -41 461q-313 -23 -469 -16q-29 2 -48.5 22.5t-18.5 49z" />
<glyph unicode="&#x40c;" horiz-adv-x="1738" d="M10 -49q55 498 86 1198q2 47 2 129q0 88 3 161.5t12 139.5q4 29 27.5 46t52 13t46 -27t13.5 -52q-8 -61 -11 -127t-3 -150t-2 -137q-27 -672 -86 -1211q-4 -29 -27 -46t-51.5 -14t-46 25.5t-15.5 51.5zM279 758q6 33 34 73q18 29 54 68q57 61 153 152q86 80 268 235 q164 139 371 297q25 18 52.5 14t46 -27.5t14.5 -51t-27 -45.5q-213 -162 -366 -293l-265 -230q-92 -86 -143 -145q-29 -31 -45 -53l-8 -15q-10 -68 98 -121q39 -20 123 -49q96 -33 117 -43q258 -111 426 -254q166 -139 323 -376q16 -25 11 -52.5t-29.5 -44t-52 -11.5 t-43.5 30q-147 219 -299 349t-390 232q-16 6 -108 37q-88 31 -141 58q-197 100 -174 266zM455.5 1557q4.5 29 29.5 45q131 90 322 270q20 18 49 18t48.5 -21.5t19.5 -50t-23 -49.5q-197 -186 -338 -282q-23 -16 -51.5 -11t-44.5 28.5t-11.5 52.5z" />
<glyph unicode="&#x40d;" horiz-adv-x="1419" d="M144 176q-5 29 14 51l24 35q12 285 6 463q0 29 -20.5 282t-7.5 386q2 29 24.5 47t51 16t47 -24.5t16.5 -51.5q-12 -127 7.5 -358t21.5 -293q4 -123 0 -276q211 268 690 821l8 8q0 66 4 127q2 29 23.5 48.5t50.5 17.5t48 -23.5t17 -50.5q-14 -264 2 -676q27 -647 27 -686 q0 -29 -19.5 -49.5t-49 -20.5t-50 19.5t-20.5 50.5q-2 63 -27 680q-8 201 -8 348q-465 -537 -705 -852q-6 -199 -8 -246q0 -29 -21.5 -48t-50 -19t-48 21.5t-19.5 49.5q2 59 6 154q-4 2 -6 4q-23 16 -28 45zM359.5 1794q2.5 29 24.5 47.5t50.5 15t46.5 -25.5q61 -74 96 -112 t89.5 -80t113.5 -68q27 -10 38 -37t0 -53.5t-37.5 -37.5t-53.5 1q-76 31 -145.5 85t-106.5 95t-100 121q-18 20 -15.5 49z" />
<glyph unicode="&#x40e;" horiz-adv-x="1447" d="M39 1395q-10 29 2 54.5t40 35.5t53.5 -2.5t35.5 -38.5q39 -113 152 -322q121 -225 165 -338q23 -57 45 -120l50 -148l39 -123q227 420 389 832l12 51l27 115l41 180q6 29 30.5 44t52 9t43 -30.5t9.5 -51.5l-41 -180l-27 -119q-14 -61 -16 -67q-297 -750 -758 -1450 q-14 -23 -43 -29t-52.5 9t-29.5 44t10 53q139 213 269 437q-14 12 -21 30q-20 55 -72.5 217t-87.5 248q-41 104 -155 320q-121 227 -162 340zM307.5 1648.5q-2.5 28.5 17 50t48 23.5t51.5 -18q113 -100 223 -80q104 18 211 145q18 23 47 25t51.5 -16.5t24.5 -47t-16 -51.5 q-137 -166 -293 -192q-176 -33 -342 115q-20 18 -22.5 46.5z" />
<glyph unicode="&#x40f;" horiz-adv-x="1355" d="M61 190q-2 80 2 158q6 88 27 240q25 166 31 229q27 283 -6 584q-2 29 15 51.5t46 25.5t51.5 -14.5t26.5 -46.5q33 -317 6 -612q-6 -68 -31 -238q-23 -143 -26 -227q-4 -76 -2 -143q2 -49 8 -80q0 -8 2 -15q35 -12 115 -4q86 8 221 43q18 16 43 19q10 0 20 -2 q47 12 148.5 40.5t150.5 41.5q-10 193 -17 569.5t-15 562.5q-2 29 17 49.5t49 22.5t50.5 -17.5t22.5 -50.5q8 -184 15 -552.5t16 -553.5q6 0 10 2q29 2 51 -15t25.5 -46t-14 -51.5t-46.5 -26.5q-37 -4 -92 -17.5t-160.5 -44t-152.5 -42.5q0 -6 41 -410q2 -29 -16.5 -50.5 t-47.5 -24.5t-50.5 15.5t-25.5 47.5q0 10 -16 159.5t-23 227.5q-113 -27 -190 -35q-152 -14 -219 37q-37 27 -49 96q-8 39 -11 98z" />
<glyph unicode="&#x410;" horiz-adv-x="1525" d="M-45 344q-2 29 16.5 51.5t46.5 24.5q45 4 93 10l159 588q55 193 144 459q2 6 3 15t3 25.5t4 34.5q8 37 22 60q20 29 54.5 35t62.5 -15q12 -8 21 -20l4 -8q2 -4 4 -10.5t6 -16.5q6 -16 16 -53l45 -152l70 -246q80 -287 141 -579q129 6 365 6q29 0 49.5 -20.5t20.5 -49 t-20.5 -49t-49.5 -20.5q-217 0 -336 -6q41 -213 76 -435q4 -29 -13.5 -52t-46 -27.5t-52 13t-27.5 46.5q-33 227 -78 446q-57 -6 -127 -14q-86 -10 -293 -55q-70 -13 -115 -23l-69 -266q-8 -27 -33 -42t-52.5 -7t-43 32.5t-7.5 53.5l56 207l-43 -4q-29 -2 -51.5 16t-24.5 47 zM262 459l47 8q215 45 301 57q57 8 119 13q-59 279 -135 553l-70 243l-4 21q-63 -195 -114 -373z" />
<glyph unicode="&#x411;" horiz-adv-x="1796" d="M-11 1345.5q-3 28.5 14 51t46 26.5l68 9q-2 18 -2 38q-2 29 18.5 50.5t49 22.5t50 -19.5t21.5 -48.5q0 -12 2 -25q47 6 201.5 28.5t226.5 32t198 23.5t230.5 19.5t208.5 5.5q29 0 49.5 -20.5t20.5 -49.5t-20.5 -49.5t-49.5 -20.5q-127 0 -281.5 -12t-232.5 -21.5 t-294 -40t-251 -36.5l35 -467q297 72 520 107.5t449 27.5q109 -4 157 -12q51 -10 82 -27q57 -31 68 -86q18 -123 -82 -217q-37 -33 -152 -100q-125 -70 -247 -123l-254 -109l-129 -61q-51 -23 -105 -52l-74 -38l-98 -58l-119 -67q-6 -23 -26.5 -38.5t-44.5 -13.5 q-29 2 -48.5 23.5t-17.5 50.5q16 260 -6 619l-16 -4q-29 -6 -53.5 8t-31 42.5t8 53.5t43.5 31l39 10q-35 465 -37 483l-57 -8q-29 -2 -51.5 15.5t-25.5 46zM307 700q18 -293 15 -507l151 86q39 23 117 61l190 90q37 18 256 111q115 47 234 116q102 57 127 80q41 37 39 80 q-14 6 -37 10q-41 6 -137 11q-152 6 -328 -14.5t-301 -47t-326 -76.5z" />
<glyph unicode="&#x412;" horiz-adv-x="1822" d="M161 1242.5q-1 64.5 2 119.5t9 111q4 29 26.5 46t51.5 14t46 -25.5t15 -51.5q-6 -51 -9 -102t-1 -112.5t2 -101.5t7 -115t9.5 -102.5t11.5 -116.5t11 -108q16 -158 22.5 -267t-2 -255.5t-36.5 -273.5q-6 -27 -31 -42.5t-52.5 -9t-43 31t-9.5 52.5q27 115 33 249t2 241 q-6 86 -22 260l-10 107q-10 88 -12.5 118.5t-9.5 105.5t-8 119t-2 108.5zM317 1437.5q2 28.5 23.5 48t50.5 17.5q176 -8 184 -8q61 4 336 0q209 -2 328 -25q129 -25 182 -77q70 -68 27 -162q-27 -59 -105 -125q-102 -88 -346 -229q-309 -178 -319 -187q-78 -53 -119 -90 l14 2q88 6 250 25l262 30q154 18 160 19q158 8 242 -4q45 -8 72 -23q25 -14 36 -37q16 -37 -2 -73q-12 -25 -31.5 -47.5t-48.5 -42.5l-43 -31q-16 -10 -51 -27.5t-37 -19.5q-37 -20 -83 -39t-103 -39l-78 -29l-129 -49l-153 -59l-86 -37l-58 -25q-20 -8 -49 -23.5t-40 -20.5 t-56 -30l-68 -36q-25 -14 -52.5 -6t-41.5 33.5t-6 53t35 41.5l61 33q37 20 49 27l39 20q27 14 41 20.5t43 20t60 25.5l75 31q53 23 156 61l131 51q31 12 84 30.5t91 34t73 34.5q10 6 26 14l33 16q12 8 23 15q-61 2 -146 -2q-23 -2 -151 -17l-262 -33q-166 -18 -256 -24 q-59 -4 -92 -4q-23 0 -37 2q-33 6 -54 24q-45 49 -18 117q16 35 55 76q53 55 162 127q33 23 328 192q233 135 325 215q55 45 68 76l2 4q-23 25 -111 41q-111 20 -301 23q-262 2 -329 0q-14 0 -199 8q-29 2 -48.5 23.5t-17.5 50z" />
<glyph unicode="&#x413;" horiz-adv-x="1912" d="M64.5 1372q-5.5 29 10 53.5t44.5 28.5l90 19l-4 43q-2 31 16.5 52t48 23t51 -16.5t23.5 -46.5l2 -31q719 123 1284 55q29 -4 47.5 -26.5t14.5 -51t-27 -47t-51 -14.5q-549 68 -1256 -55q10 -102 46 -395t49 -453q8 -109 6 -270q-2 -31 -3 -84.5t-2 -97.5t-1 -83 q0 -29 -20.5 -49t-49.5 -20t-49.5 20.5t-20.5 48.5q0 39 1 83t2 98.5t1 85.5q4 154 -4 256q-14 170 -47 450q-35 291 -45 385l-74 -14q-29 -6 -53 9t-29.5 44z" />
<glyph unicode="&#x414;" horiz-adv-x="1972" d="M-184 -28.5q-6 28.5 9 52t44 29.5q80 18 174 33q47 74 85 150.5t93 209.5l74 170q160 358 295 598q49 86 123 203q51 80 86 127q20 31 37 49q27 29 49 39q86 35 141 -20q37 -37 47 -113q4 -43 4 -125v-135q2 -86 8.5 -212t8.5 -190.5t2 -168.5q0 -94 -6 -217 q-10 -184 -17 -250q-2 -35 -6 -51q356 -6 625 -48q29 -6 46 -28.5t12 -51t-27.5 -46t-51.5 -13.5q-258 41 -602 47l2 -41q2 -31 -17.5 -51t-49 -22t-50 17t-22.5 48l-2 51q-436 -2 -805 -55l-2 -2q-16 -25 -45 -30t-51 12q-5 2 -7 4q-66 -10 -122 -23q-29 -6 -52.5 9.5 t-29.5 44zM219 111q332 39 705 41v4q2 14 6 26q2 10 4 33q6 61 16 244q6 121 6 215q0 102 -2 164.5t-8 185.5t-8 211q-2 33 0 139q0 74 -4 107q0 6 -2 10q-6 -10 -21 -29q-33 -45 -80 -121q-74 -113 -118 -196q-133 -233 -291 -586l-60 -139l-75 -170q-33 -73 -68 -139z" />
<glyph unicode="&#x415;" horiz-adv-x="2107" d="M-216 1107q9 28 36 40q139 72 280 127l-2 35q-2 184 -12 288q-2 29 16.5 51.5t47 24.5t51 -16.5t24.5 -46.5q8 -113 13 -283q602 217 1226 197q29 0 49.5 -21.5t19.5 -50.5t-22.5 -49.5t-50.5 -18.5q-621 20 -1218 -204q2 -90 6 -160q6 -94 14 -205q178 45 323.5 74 t320.5 50.5t335 14t293 -46.5q27 -8 41 -33.5t6 -53t-33.5 -42t-54.5 -6.5q-121 37 -270.5 43t-319.5 -16.5t-310 -51t-321 -73.5l35 -453q236 47 383.5 70.5t359.5 47t403.5 15.5t377.5 -45q27 -4 43 -28.5t11 -52t-29.5 -44t-53.5 -10.5q-143 27 -301 35t-287 3 t-306 -28.5t-287 -44.5l-304 -57l5 -74q2 -29 -17.5 -50t-48.5 -23.5t-50.5 17t-23.5 48.5l-4 55l-112 -22q-29 -4 -52.5 12t-28.5 45t11 52.5t45 29.5l127 23l-33 444l-166 -41q-27 -6 -52.5 8.5t-31.5 42t8.5 53t43.5 31.5l188 47q-10 127 -16 232q-5 51 -7 112 q-111 -45 -221 -100q-25 -14 -52.5 -5t-40.5 34.5t-4 53.5z" />
<glyph unicode="&#x416;" horiz-adv-x="1796" d="M-377 421q-10 28 2.5 53.5t38.5 35.5q240 88 469 149q55 342 201 945q6 29 30.5 43t53 8t43 -31t8.5 -53q-133 -557 -188 -873q195 47 383 76l53 328q4 25 31 237q18 150 40 242q6 29 31 44t52.5 9t43 -30.5t9.5 -51.5q-18 -88 -37 -231q-25 -195 -31 -240l-47 -288 q160 20 317 24q43 420 119 811q4 29 28.5 45.5t52.5 11t44 -30t10 -50.5q-72 -379 -114 -783q125 -2 245 -10q29 -2 47.5 -23.5t16.5 -51t-23.5 -48t-52.5 -16.5q-123 8 -246 8q-41 -451 -45 -952q0 -29 -20.5 -49.5t-49 -20.5t-49 20.5t-20.5 49.5q4 500 43 950 q-160 -6 -326 -29q-72 -465 -71 -782q0 -29 -20.5 -49.5t-49.5 -20.5t-49.5 20.5t-20.5 49.5q0 315 66 762q-188 -31 -383 -82q-45 -293 -55 -549q-2 -29 -22.5 -49.5t-49.5 -18.5t-49.5 22.5t-18.5 49.5q10 240 48 506q-176 -49 -398 -129q-29 -10 -54.5 2t-35.5 40z" />
<glyph unicode="&#x417;" horiz-adv-x="1597" d="M-2 -70.5q8 27.5 33 41.5l583 359q489 307 519 332q49 41 79 86q31 43 23 59q-27 31 -115 37t-223 -15q-174 -29 -410 -102q-33 -10 -93 -32.5t-81 -28.5l-20 -11q-27 -12 -33 -14q-27 -10 -43 -12q-14 -2 -29 0q-35 10 -49 43q-10 27 0 53q4 8 11 18q25 39 79 66 q55 31 58 31l420 284q145 100 243 176q53 41 80 66q12 10 21 20h2q14 33 16 50q-20 6 -125 0q-82 -6 -174 -26.5t-149.5 -36t-174 -63.5t-147.5 -63l-168 -78q-27 -12 -53.5 -1.5t-38.5 37t-2 53t37 38.5q16 8 49 23l196 88q72 31 185.5 74t219 65.5t212.5 28.5q2 0 22.5 2 t35 3t37 1t43 -3t38.5 -9q72 -25 90 -92q16 -59 -22 -148q-12 -27 -58 -67q-33 -29 -88 -72q-92 -72 -248 -180l-133 -90q121 31 221 47q150 25 259 16q143 -10 208 -86q80 -92 -14 -229q-41 -59 -104 -113q-37 -31 -535 -344l-588 -358q-25 -16 -52.5 -8t-42.5 32.5t-7 52z " />
<glyph unicode="&#x418;" horiz-adv-x="1636" d="M86 1376q0 23 8 82q14 102 21 158q4 29 26.5 47t51 14t47 -26.5t14.5 -51.5q-8 -57 -21 -159q-8 -49 -8 -68q0 -4 17 -229q39 -520 47 -602q6 -47 4 -131q-2 -106 -2 -121q4 -115 18 -164q4 2 10 8q23 20 84 94q25 33 50 95q43 113 49 127q272 561 497 854q18 23 52 86 q47 90 61 112q43 70 84 98q78 51 152 -6q106 -84 43 -272q-10 -33 -30 -82t-30 -80t-12 -59q-41 -475 4 -1264q2 -29 -17.5 -50.5t-48 -23.5t-50 17.5t-23.5 48.5q-45 799 -4 1284q4 37 17 82t34.5 101.5t25.5 68.5q31 88 15 117q-23 -23 -41 -51l-57 -107q-41 -76 -64 -106 q-217 -281 -481 -830q-4 -8 -47 -115q-33 -84 -72 -131q-68 -84 -96 -112q-41 -37 -78 -47q-72 -20 -115 43q-66 96 -69 262q0 16 2 125q0 70 -4 112q-8 86 -48 611q-16 231 -16 241zM313 111q10 -20 23 -9q-5 -3 -23 9zM1262 1483q0 2 10 0q-4 6 -10 0z" />
<glyph unicode="&#x419;" horiz-adv-x="1359" d="M109 1391q2 29 23.5 48t50 17t48 -23.5t17.5 -50.5q-8 -152 16 -456l21 -246q0 -10 2 -21q2 -18 2 -32v-2v-2v-5v-2v-2v-4q0 -4 -2 -14l12 -213q6 -82 14 -176q6 -74 13 -111q2 -8 2 -14q16 25 51 115q57 139 133 403q84 293 131 420q57 154 117 268q6 10 16 43l23 66 q20 45 45 67q51 49 114 19q82 -41 103 -162q4 -25 8 -80l6 -63q25 -121 39 -250t19.5 -279.5t6.5 -245t-1 -276.5t-2 -248q0 -29 -20.5 -49t-49.5 -20t-49.5 20t-20.5 49q0 68 1 250t0 274.5t-5 238.5t-18 269t-35 242q-6 23 -10 78q-4 49 -8 67q0 10 -2 21l-11 -31 q-14 -45 -26 -65q-53 -104 -109 -252q-35 -94 -127 -408q-80 -272 -137 -420q-47 -113 -76 -151q-39 -53 -88 -64q-68 -14 -123 47q-16 18 -24 52q-6 18 -11 47q-8 47 -14 121q-8 84 -14 180q-14 244 -17 297v20l-18 221q-25 315 -16 478zM332 72q0 -4 2 -11v-2l2 2 q-2 9 -4 11zM400 1626q3 29 25.5 46.5t51.5 15.5q109 -12 164 4q35 8 160 73q27 14 54.5 5t40.5 -34.5t4 -53t-34 -40.5q-139 -74 -188 -86q-80 -23 -217 -8q-29 4 -46.5 26.5t-14.5 51.5z" />
<glyph unicode="&#x41a;" horiz-adv-x="1959" d="M115 1224q-2 85 5 203.5t27 214.5q4 29 29 44.5t53.5 10.5t44 -29.5t9.5 -53.5q-18 -90 -24.5 -199.5t-4.5 -189.5t7 -213t7 -203q0 -49 2 -203.5t4 -225.5t11 -187q8 -109 22 -213q4 -29 -13.5 -52.5t-46 -27.5t-52 13t-27.5 46q-14 100 -22.5 222t-10.5 195t-4 229.5 t-2 199.5q-2 61 -7 197.5t-7 221.5zM281 664q-23 51 6 114q16 39 51 82q23 31 53 64l15 14l10 10l6 6l713 762q18 20 47.5 20.5t50 -19t20.5 -49.5t-20 -50l-709 -758q0 -2 -5 -6t-12 -11t-13 -16q-27 -29 -48 -53q-20 -27 -30 -45l47 -20q53 -18 192 -62q332 -100 334 -102 q104 -43 198.5 -100.5t190 -138.5t152.5 -134l160 -158q20 -18 28 -28q20 -20 20.5 -49t-20 -49.5t-49.5 -20.5t-49 20l-133 131q-35 35 -120 113t-139 117t-133 87t-159 83l-59 16l-123 37q-82 25 -140 43q-127 39 -198 64l-74 30q-16 8 -29 17q-23 16 -32 39z" />
<glyph unicode="&#x41b;" horiz-adv-x="1658" d="M-86 -9q0 30 18 50q68 68 134.5 163t100.5 151.5t109 197.5l97 178l256 455l112 213q37 70 50 90l22 33q8 10 16 16q27 23 60 18q39 -6 69 -43q18 -20 35 -55q25 -49 51 -131q12 -39 24.5 -84t21.5 -76l6 -28q129 -442 338 -1045q10 -27 -2.5 -52.5t-40 -35.5t-53 2 t-35.5 41q-211 604 -342 1049q0 2 -7.5 31.5t-18.5 72.5t-24 82q-14 49 -28 82l-19 -33l-112 -213l-256 -458l-95 -175q-80 -143 -115.5 -203.5t-107.5 -163t-143 -177.5q-20 -20 -50 -20.5t-50.5 19t-20.5 49.5z" />
<glyph unicode="&#x41c;" horiz-adv-x="1822" d="M-80 90q193 786 346 1196q0 2 6 21l15 39l20 51l25 61q12 31 26 58q49 94 103 133q41 31 88 30q51 -2 94 -41q23 -23 39 -67q12 -31 25 -80q2 -4 45 -195q29 -121 51 -178q12 -35 22 -51l6 -6q35 -8 78 43q43 53 105 190q78 180 100 219q35 55 70 80q61 43 125 15 q61 -27 98 -117q25 -61 43 -154q10 -63 20 -151q2 -18 4.5 -40t3.5 -37t3 -26q10 -86 37.5 -270t42 -295.5t28 -271.5t13.5 -293q0 -29 -20.5 -49.5t-49.5 -20.5t-49.5 20.5t-20.5 49.5q0 129 -13 283.5t-27.5 263t-41 292t-39.5 275.5q0 8 -2 24.5t-4 40t-4 39.5 q-8 82 -18 142q-14 78 -35 125q-10 25 -21 37q-10 -12 -22 -33q-18 -33 -94 -203q-72 -160 -125 -225q-102 -125 -232 -86q-43 14 -73 61q-20 31 -39 80q-25 66 -56 195q-45 188 -45 192q-10 41 -20 66l-6 14v2l-2 -2q-27 -18 -60 -84q-16 -31 -31.5 -67.5t-25.5 -61.5 l-16 -53q-10 -29 -13 -33q-152 -401 -342 -1180q-6 -29 -30.5 -43t-53 -8t-43 30.5t-8.5 53.5z" />
<glyph unicode="&#x41d;" horiz-adv-x="1765" d="M70 459q-8 166 8 272q10 68 28 111q16 33 39 55l-14 125q-27 270 -29 444q0 29 20.5 49.5t49.5 20.5t49.5 -20.5t20.5 -49.5q2 -158 28 -430l11 -104q12 -2 26 -6q59 -10 72 -11q63 0 184 17q135 16 199 18q121 4 323 -4q12 401 -4 653q-2 29 17.5 50.5t48.5 23.5 t50.5 -17t23.5 -48q16 -254 4 -666q145 -4 248 -2q29 0 50 -19.5t21 -48t-19.5 -50t-47.5 -21.5q-102 -4 -256 2v-41q-18 -545 6 -832q2 -29 -16.5 -51t-47 -24t-51 16t-25.5 47q-25 297 -8 848l2 41q-199 8 -315 4q-57 -2 -186 -18.5t-201 -16.5q-29 0 -84 10 q10 -104 16 -188q12 -184 -18 -416q-2 -10 -1 -15t2 -20.5t1 -33.5q0 -35 -10 -58q-14 -35 -49 -45q-33 -12 -66 6q-23 14 -37 43q-8 16 -14 37q-10 37 -21 97q-23 121 -28 266z" />
<glyph unicode="&#x41e;" horiz-adv-x="1908" d="M21.5 852q29.5 149 104.5 285.5t197.5 238t266.5 146.5q119 39 227.5 44t203.5 -20.5t176 -70.5t163 -115q43 10 70 -25l88 -106q68 -80 92 -119q68 -106 78 -293q16 -260 -148 -500q-78 -115 -184.5 -189.5t-227 -104t-244.5 -29.5t-253 29q-303 63 -455 241 q-109 127 -147 283q-37 156 -7.5 305zM156.5 642q19.5 -163 126.5 -288q121 -141 376 -196q244 -51 445 4t321 233q135 203 123 414q-8 150 -57 227q-12 20 -31 43q-16 5 -28 19q-76 82 -141.5 140t-143.5 104.5t-155 67t-168 16t-193 -34.5q-152 -49 -269.5 -171 t-171 -268.5t-34 -309.5z" />
<glyph unicode="&#x41f;" horiz-adv-x="1495" d="M35 1460q4 49 45 74q18 8 47 14q18 2 45 4q41 2 111 2h73h64h39q27 2 88 7.5t88 7.5q137 10 231 6q328 -16 385 -217q20 -72 21.5 -165t-8 -158.5t-27.5 -164t-23 -137.5q-12 -86 -19 -146.5t-11 -101.5t-7 -93t-4.5 -79.5t-2.5 -108.5t-3 -136q0 -29 -21.5 -48.5 t-50 -19.5t-48 21.5t-19.5 50.5q2 55 3 136t2 109.5t4 83t7.5 96.5t11.5 104.5t19 152.5q8 53 24.5 147t26 151.5t9.5 132.5t-19 136q-29 102 -256 115q-86 4 -215 -6l-88 -9l-90 -6h-41h-66h-77q-57 0 -93 -2q4 -12 7 -22q16 -133 16 -158q6 -152 6 -168q4 -61 10.5 -249.5 t12.5 -276.5t28.5 -228.5t59.5 -249.5q10 -27 -3.5 -53t-40 -35.5t-53 3.5t-34.5 40q-41 117 -65.5 267.5t-31 244t-13.5 286t-9 243.5q0 18 -6 172q0 16 -17 145q0 2 -1 4t-4 10.5t-9 22.5q-8 27 -8 49z" />
<glyph unicode="&#x420;" horiz-adv-x="1853" d="M-121 291.5q-8 27.5 6.5 53.5t40.5 34l291 86q-4 53 -10 104q-6 66 -50 360t-53 455l-36 -47q-18 -23 -47 -24.5t-51.5 17t-24.5 46.5t16 51q4 4 24.5 34t43 56.5t45.5 45.5q12 10 28 20q0 20 2 41q2 29 24 48.5t50 17.5q47 -2 62 -48q184 51 458 5q166 -27 326 -82 q158 -55 260 -115q188 -109 275 -225q141 -190 20 -387q-31 -49 -121 -99q-61 -35 -162 -73q-57 -23 -247 -84l-687 -217q4 -106 5 -291q0 -29 -20.5 -49.5t-49.5 -20.5t-49.5 20.5t-20.5 49.5q0 158 -2 248l-258 -78q-29 -8 -54.5 6t-33.5 41.5zM240 1497q0 -133 17 -282.5 t47 -335t42 -293.5l8 -78l650 205q193 63 241 82q90 35 146 65q57 33 69 51q72 115 -14 232q-70 92 -232 188q-90 51 -237.5 102.5t-300.5 75.5q-276 47 -436 -12z" />
<glyph unicode="&#x421;" horiz-adv-x="1890" d="M-16 262q-39 127 20 313q39 127 115 254q90 156 237 310q143 154 318 266q424 274 788 162q25 -8 53.5 -21.5t57.5 -29.5l39 -19q27 -12 37 -39.5t-2.5 -53.5t-40 -36t-52.5 2q-23 10 -49 24.5t-44.5 22.5t-39.5 15q-307 94 -671 -144q-158 -102 -293 -244.5t-219 -283.5 q-66 -113 -101 -228q-45 -143 -18 -229q45 -150 280 -201q113 -23 217.5 -21.5t186.5 19.5q70 16 258 97l115 51q49 23 102 51.5t78 42.5l98 57l111 64q25 16 52.5 8t42.5 -32.5t7 -52.5t-33 -42q-33 -20 -108 -65l-101 -58q-27 -16 -82 -46t-107 -53.5t-122 -51.5 q-195 -86 -278 -105q-98 -23 -218 -24q-121 -2 -249 24q-313 70 -385 297z" />
<glyph unicode="&#x422;" horiz-adv-x="2066" d="M-17 1368q-3 29 14 51.5t46 26.5l793 88q20 2 112 12t124 13.5t117 9.5t128 5t118.5 -3t129 -12.5t118 -28t119.5 -41.5q27 -10 38 -37t0 -53.5t-37.5 -37.5t-53.5 1q-88 37 -182 55.5t-206 17.5t-191.5 -7.5t-213.5 -20.5l-20 -31q-14 -20 -18 -35q-2 -6 -9 -59 q-4 -49 -8 -127q-2 -25 -4 -52.5t-3 -49t-2 -39t-3 -27.5v-10q-20 -205 -19.5 -448.5t37.5 -436.5q6 -29 -9 -53.5t-44 -29.5t-53.5 10.5t-28.5 43.5q-31 145 -38 320.5t-3 287t19 314.5v10q2 12 3 29.5t2 39t3 48.5l4 53q4 78 10 129q6 68 10 88q2 2 2 7l-725 -82 q-29 -2 -51 15t-25 46z" />
<glyph unicode="&#x423;" horiz-adv-x="2027" d="M30 -610.5q-5 28.5 11 53.5q68 92 248 375q160 250 254 381l92 123q-66 92 -122 191t-131 255t-93 197l-56 104q-39 72 -59 114t-48 106.5t-48 123.5q-8 27 5 52.5t41 34.5t53.5 -4t35.5 -42q16 -53 41 -111.5t45 -97.5l57 -110q37 -70 56 -109q29 -53 94 -190.5 t114.5 -227.5t104.5 -172q150 184 379 443l178 198l229 254l172 203q18 23 47 25t51.5 -16.5t24.5 -47.5t-16 -51l-172 -203l-229 -254l-181 -201q-350 -393 -551 -669q-92 -129 -249 -373q-180 -281 -252 -383q-16 -23 -45 -28t-52.5 11.5t-28.5 45z" />
<glyph unicode="&#x424;" horiz-adv-x="1933" d="M-94 295q-117 248 88 555q78 117 184.5 217t208.5 162q152 90 336 135l22 203q4 29 27 46t51.5 14t46 -25.5t15.5 -51.5l-19 -161q197 23 373 -28.5t297 -189.5q39 -43 150 -233q20 -37 -5 -74q43 -102 29 -207q-23 -168 -180 -319q-129 -125 -318 -215 q-186 -90 -350 -121q-45 -6 -96 -12q-6 -205 -6 -408q0 -29 -20.5 -49t-49 -20t-49 20.5t-20.5 48.5q0 199 6 404q-145 0 -275 24q-346 70 -446 285zM33 352q70 -150 346 -205q119 -22 252 -22q18 522 76 1092q-131 -39 -246 -107q-92 -55 -186.5 -144t-163.5 -194 q-162 -242 -78 -420zM770 131q37 4 68 10q145 25 314 106t282 191q121 119 137 238q18 133 -103 266q-49 53 -87 89t-84 65.5t-74.5 45t-104.5 52.5l-123 61q-70 0 -145 -10q-60 -582 -80 -1114z" />
<glyph unicode="&#x425;" horiz-adv-x="1607" d="M78 1501q-10 29 3 54.5t41 34.5t53.5 -4t33.5 -40q160 -477 377 -815q334 571 684 895q20 20 49 18t49.5 -22t18 -49t-22.5 -49q-350 -324 -692 -922q117 -162 254 -303l49 -49l49 -53l43 -41q31 -31 51 -45l45 -37q27 -23 54 -39q25 -16 30.5 -45t-9.5 -52.5 t-43.5 -29.5t-51.5 8q-37 25 -70 49.5t-74 63.5l-53 49q-12 12 -65 67l-54 56q-125 127 -231 268l-277 -522q-12 -25 -39.5 -34t-53 4t-35 41t5.5 54l311 584q-252 373 -430 905z" />
<glyph unicode="&#x426;" horiz-adv-x="1767" d="M12 47q2 41 13 109q8 43 24 116l17 84q55 299 75 463q6 43 15.5 132t16.5 143.5t23.5 132.5t41.5 143q10 27 35.5 39t53 2t40 -35.5t2.5 -54.5q-23 -57 -37.5 -126t-20.5 -119t-15 -137t-15 -136q-23 -168 -80 -471q0 -10 -15.5 -84t-23.5 -117q-8 -57 -10 -88v-6 q49 -25 147 -4q45 10 111 33l96 34l285 82q-23 8 -34.5 28.5t-8.5 45.5l51 313q35 227 51 353q6 33 21.5 167t25.5 198.5t38 169t64 183.5q12 27 39 37.5t53.5 -2t37 -39t-2.5 -53.5q-33 -74 -57.5 -167t-33.5 -152.5t-24.5 -188.5t-21.5 -174l-55 -350q-35 -227 -47 -315 q-4 -18 -15 -33q250 66 504 112q33 8 60 -16q18 16 43.5 14t44.5 -18q23 -20 23.5 -49t-19.5 -49q-59 -63 -113.5 -130t-111.5 -151l-95 -137l-106 -160l-98 -149q-14 -25 -43 -30t-53.5 10t-30 44t11.5 53l96 150l109 168l102 141l117 156q-381 -78 -766 -197 q-10 -2 -25 -6l-35 -12l-32 -13q-76 -25 -125 -36q-182 -41 -281 39q-27 23 -35 61q-2 20 -2 49z" />
<glyph unicode="&#x427;" horiz-adv-x="1366" d="M47 1124q-4 317 47 553q6 29 29.5 44.5t52.5 9t44 -29.5t9 -52q-45 -223 -43 -525q2 -188 24.5 -286.5t68.5 -135.5q92 -76 428 17q29 8 53 -6.5t32.5 -43t-6 -53t-43.5 -32.5q-133 -37 -228 -50.5t-181 0t-146 60.5q-80 68 -110 197q-29 125 -31 333zM938 25 q-115 977 70 1644q8 29 33.5 43t53 6t42 -33.5t6.5 -52.5q-178 -641 -66 -1591q2 -29 -15.5 -51.5t-46 -25.5t-51 14.5t-26.5 46.5z" />
<glyph unicode="&#x428;" horiz-adv-x="1902" d="M28 87q-10 28 3 54q12 23 35.5 33t46.5 4q4 119 20 289l33 334q23 279 -2 770q-2 29 17.5 50t48 23.5t50 -17t23.5 -48.5q25 -502 2 -791l-33 -335q-18 -197 -20 -328q0 -8 -2 -14h2q88 -20 328 10q37 4 102.5 13t85.5 13q-14 287 23 891q20 348 83 557q10 27 35 41.5 t52.5 5t42 -34t6.5 -53.5q-59 -195 -80 -524q-35 -584 -23 -866q25 2 47 2q201 6 332 6q-10 86 -13 175t3 195.5t10 168t17.5 190.5t17.5 166l10 111q8 88 12.5 124.5t13.5 107.5t21.5 128t28.5 113q10 27 34.5 41t52.5 5t42 -33.5t6 -53.5q-16 -51 -27.5 -102.5t-20.5 -118 t-11 -101.5l-13 -121q-8 -88 -10 -112l-18 -174q-12 -135 -17.5 -192.5t-10.5 -164t-2 -190.5t15 -166q102 -4 193 -14q29 -4 46 -27t14 -51.5t-25.5 -46t-50.5 -15.5q-231 27 -646 13q-55 -2 -161 -17q-25 -4 -93.5 -13t-105.5 -15q-264 -35 -379 -7q-27 6 -57.5 20.5 t-61 32t-37.5 19.5q-25 12 -35 40z" />
<glyph unicode="&#x429;" horiz-adv-x="1816" d="M63 217q2 10 7 21q4 643 77 1146q4 29 28 46.5t52.5 13.5t46 -27.5t13.5 -52.5q-72 -504 -78 -1092q90 -4 194.5 3.5t178.5 19.5l200 29l193 30q4 55 25.5 303t31.5 351l29 290q20 184 39 332q4 29 26.5 47.5t51 14.5t47 -27t14.5 -51q-16 -119 -29.5 -241t-25.5 -263 l-23 -233l-22 -265l-23 -241q119 14 209 14q88 2 143 -6q39 -4 64 -17q47 -20 59 -63q12 -35 -12 -66q-6 -8 -14.5 -15t-22.5 -15t-61 -37l-174 -103q-244 -152 -699 -505q-23 -18 -51.5 -14.5t-46.5 26t-14 51.5t26 47q461 358 711 514l108 64h-14q-68 -2 -207 -15l-22 -2 q-23 -41 -68 -36q-27 2 -45 22q-47 -8 -182 -29.5t-207 -31t-183.5 -17.5t-203.5 -4q-6 -25 -25.5 -41t-44.5 -16q-29 0 -49 20.5t-20 48.5v35q-8 16 -7 37zM518 375q-66 748 125 1331q8 29 33.5 42t53.5 4t41 -34.5t3 -52.5q-180 -559 -117 -1278q2 -29 -16 -51.5 t-47 -24.5t-51.5 16.5t-24.5 47.5z" />
<glyph unicode="&#x42a;" horiz-adv-x="1650" d="M25.5 1513.5q-5.5 28.5 12 51t46.5 28.5q45 6 133 21l129 18q0 29 19.5 49.5t48.5 20.5q23 0 41 -12t26 -35h2q27 6 51.5 -10.5t29.5 -44t-11 -52t-45 -28.5l-16 -4q6 -125 22 -359l21 -295q389 70 655 -10q227 -72 240 -227q12 -145 -177 -281q-162 -115 -444 -278 q-33 -20 -72 -41l-90 -41l-76 -37q-23 -12 -46 -7t-38 23h-16q-29 2 -48.5 23.5t-16.5 50.5q18 281 0 655l-54 -10q-29 -6 -52.5 9.5t-29.5 44t9.5 52t44.5 29.5l73 17q-6 68 -22.5 299t-22.5 360q-33 -6 -116.5 -18.5t-131.5 -20.5q-29 -4 -51 13.5t-27.5 46zM543 721 q20 -363 6 -631q150 72 190 94q276 162 432 275q125 88 119 153q-4 63 -141 105q-94 31 -200.5 37t-199 -2.5t-206.5 -30.5z" />
<glyph unicode="&#x42b;" horiz-adv-x="1640" d="M20 1612q-2 29 16.5 51.5t47.5 24.5t51.5 -16.5t24.5 -47.5q12 -141 46 -406.5t42 -345.5q82 25 221 27t281 -25q160 -33 249 -102q121 -96 93 -242q-47 -248 -365 -413q-199 -106 -500 -176q-45 -10 -71 26q-23 8 -34 28.5t-9 45.5q41 273 14 623q-41 0 -59 36 q-14 27 -5 54.5t33 40.5q8 4 19 10q-10 96 -46 373.5t-49 433.5zM260 92q242 61 402 148q258 135 294 319q10 61 -43 105q-63 49 -192 73q-131 25 -251 23t-181 -23q-14 -4 -27 -10q31 -361 -2 -635zM1110 1673q-2 29 15.5 51.5t46 25.5t51 -14t26.5 -46q6 -57 42 -336 t50 -428q2 -35 28 -374t50 -517q4 -29 -14.5 -51.5t-47 -26.5t-51 14.5t-26.5 46.5q-16 131 -29.5 282t-26 330t-22.5 283q-12 150 -47 426z" />
<glyph unicode="&#x42c;" horiz-adv-x="1501" d="M22.5 733.5q2.5 28.5 24.5 46.5l68 58q-27 141 -39.5 244.5t-8 236.5t32.5 246q8 27 33 42t52.5 7t43 -32.5t7.5 -53.5q-25 -90 -29 -197.5t5 -203t32 -218.5l43 15q92 33 236.5 62.5t279.5 31.5q176 6 291 -41q152 -61 182 -207q27 -123 -125 -274q-111 -109 -315 -236 q-156 -100 -328 -187t-270 -128q-27 -12 -53.5 -1t-38 37.5t0 53t37.5 37.5l23 10v12q8 127 -9.5 260t-54.5 326l-6 -6q-23 -18 -51.5 -16.5t-47 24.5t-16 51.5zM270 768l39 -213q12 -66 26.5 -187.5t12.5 -217.5q229 113 414 227q190 121 289.5 218t89.5 146 q-16 72 -101 107q-86 35 -233 31q-125 -2 -258 -30t-217 -56q-41 -14 -62 -25z" />
<glyph unicode="&#x42d;" horiz-adv-x="1628" d="M-117 1448q-4 29 13.5 52.5t46.5 27.5q467 70 839 22q270 -31 426 -129q203 -125 199 -348q-4 -307 -432 -647q-231 -184 -649 -416q-27 -14 -54.5 -6t-42 33.5t-6.5 53.5t33 42q414 227 633 402q246 197 334 370q-291 -76 -541 -110q-29 -4 -52.5 14t-27.5 46t14.5 51.5 t45.5 27.5q246 33 561 117q23 6 43 -2q2 14 2 28q2 141 -133 228q-129 80 -369 108q-344 41 -803 -24q-29 -4 -52.5 13t-27.5 46z" />
<glyph unicode="&#x42e;" horiz-adv-x="2228" d="M23 596q0 29 20 49.5t49 20.5q25 0 51 2q0 35 7.5 150.5t9.5 176.5q0 14 6 293q4 180 16 301q4 29 26.5 46.5t51.5 14.5t46.5 -25.5t15.5 -51.5q-12 -113 -17 -287q0 -29 -2 -106q18 16 67.5 68t67.5 69l60 55q43 39 71 58l78 40q47 27 97.5 43.5t111.5 30.5 q90 20 197 21q147 59 297 51q53 -2 105 -16.5t78 -24.5t85 -39l78 -39q27 -12 37 -39.5t-2 -52.5q-16 -35 -52 -41q57 -43 111 -94q115 -111 169 -243t48 -262t-53 -253t-133 -233q-176 -223 -451.5 -332t-556.5 -35q-193 51 -297 176t-127 297q-12 80 -6 168 q-55 -10 -107 -16q-12 -397 60 -656q8 -29 -6.5 -53.5t-43 -32.5t-53 6.5t-32.5 42.5q-76 274 -64 682h-45q-29 0 -49 20.5t-20 49.5zM283 678q54 8 120 20q33 158 105 314q96 205 258 360q-59 -23 -112.5 -58.5t-82 -62t-100.5 -100.5l-106 -109q-27 -27 -64 -18 q-2 -18 -2 -33q-2 -47 -5 -99t-6 -115.5t-5 -98.5zM526 403q39 -281 324 -356q233 -63 471 31t389 287q100 127 138 264t1 280.5t-157 261.5q-209 203 -496 242q-61 8 -115 10q-139 -63 -256.5 -190t-189.5 -279q-55 -119 -86 -241q31 -14 37 -47q6 -29 -9.5 -52.5 t-44.5 -29.5l-6 -2q-10 -96 0 -179z" />
<glyph unicode="&#x42f;" horiz-adv-x="1482" d="M51 -168q2 29 23 47l207 193q135 125 237 202q250 189 461 228q0 47 2 98q-246 -106 -469 -59q-176 37 -271.5 134t-109.5 234q-10 121 39 254t141 254q113 147 271.5 212t319.5 47.5t321 -97.5q27 -12 36 -40t-4.5 -53.5t-41 -34.5t-52.5 5l-12 4q-27 -670 -31 -958 q35 -18 35 -58q0 -43 -35 -63q-2 -346 17 -639q2 -29 -17.5 -50.5t-48.5 -23.5t-50.5 17.5t-23.5 48.5q-18 289 -16 624q-168 -39 -375 -194q-100 -76 -229 -195l-207 -192q-23 -20 -51.5 -18.5t-48 23t-17.5 50.5zM270 924q18 -195 271 -248q195 -41 430 74q6 2 14 4 q4 190 27 759q-162 51 -322 6.5t-268 -188.5q-80 -102 -120 -210.5t-32 -196.5z" />
<glyph unicode="&#x430;" horiz-adv-x="1863" d="M10.5 28q-1.5 30 18.5 50q84 92 156.5 207.5t154.5 267.5q82 147 141 240q94 145 127 182q10 12 21 18q23 18 51 17q31 -2 51 -27q66 -61 121 -197.5t86 -175.5q59 -76 147 -151q86 -74 156 -119l191 -123q123 -78 180 -117q25 -14 30 -42.5t-10.5 -53t-44 -30 t-53.5 11.5l-162 100l-184 119q-70 47 -162 121.5t-158 148.5q-18 -12 -39 -12q-18 0 -83.5 -2t-89 -4t-68.5 -7.5t-75 -17.5t-58 -31q-20 -14 -45 -12q-152 -268 -279 -405q-18 -20 -48 -22.5t-50.5 17t-22 49.5zM514 578q86 20 266 24q-16 29 -57 129q-27 66 -49 100 l-74 -112z" />
<glyph unicode="&#x431;" horiz-adv-x="1830" d="M195 902.5q6 27.5 32 41.5l9 6l-7 54q-2 29 15.5 51t46 25t51.5 -14t27 -46v-2q61 27 131.5 47t128 34.5t141.5 25t130 16.5t141.5 10t130 4t138 2t126.5 2q31 0 51 -19.5t20 -49t-19.5 -50t-47.5 -20.5q-23 0 -122 -2t-128 -3t-117 -3t-125 -7.5t-113.5 -12.5 t-121.5 -17l-109 -25q-63 -14 -116.5 -34.5t-104.5 -45.5l31 -317q98 63 303 117q197 53 325 59q244 12 416 -10q84 -12 125 -68q37 -51 25 -121q-8 -51 -40 -99t-69 -77q-61 -47 -194 -110q-104 -49 -244 -97q-63 -23 -112.5 -38t-104.5 -29l-82 -21q-27 -6 -104.5 -23.5 t-110.5 -23.5q-41 -10 -68 23q6 -76 6 -139q0 -29 -20.5 -49.5t-49 -20.5t-49 20.5t-20.5 49.5q0 51 -5 109t-10 98t-15.5 113t-16.5 106q-35 39 -10 84v4q-6 53 -41 407q-29 4 -45 33q-14 25 -8 52.5zM434 369q4 -35 17.5 -122t19.5 -136q14 31 47 36q33 8 110 24.5 t101 23.5l78 18q55 14 102 29l107 37q131 45 227 92q119 55 170 94q18 14 35.5 40.5t21.5 49.5v14q-4 6 -32 11q-158 23 -387 10q-117 -6 -297 -53q-199 -53 -273 -107q-14 -10 -32 -39z" />
<glyph unicode="&#x432;" horiz-adv-x="1515" d="M65.5 71.5q-2.5 28.5 16 51t47.5 24.5l64 7q-2 16 -3 32q-4 90 0 160q-29 35 -10 76q6 14 21 24q2 16 4 31l-15 90q-27 172 -30 273q-2 31 17.5 51t49 22t50 -17t22.5 -48q2 -37 6 -76q14 29 33 53q80 117 197.5 171.5t271.5 19.5q109 -23 172 -117q74 -115 6 -227 q-37 -61 -143 -125l-66 -35q156 8 260 -6q164 -25 226 -111q49 -72 24 -137q-20 -49 -82 -76q-23 -10 -53.5 -17t-52.5 -11l-21 -2q-313 -78 -739 -123q-6 -10 -16 -19q-41 -31 -84 -4q-6 4 -11 10l-86 -8q-29 -2 -51 16.5t-24.5 47zM350 496q195 63 291 106q78 35 129 66 q78 45 96 77q23 35 -4 76q-31 47 -84 60q-203 43 -325 -136q-70 -97 -103 -249zM362 330l3 -13q4 -66 0 -145q389 43 679 115q8 2 45 8t60 14v2l-2 2q-27 39 -131 54q-100 14 -264 4q-98 -6 -287 -29q-72 -10 -103 -12z" />
<glyph unicode="&#x433;" horiz-adv-x="1566" d="M159.5 739.5q1.5 28.5 24.5 46.5q76 63 90 74q33 20 125 55q129 47 291 74q113 18 184 8q127 -18 138 -118q4 -35 -19 -76q-14 -23 -41 -53q-39 -45 -118 -117l-134 -117l-172 -154q-74 -74 -112 -122q-29 -37 -37 -60q43 -14 156 -4q61 6 223 35q90 14 260 47l246 47 q29 4 52 -12.5t28.5 -45t-11 -52t-45.5 -29.5q-76 -12 -246 -45l-260 -49q-168 -29 -235 -35q-141 -14 -215 12q-47 16 -72 49q-29 37 -22 86q6 61 67 142q45 57 127 137l172 155q115 100 135 117q74 68 109 107l12 16h-6q-49 8 -141 -6q-147 -25 -264 -68q-78 -29 -99 -43 q-8 -4 -76 -61q-23 -18 -51 -16t-46.5 24.5t-17 51z" />
<glyph unicode="&#x434;" horiz-adv-x="1976" d="M-27 -33q-20 35 0 72q8 14 25 24q8 4 20.5 8.5t40.5 8.5q6 0 37 4q-2 12 -2 27q0 29 17 65q2 6 20 45q10 20 12 27q57 231 117 375q55 133 117 200q70 78 147 80q33 39 76 82q18 20 48 20.5t50.5 -19t20.5 -49.5t-21 -50l-45 -49q14 -20 31 -52q29 -55 59 -147l43 -145 q23 -84 25 -91q57 -170 117 -262l8 -10q403 18 762 -45q29 -6 45 -29.5t11 -52.5t-28.5 -45t-52.5 -12q-352 63 -753 43h-2l-31 -10q-8 -2 -19 -3q-16 -2 -43 -2q-44 -2 -120 -2q-45 -4 -91 -10q-49 -6 -142 -19.5t-143 -19.5t-132 -6t-166 12q-8 2 -15 4q-31 12 -43 33z M246 57q63 2 211 25q20 31 57 31h182l82 8q-51 92 -98 237q-4 12 -29 99q-23 84 -41 139q-27 78 -49 123q-20 -33 -41 -72l-33 -67l-38 -91l-43 -100q-78 -174 -127 -272q-18 -35 -31 -56z" />
<glyph unicode="&#x435;" horiz-adv-x="1611" d="M82 936q-6 29 9 53.5t43 30.5t52.5 -9.5t30.5 -41.5l23 -97q172 98 532 123q332 23 561 -16q29 -6 45.5 -29.5t11 -52.5t-29 -45t-51.5 -12q-211 37 -527 16q-369 -25 -499 -121q-2 -2 -7 -10l9 -43q162 27 355.5 30t333.5 -6.5t347 -29.5q29 -2 47 -24.5t16 -51.5 t-24.5 -47t-50.5 -16q-203 20 -341.5 28t-320.5 6t-334 -24q37 -188 39 -338q563 43 936 2q29 -4 46.5 -26.5t14.5 -51.5t-26 -46t-51 -15q-365 41 -936 -4q-23 -29 -60 -27q-25 2 -43 18l-73 -6q-29 -2 -51.5 16.5t-24.5 47t16.5 51t46.5 25.5l66 6q-2 182 -66 463 q-20 16 -25 39.5t5 43.5z" />
<glyph unicode="&#x436;" horiz-adv-x="1902" d="M63 991q-2 29 17.5 50.5t48.5 23.5t49 -16q31 -27 79 -74t82 -75t77 -50q47 -25 108 -45q4 0 39 -4q51 -4 82 -27l12 -8l5 188q0 29 21.5 48.5t50 19.5t48 -21.5t19.5 -50.5q-4 -133 -4 -260l20 15q29 20 78 45q74 41 209 98q240 104 360 143q29 10 54.5 -3t35 -40.5 t-4 -53.5t-40.5 -34q-125 -43 -350 -139q-125 -55 -201 -94q-41 -23 -63 -37q-8 -6 -12 -10q-4 -12 -2 -31l10 -4l80 -39l250 -119q385 -178 424 -201q27 -14 35 -41.5t-6.5 -53t-42 -34t-52.5 5.5q-37 20 -418 199l-250 117l-82 41q-16 8 -26 12l-2 2q4 -115 10 -233 q2 -29 -17.5 -50.5t-48 -23.5t-50 17.5t-23.5 48.5q-8 150 -13 299l-129 -181l-217 -288q-18 -23 -46.5 -27t-51 14.5t-27 47t14.5 51.5l215 284l127 178q29 41 41 60l4 8q-8 10 -23 20l-18 3q-49 6 -66 12q-74 23 -133 53q-49 25 -94 61.5t-99.5 89t-68.5 64.5 q-23 20 -25 49z" />
<glyph unicode="&#x437;" horiz-adv-x="1615" d="M16.5 834.5q-10.5 27.5 1.5 53.5t39 36q166 59 288 84.5t280 25.5q6 0 20 2q23 2 35 2q66 0 102 -41q72 -82 62 -161q-8 -70 -78 -121q147 -6 293 -29q78 -14 168 -41q53 -16 88 -33q23 -10 39 -22q29 -23 37 -53q18 -76 -39 -136q-35 -35 -99 -59q-29 -10 -63.5 -19.5 t-54.5 -11.5l-23 -4q-147 -37 -313 -69l-373 -76l-315 -62q-29 -6 -53.5 9.5t-29.5 44t10 53t44 29.5l315 63l369 74q166 35 313 69q6 2 28.5 6.5l47.5 9.5t49 15q25 8 39 19q-23 10 -57 20q-80 25 -152 35q-317 53 -598 8q-14 -2 -61 -16q-55 -18 -92 -21q-47 -12 -80 -16 h-19q-23 0 -39 8q-18 10 -28 27q-16 27 -6 57q8 25 30 39q10 6 25 10q33 10 96 14q104 27 242 86q23 10 59 23q41 16 68.5 29.5t50.5 30t23 28.5q2 14 -21 45h-2q-6 0 -23 -2q-23 -2 -34 -2q-143 0 -253 -23.5t-266 -78.5q-29 -10 -54 2t-35.5 39.5zM1268 479h2h-2z" />
<glyph unicode="&#x438;" horiz-adv-x="1253" d="M-37 74q0 20 4 55q6 45 23 139l18 94q8 49 15.5 82t7.5 35q10 55 67 412q6 29 29 46t51.5 12t46 -27.5t13.5 -51.5q-57 -360 -68 -415q-2 -2 -8 -35t-17 -84l-18 -92q-12 -66 -18 -103q18 8 38 25q63 51 156 166l160 211q92 129 131 170q76 80 178 164q49 41 80 61 q18 12 33 20l24 9q31 6 56 -11q37 -25 53 -86q8 -39 12 -98q6 -96 0 -258q-4 -106 -15 -262t-11 -168q0 -29 -21.5 -49.5t-50.5 -19.5t-49.5 22.5t-18.5 50.5q0 14 11.5 170t15.5 262q4 154 0 242q-2 16 -2 31l-29 -23q-94 -78 -164 -152q-29 -31 -121 -157 q-113 -156 -161 -217q-102 -127 -181 -189q-117 -92 -213 -65q-41 12 -53 55q-2 12 -4 29zM57 125q4 2 27 6q-10 8 -27 -6z" />
<glyph unicode="&#x439;" horiz-adv-x="1716" d="M117 760q2 49 10 98q6 27 29.5 44.5t51.5 12t45 -28.5t13 -52q-8 -41 -10 -81t2 -91.5t7 -79t13.5 -97t14.5 -90.5q0 -2 2 -30l8 -74l10 -90l15 -101q10 14 63 78l125 162q90 117 164 205q72 84 151 153q88 78 170 125q53 29 93 39q74 18 114 -26q133 -145 195 -439 q12 -59 27 -147q16 -92 29.5 -162t31.5 -127q10 -27 -3 -52.5t-41 -34.5t-53.5 4t-33.5 42q-20 61 -35.5 138t-32 170.5t-26.5 140.5q-49 242 -146 356q-20 -6 -49 -23q-72 -43 -145 -106q-74 -66 -141.5 -144.5t-153.5 -193.5l-133 -170q-70 -86 -92 -108q-33 -31 -60 -46 q-57 -31 -104 3q-20 12 -31 38q-2 8 -6 21l-10 51q-8 51 -19 135q-6 43 -12 90l-8 76l-2 27q-2 18 -12.5 89t-13.5 101.5t-8 88t-3 106.5zM288 1391.5q9 35.5 39.5 54t67 9.5t54.5 -40q2 -2 26 -53q10 -16 14 -21q76 -76 283 -30q143 31 342 123q33 16 68 2.5t50 -46 t2 -67.5t-46 -49q-213 -100 -379 -135q-299 -66 -442 75q-27 27 -48 68q-2 2 -9 17.5t-13 25.5q-18 31 -9 66.5z" />
<glyph unicode="&#x43a;" horiz-adv-x="1710" d="M-53 369q-25 61 24 125q25 33 74 69q25 16 111 66l20 12q-47 190 -65 287q-6 29 9 53.5t44 29.5t53.5 -10.5t28.5 -44.5l57 -245q201 104 416 192t362 115q29 6 52.5 -10.5t28.5 -45t-11 -52t-45 -27.5q-139 -27 -356.5 -118t-411.5 -194l35 -157q592 -47 1073 -238 q27 -12 38 -37.5t0 -53.5t-37 -39t-54 -1q-446 178 -992 227l13 -88q4 -29 -14.5 -51t-47 -26.5t-51 14t-27.5 47.5q-6 55 -16 115q-76 4 -121 10q-61 6 -96 14q-27 6 -43 12q-37 18 -51 50zM111 436q18 -2 41 -6q33 -2 77 -6l-18 78q-49 -27 -82 -51z" />
<glyph unicode="&#x43b;" horiz-adv-x="1626" d="M-10 21q0 29 18 49q47 51 129 149t119 139l406 449q33 35 100 90q43 37 76 57q53 35 92 35q45 0 90 -37q27 -25 57 -67q45 -68 99 -183q35 -78 77 -184q8 -20 17.5 -46t15.5 -39t8 -19q16 -37 47 -92l56 -97q14 -25 6 -52.5t-34 -41.5t-53.5 -6t-41.5 35l-53 94 q-35 59 -54 102l-43 111q-39 96 -75 178q-49 106 -86 160q-18 29 -35 41q-6 -4 -15 -8q-25 -16 -63 -47q-61 -51 -86 -78q-57 -59 -406 -449q-35 -39 -117.5 -139t-129.5 -150q-20 -23 -49 -22.5t-50.5 20t-21.5 48.5z" />
<glyph unicode="&#x43c;" horiz-adv-x="1949" d="M72 70q18 49 102 287.5t139 363.5q43 100 64 141q20 39 35 60q12 18 24 28q33 27 70 19q27 -4 41 -27q2 -2 4 -6l2 -2q2 -2 2 -4l2 -2l2 -6l10 -23l35 -76q57 -121 117 -227q80 -141 137 -207q33 -35 53 -47v-4q6 6 15 16q16 27 39 78q18 39 52 124t40 101 q63 147 110 213q39 53 82 72q66 27 123 -14q61 -43 105 -172q25 -80 57 -238q45 -215 51 -239q27 -117 53 -160q4 -6 19 -17l20 -14l27 -20q23 -18 25 -47t-16.5 -51.5t-47.5 -24.5t-51 16q-6 4 -17 12l-22 15q-37 29 -55 57q-37 63 -72 201l-51 246q-33 156 -54 221 q-25 72 -45 96q-10 -8 -20 -21q-37 -51 -92 -184q-4 -14 -39 -102q-37 -88 -55 -129q-27 -59 -50 -94q-35 -53 -73 -70q-59 -27 -125 10q-43 25 -90 78q-70 80 -156 231q-57 102 -117 228l-41 -92q-53 -123 -137 -357l-100 -287q-10 -27 -37 -39t-53.5 -1.5t-38.5 37 t-2 53.5z" />
<glyph unicode="&#x43d;" horiz-adv-x="1329" d="M61 506q2 25 21.5 43t46.5 18q-6 82 -14.5 179.5t-13.5 151.5t-5 58q-2 29 17.5 50.5t48 23.5t50 -17.5t24.5 -47.5q0 -4 5 -61.5t13 -160t16 -186.5q76 -4 170.5 -5t143.5 0t181 5t155 4q8 0 18 -2q-16 236 -16 389q0 29 20.5 49.5t49 20.5t49 -20.5t20.5 -49.5 q0 -164 20 -459q25 -362 27 -464q0 -29 -19.5 -50.5t-48 -21.5t-50 19.5t-21.5 47.5q-2 141 -23 406q-10 -4 -22 -4q-27 0 -151 -4t-176 -5t-145.5 -1t-170.5 4q16 -209 16 -266v-19q0 -14 -4 -26.5t-14 -20.5q-20 -27 -56 -25q-29 0 -47 21q-8 6 -12 16t-8 23 q-6 27 -21 119q-4 31 15 53q-2 49 -9 115v20l-18 2q-29 4 -46.5 26.5t-15.5 51.5zM158 139v2v-2zM291 154v2v-2z" />
<glyph unicode="&#x43e;" horiz-adv-x="1857" d="M57.5 729.5q10.5 26.5 36.5 38.5q29 12 91.5 44t117.5 56.5t105 38.5l38 13l15 6q170 63 350 55q461 18 707 -262q59 -68 94 -162t22 -182q-31 -195 -248 -295q-176 -82 -436 -84q-246 -2 -474 68.5t-333 197.5q-2 2 -9 11.5t-11 13.5t-12 14l-13 18q-4 6 -10 17.5 t-10 22t-8 22.5t-6.5 24.5t-2.5 24.5q0 111 48 207q-35 6 -50 39q-12 27 -1.5 53.5zM201 430q0 -18 49 -78q80 -96 277.5 -157.5t420.5 -59.5q229 2 379 70.5t168 189.5q8 53 -16.5 119t-67.5 115q-109 123 -281 176q-14 -25 -41.5 -31t-52.5 6q-92 53 -227 62 q-156 -8 -317 -54q-135 -55 -213 -147t-78 -211z" />
<glyph unicode="&#x43f;" horiz-adv-x="1507" d="M-2 782.5q-6 28.5 8 53t43 30.5l29 6q12 41 55 50q37 6 62 -23q291 57 673 78q47 2 203 2h16q20 16 54 20q27 4 51 2q35 -4 57 -18q27 -18 35 -47q10 -35 -12 -66q-10 -16 -29 -24q-6 -2 -10 -4q-4 0 -8 -2h-6h-7h-10h-20v-33q-2 -33 0 -133q6 -328 80 -541 q10 -27 -2.5 -52.5t-40 -35.5t-53 2t-36.5 41q-82 233 -88 586q-2 102 0 135v31q-127 0 -165 -2q-369 -20 -648 -74q10 -63 34 -183t40 -217.5t29 -183.5q4 -29 -13.5 -52.5t-46 -27.5t-52 13.5t-27.5 46.5q-10 86 -26.5 180t-40.5 214t-34 179l-10 -2q-29 -6 -53.5 8.5 t-30.5 43z" />
<glyph unicode="&#x440;" horiz-adv-x="1574" d="M3 738.5q-9 27.5 4 53t40 33.5q28 11 57 19q2 100 15 188q4 29 27.5 46.5t52 13t46 -28t13.5 -51.5q-10 -61 -12 -131q416 92 778 6q141 -33 242 -119q74 -61 86 -133q18 -92 -62 -172q-82 -84 -346 -178l-113 -39q-53 -18 -116 -37l-101 -27l-118 -30q-82 -23 -117 -33 q-43 -10 -72 22q49 -365 39 -579q-2 -29 -22.5 -48.5t-50 -17.5t-49 22.5t-17.5 51.5q2 37 2 76t-2 81t-4 76.5t-6 82.5t-7.5 79t-10.5 84t-10 80t-11 86t-13 82q-33 252 -39 401l-14 -4q-29 -10 -54.5 3.5t-34.5 41zM244 737q6 -139 41 -422l12 -98q14 29 45 37l117 31 l114 30q39 10 99.5 27.5t113.5 34.5l113 39q231 84 293 145q27 29 22 47q-4 23 -38 54q-76 63 -185 90q-344 82 -747 -15z" />
<glyph unicode="&#x441;" horiz-adv-x="1298" d="M-180 375q-16 98 42 190t161 168q129 94 305 154.5t363.5 68t344.5 -64.5q27 -12 37 -40t-2 -53.5t-39.5 -35.5t-52.5 2q-129 57 -286.5 51t-314.5 -58t-272 -136q-84 -61 -120.5 -120t-28.5 -106q8 -49 76 -104q70 -53 225 -98q106 -31 227 -41q63 -6 110.5 -7.5t101 4 t82 8.5t102 16t116.5 20q29 4 52.5 -13.5t27.5 -46.5t-13 -52.5t-46 -27.5l-115 -18q-76 -12 -106.5 -16.5t-89 -9.5t-111.5 -4t-123 7q-135 12 -252 45q-369 106 -401 318z" />
<glyph unicode="&#x442;" horiz-adv-x="1880" d="M-48 850q-5 29 10 53.5t44 28.5q47 10 94 16t102.5 10.5t89.5 5.5t101.5 4t89.5 3l97 4q2 47 49 61q27 10 52.5 -3t33.5 -42l6 -14q465 4 878 -51q29 -4 46.5 -28t13.5 -52.5t-27.5 -46t-52.5 -13.5q-385 53 -819 52q98 -371 88 -772q0 -29 -21.5 -48.5t-50 -19.5 t-48 21.5t-19.5 50.5q10 397 -93 766l-129 -5q-23 -2 -90 -4l-98 -4q-33 0 -85 -4t-95 -9t-84 -13q-29 -6 -53.5 9t-29.5 44z" />
<glyph unicode="&#x443;" horiz-adv-x="1669" d="M-26 921q-3 29 14.5 51.5t46 25.5t51.5 -13q242 -190 459 -290.5t442 -80.5l35 41q199 227 309 332q20 18 49 18.5t48.5 -21t19.5 -50.5t-23 -49q-102 -98 -290 -314q0 -2 2 -4q4 -29 -12.5 -52t-45.5 -30q-10 -2 -22 -2q-137 -156 -240 -252q-115 -106 -342 -297 q-223 -186 -317 -272q-23 -20 -51.5 -18t-48 23.5t-17.5 50t22 46.5l318 273q225 188 342 297q66 61 137 139q-223 14 -432 120.5t-428 280.5q-23 18 -26 47z" />
<glyph unicode="&#x444;" horiz-adv-x="2033" d="M-211 242q-18 88 29 192q63 147 219 281q250 215 606 280v144v157q0 29 20.5 49.5t49 20.5t49 -20.5t20.5 -49.5v-157v-125q326 29 643 -70q27 -8 39 -33q63 -18 107 -39q199 -96 233 -221q35 -117 -73 -231q-123 -129 -433 -258q-219 -90 -471 -144q35 -336 41 -413 q2 -29 -16 -51.5t-47 -24.5t-51.5 16.5t-24.5 46.5l-39 400l-63 -8q-457 -61 -705 86q-111 63 -133 172zM-74 270q8 -47 66 -82q205 -121 616 -67q35 4 68 10l-14 164q-17 231 -19 557q-305 -61 -516 -244q-131 -113 -182 -231q-29 -63 -19 -107zM782 874q0 -334 19 -567 q6 -70 12 -149q231 51 432 135q283 115 383 221q55 57 43 98q-18 66 -162 133q-33 16 -69.5 27.5t-86.5 25t-83 25.5q-23 7 -37 27q-227 45 -451 24z" />
<glyph unicode="&#x445;" horiz-adv-x="1708" d="M23 894q-9 28 4.5 53.5t41 34.5t54.5 -5q133 -68 246.5 -158t255.5 -221q145 115 321 231l78 56q59 41 90 61l86 49q51 31 98 49q47 20 101 35q29 8 53.5 -7t32.5 -43t-7 -52.5t-42 -32.5q-43 -10 -84 -27.5t-86 -44.5l-74 -45q-27 -16 -86 -57l-82 -55 q-162 -109 -297 -213l80 -70q72 -66 239.5 -186.5t249.5 -196.5q20 -18 22.5 -48t-17 -50.5t-49 -22.5t-50.5 19q-76 70 -237 186q-178 129 -252 193l-97 88q-217 -180 -397 -379q-18 -20 -47 -22.5t-50.5 17t-23.5 48t19 51.5q182 201 397 381q-131 121 -233.5 202 t-223.5 142q-25 12 -34 40z" />
<glyph unicode="&#x446;" horiz-adv-x="1662" d="M96 952q0 29 20.5 49.5t49.5 20.5t49.5 -20.5t20.5 -49.5q0 -35 22 -405l16 -254l7 -82q23 -8 65 4q25 8 68 27q57 29 69 32q139 55 185 66q27 6 102 14q0 381 45 592q6 29 29.5 44.5t52.5 9t44 -30t9 -51.5q-41 -197 -41 -553q72 4 140 4q139 2 225 -7q53 -6 88 -16 q63 -23 78 -70q6 -23 0 -45q-4 -8 -8 -18q-6 -14 -17 -33l-49 -74l-68 -96l-108 -155q-78 -104 -238 -301q-18 -20 -46.5 -23.5t-50 15t-25 47t15.5 51.5q156 193 229 293l109 155l67 94l25 35q-8 2 -16 2q-78 8 -209 6q-111 -2 -217.5 -10t-133.5 -14q-35 -8 -168 -62 q-6 -2 -59 -26q-51 -25 -88 -35q-135 -41 -221 43q-6 6 -10 12t-7 10v5q-2 4 -2 8q-2 2 -2 4v4v2v8q-2 8 -2 23l-6 84l-16 254q-23 375 -23 413z" />
<glyph unicode="&#x447;" horiz-adv-x="1482" d="M66 938q-4 29 14 51.5t47 26.5t51.5 -14.5t26.5 -47.5q4 -41 8 -123q4 -88 6 -124q12 -135 53 -199q12 -18 48 -35.5t71 -21.5q74 -12 144.5 3t142.5 59t124 86t130 112q29 25 63 16q-23 156 -41 256q-4 29 12.5 52.5t45 28.5t52.5 -11t30 -45q18 -113 47.5 -318 t57.5 -371.5t61 -316.5q6 -27 -9.5 -51.5t-43 -30.5t-52.5 9.5t-31 43.5q-51 236 -110 625l-103 -90q-41 -35 -111.5 -83t-131 -72.5t-140 -38t-157.5 -3.5q-55 8 -118 39t-95 80q-61 94 -78 264q-2 39 -6 131q-4 76 -8 113z" />
<glyph unicode="&#x448;" horiz-adv-x="1705" d="M27 963q4 29 26.5 46t51 14t46 -25.5t15.5 -51.5q-37 -332 45 -788q16 2 194.5 16t270.5 19q-47 262 -12 618q2 29 24.5 47.5t51 16t47 -25t16.5 -50.5q-33 -348 14 -600q242 6 432 -19q-70 377 -61 850q0 29 20.5 48.5t50 19.5t49 -20.5t19.5 -51.5q-8 -485 70 -868 l33 -8q29 -6 44 -31t9 -52.5t-31 -43t-51 -9.5l-15 2q-12 -10 -28 -12q-47 -12 -74 31q-201 31 -459 24q-14 -23 -41 -28q-43 -10 -71 24q-70 -4 -152 -10t-180 -14t-156 -11q-14 -35 -49 -40q-51 -10 -76 32q-23 4 -39 22.5t-18 43.5q-2 39 31 61q-86 473 -47 824z" />
<glyph unicode="&#x449;" horiz-adv-x="1873" d="M-24.5 115.5q8.5 27.5 34 42t51.5 6.5q49 -14 101 -23q-109 451 -144 797q-2 29 16.5 51.5t47.5 24.5t51.5 -16.5t24.5 -47.5q33 -336 139 -776q6 -27 -6 -49q143 -12 346 4q-72 420 -64 674q0 29 21.5 49t50.5 19t49.5 -22t18.5 -50q-8 -242 63 -656q274 27 371 33 q125 6 141 8q-59 393 -82 715q-2 29 17.5 50.5t48 23.5t50 -17.5t24.5 -48.5q25 -336 84 -723q63 -4 105 -12t67 -22q55 -33 51 -89q-4 -57 -60 -137q-39 -55 -106 -131l-74 -76l-82 -82l-51 -49q-20 -20 -49 -20t-49.5 20.5t-20.5 49t21 49.5l49 49l80 78q37 37 73 77 q63 70 95 115q12 16 20 33q-45 8 -123 8q-61 0 -221 -8q-70 -4 -334 -33t-446 -25.5t-350 50.5q-29 8 -43.5 33.5t-6 53z" />
<glyph unicode="&#x44a;" horiz-adv-x="1716" d="M-63.5 912.5q2.5 29.5 23 49t50.5 17.5q33 -2 71 -3t42 -1t26.5 -2t27.5 -4t42 -7.5t76 -11.5v62q0 29 21.5 48t50 19t48 -21t19.5 -50q-4 -260 21 -502q221 74 409 108q186 35 367 17q61 -6 123 -27q51 -16 84 -41q55 -41 57 -100q2 -96 -80 -178q-53 -53 -207 -109 q-121 -43 -303 -90q-274 -70 -534 -117q-29 -4 -52.5 12.5t-28.5 45t11 52t45 30.5q256 45 524 112q176 45 291 86q125 45 156 76q33 33 39 68q-14 10 -45 20q-47 16 -92 21q-168 18 -345.5 -18t-400.5 -109q8 -59 21 -121q4 -29 -12.5 -52.5t-45 -28.5t-52.5 11t-30 45 l-16 111q-41 6 -53 45q-8 25 2 49.5t32 36.5q-20 172 -24 350h-19l-75 12l-41 8q-6 0 -25.5 2.5t-24 2.5t-39 1t-69.5 3q-29 2 -48.5 22.5t-17 50z" />
<glyph unicode="&#x44b;" horiz-adv-x="1658" d="M-88 -46q-2 30 17.5 50.5t50.5 22.5q55 2 145 14l-4 29q-6 29 9 52t44 30q10 2 21 2q-2 39 -7 77h-2q-25 -14 -52.5 -6t-41.5 34t-6 53.5t35 41.5q16 8 47 29q-8 47 -53 276q-43 219 -62 340q-4 29 13.5 52.5t46 27.5t52.5 -13t28 -46q18 -123 59 -332q33 -164 45 -233 q25 12 47 18q45 16 170 25q135 8 250 -4q154 -14 227 -64q59 -37 72 -96q12 -61 -29 -127q-51 -82 -207 -146q-115 -49 -301 -92q-104 -25 -204 -41q-2 -12 -5 -18q-4 -35 -16 -53q-25 -37 -65 -35q-37 0 -62 31q-16 23 -27 49q-100 -12 -163 -15q-29 -2 -49.5 17.5 t-22.5 49.5zM319 309q18 -129 15 -237l162 32q170 39 278 86q115 47 141 91q13 18 11 24q-2 4 -11 8q-45 31 -165 41q-102 10 -228 4q-104 -8 -133 -16q-33 -12 -70 -33zM1190 1022q0 29 20.5 49.5t49 20.5t49 -20.5t20.5 -49.5q0 -174 2 -258t10.5 -229.5t31 -260 t61.5 -219.5q10 -29 -2.5 -54.5t-40 -35.5t-53 2.5t-35.5 38.5q-41 115 -67 239t-35 280.5t-10 237.5t-1 259z" />
<glyph unicode="&#x44c;" horiz-adv-x="1277" d="M-30 188.5q-1 28.5 19.5 50t49.5 21.5q39 2 127 10v13v12v12q-4 66 -19 187q-12 14 -18 32q-8 31 10 58q-29 276 -14 444q2 29 24.5 47.5t51 16.5t47 -24.5t16.5 -51.5q-12 -150 10 -377q74 20 193 25q45 2 146.5 -7.5t193.5 -29.5q127 -31 188 -80q49 -39 60 -90 q12 -55 -23 -115q-23 -37 -82 -63q-43 -20 -110 -39q-115 -31 -295 -62q-322 -51 -502 -57q-29 -2 -50.5 18.5t-22.5 49zM289 498q10 -109 16 -183q0 -12 2 -28q100 12 215 30q178 29 279 58q57 14 90 31q0 -2 22 10l7 12q0 2 -11 10q-37 29 -135 51q-80 20 -173 28.5 t-130 6.5q-106 -4 -182 -26z" />
<glyph unicode="&#x44d;" horiz-adv-x="1527" d="M73.5 787.5q-10.5 27.5 1 54.5t40.5 37l53 20l49 21q16 6 46 16t51.5 16t52 13.5t65.5 13.5q63 14 215 14t281 -24q164 -31 258 -99q129 -92 121 -237q-6 -98 -160 -201q-109 -72 -295 -156q-119 -51 -320 -131q-188 -74 -213 -84q-27 -12 -53 -1.5t-38.5 37t-2 53 t36.5 38.5q29 12 221 88q217 86 312 127q178 80 274 144l21 14q-199 -23 -453 -41q-29 -2 -50.5 17.5t-23.5 48t17.5 50t48.5 23.5q307 23 522 52q-16 25 -45 45q-70 49 -203 75q-117 23 -256 23t-190 -14q-37 -6 -64.5 -12.5t-60.5 -16.5t-45.5 -15t-59.5 -24l-63 -24 q-27 -10 -53.5 1t-37 38.5z" />
<glyph unicode="&#x44e;" horiz-adv-x="1916" d="M172 999q0 29 20.5 49.5t49 20.5t49 -20.5t20.5 -49.5q0 -162 11 -428q244 109 600 154q34 67 79 137q-18 14 -24 37q-10 27 3 52.5t42 33.5q12 4 57 22.5t88 32t80 17.5q215 18 342 -125q113 -127 109 -320q-4 -119 -55.5 -227.5t-160 -188t-255.5 -92.5 q-229 -20 -334 76q-96 88 -74 254q8 66 35 141q-281 -43 -483 -135q-20 -10 -43 -4q12 -291 12 -456q0 -29 -20.5 -49.5t-49 -20.5t-49 20.5t-20.5 49.5q0 170 -14.5 509.5t-14.5 509.5zM956 416q-12 -94 31 -133q59 -53 227 -39q160 14 250 122.5t95 249.5q2 137 -74 224 q-53 59 -137 75q-20 -18 -45 -18q-16 0 -39 2l-11 2h-18q-23 2 -31 -2q-12 -4 -41 -45q-182 -262 -207 -438z" />
<glyph unicode="&#x44f;" horiz-adv-x="1519" d="M-12 590q-2 61 55 104q12 10 33 23q14 10 20 12q193 143 404 193q244 59 422 -39v8q2 29 24.5 47t51 16t47 -24.5t16.5 -50.5q-18 -217 -23 -301q102 10 187 14q31 2 51 -17.5t22 -49t-17 -50t-48 -22.5q-82 -4 -197 -17q2 -201 49 -350q10 -27 -3 -52.5t-40.5 -34.5 t-53 4t-34.5 42q-53 162 -57 375q-94 -51 -192 -117l-222 -156l-192 -137q-23 -16 -51.5 -11t-45 28.5t-11.5 52.5t30 45l377 268q-172 -8 -307 6q-94 10 -150 31q-139 49 -145 160zM133 588q12 -14 45 -27q43 -14 121 -22q68 -8 137.5 -10.5t146 3t130.5 11.5l145 16 q18 6 37 4h4q2 74 10 172q-19 3 -35 13q-135 88 -344 38q-182 -43 -352 -168q-8 -8 -31 -20q-12 -8 -14 -10z" />
<glyph unicode="&#x450;" horiz-adv-x="1652" d="M30 817q-5 29 11 52.5t45 29.5h8q-6 86 -8 156q0 29 19.5 50t48 21t50 -19.5t21.5 -47.5q2 -63 8 -133q35 6 154 29.5t167 31.5t152.5 27.5t169 28t155.5 18.5t171 14t160 4q29 0 49.5 -20.5t20.5 -49t-20.5 -49t-49.5 -20.5q-90 0 -190.5 -7t-174 -15.5t-196.5 -28.5 l-174 -29q-53 -10 -197.5 -38.5t-181.5 -35.5l33 -260q158 12 440 82q340 84 489 103q29 4 51.5 -14.5t26.5 -47t-14.5 -51.5t-46.5 -27q-133 -16 -471 -98q-293 -72 -465 -86q2 -37 6 -102q2 -68 4 -97q6 3 14 5q453 111 961 137q29 2 50.5 -17.5t23.5 -48t-17.5 -50 t-48.5 -24.5q-496 -27 -936 -133q-18 -4 -37 0q2 -29 -15 -50t-47 -24t-51.5 14t-25.5 46q-8 80 -16 236q-6 152 -15 227q-2 18 -30 254q-29 -4 -52.5 12t-28.5 45zM393.5 1437.5q3.5 28.5 27 46t52.5 13.5t45 -29l127 -161q18 -23 16 -51.5t-24.5 -47t-51 -16.5t-46.5 25 q-53 63 -131 169q-18 23 -14.5 51.5z" />
<glyph unicode="&#x451;" horiz-adv-x="1656" d="M136 884.5q-3 28.5 15.5 50t47.5 26.5q8 18 24 28q25 16 52.5 11t43.5 -27q29 2 218 22l260 29q70 6 207 17.5t245 15.5q31 2 51.5 -17.5t22.5 -49t-17.5 -50t-48.5 -22.5q-242 -10 -868 -78q55 -129 72 -303l657 94q29 4 52.5 -13.5t27.5 -46t-13.5 -52t-45.5 -27.5 l-670 -95v-231q6 0 369 43q322 37 526 45q29 0 49.5 -19.5t21.5 -48t-18.5 -49t-48.5 -22.5q-197 -8 -514 -45q-422 -49 -520 -58q-29 -2 -51.5 16.5t-24.5 47t16.5 51.5t47.5 25h8v110v115l-94 -15q-29 -4 -52.5 13.5t-27.5 46.5t13 52.5t46 27.5l109 14q-16 182 -80 309 l-33 -4q-29 -2 -50.5 16.5t-24.5 47zM313 1221l6 100q2 29 24 48.5t50.5 17t48 -23.5t17.5 -50l-6 -101q-2 -29 -23.5 -48t-50.5 -17t-48.5 23.5t-17.5 50.5zM573 1370q0 29 20.5 49.5t49.5 20.5t49.5 -20.5t20.5 -49.5t-20.5 -49.5t-49.5 -20.5t-49.5 20.5t-20.5 49.5z" />
<glyph unicode="&#x452;" horiz-adv-x="1329" d="M2 1079.5q0 28.5 20.5 49t49.5 20.5h106q-2 152 8 289q2 29 24.5 47t51.5 16t47.5 -24.5t16.5 -51.5q-12 -127 -9 -278q240 -2 332 -2q29 0 49.5 -20.5t20.5 -49t-20.5 -49t-49.5 -20.5q-92 0 -325 2l24 -295q160 94 361 92q176 -2 286 -82q137 -98 111 -266 q-23 -123 -70 -248t-100 -223.5t-135 -216t-146 -195.5l-155 -188q-18 -23 -47 -25t-51.5 16.5t-24.5 47t16 51.5q119 139 195 237.5t162 230.5t140 265t77 272q14 82 -52 129q-76 55 -208 56q-98 2 -189.5 -29t-155.5 -86q33 -350 15 -588q-2 -29 -24.5 -47t-51.5 -16 t-47 24.5t-16 50.5q14 193 -2 433q-18 -2 -37 6q-27 10 -38 36.5t1 53.5q20 53 57 98l-8 92q-20 207 -27 316h-112q-29 0 -49.5 20.5t-20.5 49z" />
<glyph unicode="&#x453;" horiz-adv-x="976" d="M63 987q0 43 37 62q8 23 27.5 35t42.5 10q37 -2 55 -35q59 4 120 10t150 18.5t123 16.5q29 2 51.5 -15.5t25.5 -46t-14 -51t-46 -26.5q-31 -4 -123 -15l-156 -20q-63 -6 -127 -10q-6 -150 -2 -381l9 -488q0 -29 -20.5 -49t-49.5 -20t-49.5 20.5t-20.5 48.5q0 72 -1 153 t-4 180t-3 153q-4 231 2 395q-27 20 -27 55zM200 1208.5q-3 28.5 13 51.5q166 209 428 438q20 18 49 16t48.5 -23.5t17.5 -50t-25 -49.5q-250 -219 -407 -417q-18 -23 -47 -26t-51.5 14.5t-25.5 46z" />
<glyph unicode="&#x454;" horiz-adv-x="1343" d="M10 479q0 29 23 49q45 156 143 281q133 174 301 209q203 45 375 -129q20 -20 20 -49t-20.5 -49.5t-49 -20t-48.5 20.5q-119 119 -248 92q-117 -25 -221 -158q-61 -80 -99 -178q72 2 220.5 8t226.5 8q29 0 49 -19.5t20 -49t-19 -50t-50 -20.5q-76 -2 -238 -9t-245 -7 q-18 -131 34 -203q20 -29 88 -55q61 -23 123 -29q88 -10 155.5 0t160.5 45q70 27 307 162q25 14 53.5 6t42.5 -33t6 -53.5t-33 -42.5q-248 -139 -327 -170q-106 -39 -190.5 -52.5t-190.5 -0.5q-78 10 -156 38q-106 39 -153 103q-88 125 -54 328q-6 12 -6 28z" />
<glyph unicode="&#x455;" horiz-adv-x="1212" d="M68 780q16 94 76.5 173t141.5 124t181 38t186 -79q4 -2 15 -8q12 -10 18 -16q33 -29 43 -64q8 -35 0 -80l-6 -24q-2 -10 -2 -17q-4 -29 -26.5 -46t-51.5 -14t-46 25.5t-15 51.5q2 12 6 30l2 11q2 8 2 12q2 6 2 10q-2 2 -10 8q-12 10 -17 15q-49 37 -107.5 42 t-110.5 -19.5t-92 -77t-50 -119.5q-4 -14 -4 -23q18 -12 45 -22q39 -18 137 -49q317 -102 356 -117q98 -37 152 -72q80 -53 96 -119q18 -82 -65 -153q-63 -53 -203 -109q-88 -33 -180 -53q-41 -10 -76 -15.5t-74 -8.5t-58.5 -4t-71.5 -2t-71 -1q-29 0 -50 19.5t-21 48 t19.5 50t47.5 21.5q20 0 71.5 1.5t70.5 3.5l53 2q35 2 64.5 7t66.5 13q80 18 160 49q117 45 162 84q14 12 18 19q-8 12 -35 30q-43 27 -127 60q-47 18 -104 37l-135 43q-78 23 -109 32q-98 31 -152 54q-82 37 -106 80q-29 45 -16 118z" />
<glyph unicode="&#x456;" horiz-adv-x="468" d="M76 51q0 625 33 961q4 29 25.5 47t50 15t47 -24.5t16.5 -50.5q-33 -330 -33 -948q0 -29 -20.5 -49t-49 -20t-49 20.5t-20.5 48.5zM80 1329q0 29 20.5 49.5t49 20.5t49 -20.5t20.5 -49.5t-20.5 -49t-49 -20t-49 20t-20.5 49z" />
<glyph unicode="&#x457;" horiz-adv-x="655" d="M-39 1341q0 12 2 43q6 37 8 76q2 29 24.5 47.5t51.5 16.5t47.5 -24.5t16.5 -51.5l-9 -80q-2 -23 -2 -27l15 -77q6 -29 -10.5 -53.5t-44 -29.5t-52 11t-28.5 43q-18 92 -19 106zM50 554.5q9 279.5 71 516.5q8 29 32.5 43t52 7t42 -31.5t8.5 -51.5q-57 -225 -66.5 -489 t37.5 -488q6 -29 -9 -53t-43 -30.5t-52.5 9t-30.5 42.5q-51 246 -42 525.5zM250 1307q14 84 14 88q2 6 37 82q12 27 39 37t53.5 -2.5t36.5 -39t-2 -53.5q-8 -16 -13 -28.5t-8.5 -17.5t-5.5 -8t-2 -5v-4q-2 -2 -2 -6t-2 -20.5t-6 -43.5q-6 -29 -28.5 -46t-51 -12t-46 27.5 t-13.5 51.5z" />
<glyph unicode="&#x458;" horiz-adv-x="481" d="M-212 -156.5q5 27.5 28.5 45t51.5 12.5t46 -28q8 -12 20 -33l15 -26q14 -20 24 -29q51 -41 93 -6q51 49 55 133q2 57 -1 134t-8.5 129t-17.5 157q-8 96 -14 149q-39 393 22 584q8 29 34 42t53.5 4t40.5 -34.5t3 -52.5q-51 -166 -14 -528q2 -39 14.5 -151t16.5 -151.5 t10 -148t0 -141.5q-4 -61 -29.5 -123t-70.5 -105q-57 -51 -126 -54t-147 52q-29 25 -55 68l-18 27q-8 14 -15 22q-16 25 -11 52.5zM76 1194l6 43q2 27 2 32t2 19.5t3 16.5t4 18t6 26.5t9.5 38t12.5 58.5q6 29 29.5 44t52 9t44 -29.5t9.5 -52.5q-6 -35 -13 -62.5t-9.5 -41 t-4.5 -21.5t-4 -18t-2 -16.5t-3 -32t-5 -47.5q-4 -29 -26.5 -46.5t-51 -14.5t-46 25.5t-15.5 51.5z" />
<glyph unicode="&#x459;" horiz-adv-x="1796" d="M116.5 158q5.5 29 30.5 43q51 31 103.5 72.5t89.5 77.5t91 96.5t81 93.5l86 106l80 98l92 117l45 53q10 12 19 19q4 6 10 10l12 8q23 12 49 6q33 -8 56 -38q12 -18 20 -46q12 -37 20 -100q10 -86 13 -225q168 37 327 18q133 -16 191 -78q86 -88 8 -223q-29 -53 -121 -116 q-68 -49 -174 -107l-315 -158q-25 -14 -52.5 -5t-41 35t-4 53.5t33.5 39.5v17q8 156 11 323q-39 4 -58 39q-12 27 -3 53.5t36 40.5q6 2 25 13v4q-2 164 -15 256l-78 -95l-77 -98l-89 -110q-27 -33 -84 -97.5t-99 -103.5t-100.5 -86t-113.5 -82q-25 -14 -53.5 -8t-42.5 30.5 t-8.5 53.5zM1008 78q98 47 170 88q100 53 161 96q66 47 82 74q25 45 13 57q-25 25 -109 35q-80 10 -172 2q-94 -10 -137 -24q0 -156 -8 -328z" />
<glyph unicode="&#x45a;" horiz-adv-x="1787" d="M125 1001q0 29 21.5 48.5t50 19.5t48 -21.5t19.5 -50.5q-4 -115 15 -415l2 -11q313 14 475 56l-13 96q-8 63 -12 104t-8 98.5t-4 106.5q0 29 20.5 49.5t49 20.5t49 -20.5t20.5 -49.5q0 -43 3 -94t7 -86l13 -96q8 -63 10 -92q43 -6 57 -46q6 -16 4 -30q72 10 167 10 t204 -16q131 -27 193 -88q90 -92 28 -224q-78 -166 -334 -256q-174 -59 -389 -80q-29 -2 -51 16.5t-24.5 47.5t16 51.5t47.5 24.5h8q-23 18 -26 45q-10 84 -19 256q-4 94 -6 112q-170 -41 -479 -53q6 -162 -4 -287q-2 -29 -24.5 -47t-51.5 -16t-47.5 24.5t-16.5 51.5 q10 137 2 305q-8 14 -8 33q0 14 6 30l-2 45q-20 307 -16 428zM907 461q0 -12 4 -80q6 -147 19 -242q3 -30 -15 -53q139 23 248 59q203 72 254 183q20 45 0 67q-31 31 -121 49q-100 16 -189 15.5t-144 -10.5q-31 -6 -56 12z" />
<glyph unicode="&#x45b;" horiz-adv-x="1226" d="M2 1043.5q-2 29.5 17.5 50t50.5 22.5q53 2 110 6l-2 25q-20 135 -24 219q-2 29 17 50.5t48 23.5t50.5 -17.5t23.5 -48.5q4 -66 22 -209l4 -30q90 8 279.5 29.5t290.5 29.5q29 2 51.5 -16.5t24.5 -47t-16.5 -51t-47.5 -24.5q-98 -8 -286.5 -29.5t-276.5 -30.5q4 -25 6 -47 q12 -119 16 -246q141 88 322 101q203 14 283 -105q66 -96 30 -260q-25 -117 -90 -247t-131 -216q-16 -23 -45 -27.5t-51.5 12.5t-27.5 46t14 51q55 78 114.5 195t79.5 215q23 106 -8 154q-35 51 -160 43q-184 -12 -328 -132q-2 -207 -22 -444q-2 -29 -24.5 -47t-51 -16 t-47 24.5t-16.5 50.5q18 199 20 373q-6 4 -12 10q-20 20 -20.5 49t20.5 50l14 14q-2 168 -18 340q-2 25 -6 49q-63 -6 -125 -8q-29 -2 -49.5 17.5t-22.5 49z" />
<glyph unicode="&#x45c;" horiz-adv-x="1230" d="M83 907q-5 88 1 129q2 29 23.5 48.5t50 17.5t48 -23.5t17.5 -50.5q-6 -37 -1 -118t9.5 -119.5t14.5 -124.5q10 -80 14 -131q33 -336 -47 -529q-10 -27 -36.5 -38t-53.5 0.5t-38 38t1 52.5q66 162 35 461q-4 39 -14.5 126t-14.5 130t-9 131zM369 578q49 123 258 305l49 43 q20 16 40.5 31.5t28.5 21.5l41 29l58 39q23 16 51.5 11t44.5 -28.5t11.5 -52.5t-29.5 -45l-54 -39q-33 -20 -41 -27l-28 -20q-18 -14 -35 -29l-47 -41q-182 -158 -219 -250q-20 -49 20 -90q37 -37 191 -121q180 -98 276 -180q23 -18 25 -47t-16.5 -51.5t-47 -24.5t-51.5 17 q-90 74 -254 166q-168 92 -219 141q-109 106 -53 242zM406 1208.5q-2 28.5 18 48.5q127 137 338 299q25 18 52.5 14.5t46 -27t14 -51.5t-26.5 -46q-203 -154 -322 -283q-20 -20 -48.5 -22t-49 18.5t-22.5 49z" />
<glyph unicode="&#x45d;" horiz-adv-x="1220" d="M70 963q2 29 23.5 48t50 17t48 -23.5t17.5 -50.5q-6 -147 24 -417l17 -127q231 221 424 436q25 27 47 55l51 66l45 59q2 4 5 8t8.5 14.5t13.5 22.5q14 27 30 39q33 25 70 12q35 -10 49 -45q20 -55 -22 -114q-10 -16 -17 -25q-2 -2 -2 -4q-6 -25 -12 -109 q-16 -252 29 -659q2 -29 -15.5 -51.5t-46 -25.5t-51 14.5t-27.5 46.5q-43 383 -30 626l-23 -24q-221 -248 -500 -508q-4 -4 -10 -8q4 -74 4 -140q0 -29 -20.5 -49t-49 -20t-49 20.5t-20.5 48.5q0 127 -35 424q-35 293 -26 443zM416 1448q-10 27 3 53.5t39.5 35.5t53.5 -4 t35 -40q33 -98 106 -211q14 -25 8 -52.5t-30.5 -43t-52 -9t-43.5 30.5q-80 127 -119 240z" />
<glyph unicode="&#x45e;" horiz-adv-x="1064" d="M18 1028q-4 29 13.5 51.5t46 27.5t51.5 -12.5t29 -45.5q47 -317 233 -713q23 -49 25 -53q4 27 8 41q12 41 53 49q139 338 232 610q8 27 33.5 40t53 4t41 -34.5t3.5 -54.5q-61 -184 -150 -406l-149 -364l-172 -399l-35 -78q-12 -27 -39 -37t-53.5 2t-36.5 38.5t2 53.5 l162 371q-23 16 -41 43q-23 27 -64 117q-193 412 -246 749zM121 1386.5q4 28.5 27.5 46t52.5 13.5t45 -27q125 -166 203 -145q80 20 151 225q8 27 35 40t53.5 4t39.5 -35.5t3 -53.5q-94 -276 -248 -315q-168 -43 -348 194q-18 25 -14 53.5z" />
<glyph unicode="&#x45f;" horiz-adv-x="1181" d="M57 274q-2 90 2 265q8 381 17 434q6 27 29.5 44t51 12t45 -28.5t13.5 -52.5q-8 -45 -16 -411q-4 -172 -2 -261q0 -55 2 -88q0 -16 2 -24v-2q10 -23 63 -27q72 -4 189 31l18 6q20 20 51 21h4q135 51 219 110q-10 162 -12 266q-4 123 -2 201q6 109 27 150q6 12 14 20 q20 23 47 27q39 4 66 -25q10 -12 16 -27q6 -23 10 -69q10 -119 13 -125q35 -147 37 -232q4 -152 -72 -243v-15q2 -29 -17.5 -50t-48.5 -23q-18 0 -35 8q-88 -55 -200 -98v-240q0 -29 -20.5 -49.5t-49.5 -20.5t-49 20.5t-20 49.5v192q-113 -29 -195 -22q-145 8 -186 119 q-4 12 -7 33q-2 12 -2 32q-2 35 -2 92z" />
<glyph unicode="&#x462;" horiz-adv-x="1736" d="M66.5 1158q9.5 28 35 41t52.5 3q120 -37 270 -49q4 98 14 184q4 29 26.5 47.5t51.5 14.5t47.5 -26.5t14.5 -51.5q-10 -82 -15 -174q72 0 153 3t184.5 9t156.5 8q29 2 49 -18.5t22 -49t-18 -49t-49 -22.5q-47 -2 -149.5 -8t-187.5 -9t-163 -3q2 -82 8 -224q16 2 37 7 q55 12 240 4q180 -6 325 -39q195 -45 279 -127q123 -123 29 -295q-10 -16 -23.5 -31.5t-30.5 -28.5l-28 -18q-12 -8 -28.5 -15.5t-16.5 -9.5q-295 -164 -756 -184q2 -61 4 -115q2 -29 -18.5 -49t-49 -22t-49 18.5t-22.5 48.5q-2 53 -4 115h-58q-29 0 -49 20.5t-20 49 t20.5 49t48.5 20.5h54q-12 352 -15 418q-27 -10 -51.5 2t-36.5 37q-10 27 1 53.5t38 38.5l43 17q-8 174 -10 266q-172 12 -309 57q-29 8 -42.5 33.5t-4 53.5zM575 645q2 -18 3 -35q2 -68 14 -424q426 18 690 168l27 15q14 6 20 10t12.5 7t9.5 6t5 7q45 82 -4 131 q-57 55 -211 91q-129 29 -300 36t-218 -6z" />
<glyph unicode="&#x463;" horiz-adv-x="1189" d="M76 1001.5q4 28.5 26.5 47t51.5 14.5q86 -12 206 -23q0 53 -2 107q-2 37 -6 115l-4 127q-2 49 -1 117.5t5 125.5q2 29 24.5 47.5t51.5 16.5t47.5 -24.5t16.5 -51.5q-4 -129 -6.5 -152.5t4 -154.5t8.5 -162l4 -125l28 -2q236 -23 381 -49q29 -4 45.5 -27.5t11.5 -52.5 t-29 -45t-52 -10q-139 25 -371 45l-12 2v-236q98 -18 166 -43q125 -43 188 -114q84 -94 57 -230q-10 -57 -37.5 -106t-60.5 -80t-82 -59.5t-83 -43t-83 -32.5q-29 -10 -54.5 2t-35.5 39q-2 4 -2 8q-20 -18 -47 -19q-29 0 -49.5 20.5t-20.5 49.5q0 45 5 492q-80 12 -119 20 q-29 6 -44.5 29.5t-9 52.5t30 44t51.5 9l91 -14v223q-139 14 -228 25q-29 4 -47 26.5t-14 51zM500 61q10 8 20 13q119 43 182.5 90t77.5 125q12 68 -26.5 112.5t-130.5 75.5q-51 19 -121 33q-2 -387 -2 -449z" />
<glyph unicode="&#x464;" horiz-adv-x="2017" d="M163 849.5q-3 192.5 3 349.5t20 308q2 29 24.5 47.5t51.5 16.5t47.5 -24.5t16.5 -51.5q-27 -297 -23 -676q129 0 299 12q61 217 232 394q145 152 303 200q35 10 73.5 13.5t69.5 2.5t74 -8.5t63 -11.5l66 -16q45 -12 55 -14q29 -6 43 -31t8 -53.5t-30.5 -43t-53.5 -8.5 q-12 2 -59 14.5t-61.5 15.5t-52.5 10.5t-57.5 7.5t-47 -2.5t-49.5 -10.5q-123 -37 -242 -160q-127 -133 -184 -286h6q336 27 481 30q29 0 50.5 -19t21.5 -48t-19.5 -50.5t-48.5 -21.5q-141 -4 -475 -30l-51 -5q-16 -119 14 -221q47 -145 187 -225q137 -82 370 -59 q164 14 410 129q27 12 53.5 1.5t38.5 -37t2 -53t-37 -38.5q-268 -123 -455 -142q-272 -27 -455 79t-245 302q-39 119 -27 254q-152 -10 -268 -10q0 -20 27 -776q0 -29 -19.5 -49.5t-48 -21.5t-49 18.5t-22.5 48.5q-2 63 -12.5 304.5t-12.5 347t-5 298z" />
<glyph unicode="&#x465;" horiz-adv-x="1550" d="M2 518q-2 29 17.5 50.5t48.5 23.5q33 2 71 4q-4 293 58 477q8 27 33.5 40t53 4t41 -34.5t3.5 -54.5q-53 -164 -49 -432h47q92 0 141 2q29 106 90 203q88 135 217 217t268 61q45 -8 96.5 -31.5t75 -40t68.5 -51.5q25 -16 29 -44.5t-13.5 -52t-46 -28t-51.5 14.5 q-117 86 -178 94q-88 14 -182 -45q-92 -59 -164 -170q-37 -59 -60 -117q49 4 150 17l156 18q29 2 50 -16.5t24 -47t-15 -50t-47 -25.5q-51 -4 -169 -18.5t-181 -20.5q-6 -90 30 -152q33 -61 134 -94q76 -25 196 -31q106 -6 146 2q16 4 55 17l94 31q27 8 52.5 -6.5t34.5 -41 t-5 -52t-41 -36.5l-92 -28q-43 -14 -70 -21q-59 -10 -182 -4q-137 8 -231 39q-152 47 -213 156q-51 94 -48 215q-47 -2 -120 -2h-21h-20q6 -172 6 -244q0 -29 -20.5 -49.5t-49.5 -20.5t-49 20.5t-20 49.5q0 53 -9 244l-65 -4q-29 -2 -50.5 17t-23.5 48z" />
<glyph unicode="&#x466;" horiz-adv-x="1386" d="M52 98.5q-11 26.5 1 53.5q59 147 189 413l168 350l65 150q41 100 45 111q35 80 64 137q-10 51 37 73l28 52q14 25 42 32t52.5 -7.5t31.5 -42t-7 -52.5q-16 -29 -33 -61q49 -113 201 -527l72 -196h2q27 6 51 -9.5t31 -44.5q12 -51 -35 -75q51 -129 102 -234 q12 -27 2 -54.5t-35.5 -39.5t-53.5 -2t-40 35q-55 119 -114 266q-94 -12 -201 -16q10 -51 31 -146q33 -141 43 -207q6 -29 -10.5 -52t-45 -28.5t-52.5 11t-28 45.5q-12 63 -43 203q-29 131 -37 172q-115 0 -249 10q-90 -186 -146 -320q-10 -27 -36.5 -38t-53.5 0.5t-38 38z M391 553q274 -17 477 8l-63 172q-141 381 -150 404l-6 -17q-14 -29 -35 -82l-41 -96l-36 -84z" />
<glyph unicode="&#x467;" horiz-adv-x="1048" d="M-46 27.5q-9 27.5 5 52.5l180 371q150 305 238 462q-16 20 -16.5 47t18.5 46q20 20 49 21t49 -17l6 -6q10 -2 21 -9q35 -20 35 -61q74 -111 149 -348q31 -92 74 -246q45 -158 61 -207q10 -29 -3 -54.5t-40.5 -34.5t-53.5 4t-34 40q-16 49 -67 225q-70 -16 -144 -24 q35 -207 35 -318q0 -29 -20.5 -49t-49 -20t-49 20.5t-20.5 48.5q0 99 -37 310q-57 -2 -127 2l-131 -265q-12 -27 -40 -36t-53.5 4.5t-34.5 41zM279 420h40q0 25 17.5 44t42.5 23q29 4 52.5 -13t27.5 -46v-2q66 8 127 23l-31 94q-51 160 -92 241q-76 -141 -184 -364z" />
<glyph unicode="&#x468;" horiz-adv-x="1947" d="M178 -45q45 215 51 506q-25 23 -22 57q2 29 24 47q0 53 -2 119q0 43 -2 180t-2 204t3 174.5t10 195.5q2 29 24.5 47t51 16t47 -24.5t16.5 -51.5q-6 -86 -9 -190.5t-3 -172t2 -198.5t2 -180q2 -59 2 -109q270 -20 559 -22q170 362 190 670q-6 6 -10 14q-20 45 16 80 q16 47 66 47q12 0 22 -4q33 12 62 0q35 -12 49 -49q4 -12 14 -74q10 -59 29 -123q20 -70 68.5 -253t76 -274t83 -227.5t120.5 -240.5q14 -25 8 -52.5t-30.5 -43t-52 -9.5t-44.5 31q-100 162 -178 381q-10 -4 -22 -4l-129 -4q-6 -131 16 -344q2 -29 -16.5 -50.5t-47 -24.5 t-50 15.5t-25.5 46.5q-23 215 -17 355q-55 -2 -110 -2q-90 -180 -262 -463q-14 -25 -43 -31t-53.5 8.5t-30.5 43t8 53.5q143 236 223 389q-252 4 -491 20q-8 -287 -56 -508q-6 -29 -29.5 -44t-52 -9t-44 29.5t-9.5 52.5zM1083 553q141 2 293 8q-31 96 -77 270.5t-60 223.5 q-39 -238 -156 -502z" />
<glyph unicode="&#x469;" horiz-adv-x="1406" d="M119 119q12 143 14 409q2 293 10 418q2 29 23.5 48.5t50.5 17.5t48.5 -23.5t17.5 -50.5q-8 -127 -11 -412v-34q78 -4 219.5 -13.5t192.5 -13.5q39 104 162 461q8 27 34.5 40t53.5 3q16 -4 27 -17q35 -18 36 -57q14 -285 58 -471q12 -18 12 -39v-8q41 -162 111 -289 q14 -25 6 -52.5t-34 -41.5t-53.5 -6t-41.5 35q-72 133 -117 292q-74 2 -162 7q-70 -164 -143 -297q-14 -25 -42 -33t-53.5 6t-33.5 42t6 54q61 106 117 236q-39 2 -112 7t-132 8t-113 7q-4 -133 -12 -246q-2 -29 -24.5 -47t-51 -16t-47 24.5t-16.5 51.5zM829 459 q39 -2 76 -2q-12 69 -22 147z" />
<glyph unicode="&#x46a;" horiz-adv-x="1609" d="M121 410q72 135 256 262q115 78 336 78v4q-18 25 -11 55q-106 109 -207.5 274.5t-158.5 305.5q-12 27 -1 53t38 37q39 16 71 -11q15 7 31 5q53 -4 104.5 -7.5t112.5 -3.5h103q39 0 111.5 4t101 5.5t115.5 6.5t108 7q29 2 50.5 -17.5t23.5 -48.5q2 -33 -21 -53 q-129 -225 -391 -537q35 -39 4 -84q-2 -2 -4 -6q276 -27 407 -198q143 -188 60 -480q-8 -27 -34 -41t-53.5 -5.5t-41.5 34t-6 53.5q63 223 -37 355q-100 135 -342 147h-6q-6 -76 -9.5 -172t-3.5 -149v-185v-157q0 -29 -20.5 -49.5t-49 -20.5t-49 20.5t-20.5 49.5v153v185 q0 55 3 153t9 176q-170 0 -245 -51q-154 -106 -209 -211q-61 -119 20 -225q18 -25 14 -53.5t-27.5 -46t-52 -13.5t-44.5 27q-135 180 -35 375zM516 1329q121 -238 254 -389q18 10 39 8q189 225 295 389q-375 -23 -588 -8z" />
<glyph unicode="&#x46b;" horiz-adv-x="1263" d="M51 236q0 100 68.5 164.5t167.5 95.5q111 37 235 34v11q4 23 20.5 40t39.5 21h2q-129 70 -208 143.5t-118 190.5q-45 20 -41 70q4 41 41 57q14 16 37 20q39 8 65 -20q182 -12 418 0q27 2 45 -14q14 23 40 29.5t50 -5.5q27 -12 36 -39.5t-5 -52.5q-10 -25 -43 -92 l-53 -105l-49 -90q-29 -55 -57.5 -102t-59.5 -90q94 -37 164 -86q72 -51 112.5 -112.5t77.5 -151.5q12 -27 1 -53.5t-37.5 -38t-53 0t-37.5 37.5q-33 76 -63.5 122t-81.5 81q-43 33 -113 61q0 -43 1 -126.5t1 -116.5q0 -29 -20.5 -49.5t-49 -20.5t-49 20.5t-20.5 49.5 q0 18 -1 134t1 138q-98 0 -184 -26q-139 -47 -140 -129q0 -14 9 -39q18 -59 18 -62q6 -29 -8 -53.5t-43 -30.5t-53.5 8t-30.5 43q-2 8 -5 17.5t-6 20t-5 16.5q-14 45 -15 80zM416 922q33 -61 89 -105.5t150 -95.5q44 74 107 201q-190 -8 -346 0z" />
<glyph unicode="&#x46c;" horiz-adv-x="2009" d="M70 88q35 227 20 633q0 18 -2 91t-3 97.5t-2 88t-1 99.5t1 89t3 99t6 91q2 29 24.5 47.5t51.5 16.5t47 -24.5t16 -51.5q-4 -43 -6 -87t-3 -95.5t-1 -85t1 -96t2 -86t3 -98.5t2 -91l2 -14q5 0 9 -2q154 -31 456 -31q16 0 31 -8q139 139 342 164l-72 77q-70 76 -100 115 q-121 147 -145 287q-4 29 13 52.5t44 29.5h10q10 4 21 6q289 31 798 31q29 0 49.5 -20.5t20.5 -49.5v-10q4 -29 -14 -52q-86 -119 -105 -139q-6 -10 -14 -18l-12 -10l-9 -11q-6 -8 -16 -12q-27 -25 -98.5 -86t-116.5 -104t-86 -89q188 -27 337.5 -151.5t197.5 -319.5 q8 -37 12 -65.5t4 -59t-1 -46t-5 -54.5l-8 -55q-4 -29 -27 -46.5t-51.5 -14t-46 26t-15.5 50.5q2 20 7.5 56t6.5 48.5t1 36t-3.5 43t-9.5 48.5q-37 152 -154.5 249t-271.5 117q2 -102 17 -282q20 -262 22 -342q0 -29 -19.5 -50.5t-48 -21.5t-50 19.5t-21.5 48.5 q-2 61 -23 333q-14 184 -16 295q-119 -18 -213 -93t-143 -206q-33 -92 -29 -149.5t41 -153.5q10 -27 -2 -53.5t-39 -36.5t-53.5 2t-36.5 39q-29 78 -41 134t-6 123t35 144q18 49 45 95q-242 2 -396 30q4 -295 -24 -501q-4 -29 -27.5 -46.5t-52.5 -13.5t-46 27.5t-13 52.5z M909 1268q27 -72 95 -154l96 -108l53 -60q45 47 96 94l119 107l96 82q44 49 54 63q-369 -2 -609 -24z" />
<glyph unicode="&#x46d;" horiz-adv-x="1607" d="M-14 795q0 29 20.5 49t49 20t49 -20.5t20.5 -48.5q0 -127 20 -318q19 6 39 2q166 -33 389 -2q18 2 33 -4q57 25 117 39q-10 8 -10 10q-2 2 -4 6l-9 15l-24 39l-68 116l-71 119q-33 57 -39 64q-16 25 -11 53.5t27 44.5q33 23 70 6q14 8 28 10q4 0 94.5 14.5t151.5 20.5 q94 8 154 -4q109 -23 123 -106q4 -29 -13 -68q-10 -25 -28 -57q-37 -66 -90 -136q-61 -82 -111 -120l-4 -4q135 2 249.5 -45.5t178.5 -155.5q27 -41 42 -96.5t17 -85.5l10 -91q2 -29 -16 -51t-47 -24t-51.5 16t-24.5 47q-12 154 -49 215q-41 66 -121 99.5t-182 31.5 q10 -143 18 -342q2 -29 -18.5 -49t-49 -22t-49 18t-22.5 49q-8 193 -16 328q-121 -29 -201 -90.5t-88 -128.5q-2 -23 -1 -30t5 -32.5t6 -50.5q2 -29 -16.5 -51.5t-47 -24.5t-51 16.5t-24.5 47.5q0 4 -5 35.5t-6 53t1 56.5q12 76 65 144q-123 -2 -233 20q25 -199 31 -305 q2 -29 -17.5 -50.5t-48.5 -23.5t-50.5 17.5t-23.5 48.5q-8 102 -39 377q-29 250 -28 389zM672 862l55 -94l70 -115l6 -10v2q39 33 90 98q45 61 78 121q8 13 14 25q-41 8 -117 2q-57 -4 -139 -19z" />
<glyph unicode="&#x470;" horiz-adv-x="1716" d="M57 1573q2 29 22.5 48t50.5 17t49.5 -22t17.5 -51q-12 -264 69 -635q90 -406 217 -565q74 -90 158 -121q0 8 25 946q0 29 21.5 48t50 19t48 -21.5t19.5 -49.5q-25 -938 -25 -955q80 12 164 70q115 80 208 214t130 263q20 68 32.5 138.5t19.5 158.5t10.5 139.5t6.5 164 t5 147.5q2 29 22.5 49t49 18t49 -22.5t18.5 -48.5q-2 -33 -5 -146.5t-6 -168t-10.5 -147.5t-21.5 -171q-14 -74 -35 -148q-43 -156 -151 -307q-109 -156 -244 -248q-123 -82 -244 -96v-90q0 -29 -20.5 -49.5t-49 -20.5t-49 20.5t-20.5 49.5v98q-145 35 -262 181 q-152 184 -248 620q-84 387 -72 674z" />
<glyph unicode="&#x471;" horiz-adv-x="1343" d="M53 801q-4 29 13.5 52.5t46 27.5t52 -13.5t28.5 -46.5q29 -193 102 -426q6 -14 18.5 -56t20.5 -66.5t22.5 -59.5t28.5 -61q41 -74 86 -91q10 78 14 138q10 119 27.5 391t32.5 418q4 29 26.5 46t51 14t46 -25.5t15.5 -51.5q-16 -143 -32.5 -414.5t-26.5 -390.5 q-2 -31 -7 -63l27 31q63 86 135 241q45 98 117 283q72 186 92 227q14 27 41 36t53.5 -4t35.5 -40t-3 -53q-25 -47 -90 -217q-72 -186 -119 -289q-78 -170 -151 -268q-78 -100 -158 -136q-8 -76 -14 -122q-23 -219 -23 -367q0 -29 -20.5 -49.5t-49 -20.5t-49 20.5t-20.5 49.5 q0 156 24 381l11 94q-117 25 -195 166q-16 31 -33.5 73t-26.5 69.5t-22.5 72.5t-15.5 53q-80 242 -111 447z" />
<glyph unicode="&#x472;" horiz-adv-x="1710" d="M-6 725v4q0 15 4 29q20 145 86 274q70 141 185.5 245.5t265.5 152.5q135 43 282 28q14 23 40 30t50 -3q78 -39 148 -86q94 -37 190 -94q23 -14 30 -41t-5 -52q106 -125 162.5 -272t56.5 -288.5t-43 -278.5q-63 -193 -205.5 -322t-347.5 -163.5t-453 71.5 q-168 74 -275.5 200t-146 268t-24.5 298zM129 668q-6 -186 86 -342t283 -240q205 -88 370.5 -60.5t279.5 131t167 261.5q35 102 35 214.5t-35 226.5t-118 222.5t-206 194.5q-221 82 -416 20q-119 -37 -215 -122q-94 -86 -151 -203q-41 -78 -62 -164q164 8 347.5 8t413 -3 t345.5 -3q29 0 49.5 -20.5t20.5 -49t-20.5 -49t-49.5 -20.5q-119 0 -353 4t-419.5 3t-351.5 -9z" />
<glyph unicode="&#x473;" horiz-adv-x="1173" d="M-55 491.5q2 18.5 10 30.5q10 143 82 266q51 88 129 150q78 59 176 87t221 4.5t252 -101.5q25 -14 32 -42t-7 -52q-6 -10 -15 -19q90 -106 117 -227t-4 -226.5t-107 -195.5q-82 -96 -196.5 -151.5t-250.5 -45t-249 100.5q-174 139 -182 385q-10 18 -8 36.5zM96 414 q20 -150 125 -234q125 -92 265.5 -66.5t238.5 142.5q70 84 86 180q-55 -2 -176 -9t-178 -9l-181 -6q-123 -4 -180 2zM98 553q55 -6 174 -2l174 6q55 2 176.5 9t178.5 9q-35 125 -164 230q-33 25 -25 67q-109 39 -198.5 24t-152 -60t-105.5 -119q-43 -76 -58 -164z" />
<glyph unicode="&#x474;" horiz-adv-x="1912" d="M72 1317q-10 29 2 54.5t39.5 35.5t53.5 -2t36 -39q33 -90 148.5 -359.5t162.5 -422.5q12 45 21 61q90 217 163 350q47 82 146 189q96 102 213 188q307 227 510 158q33 -10 65 -41l21 -19l12 -12q23 -18 26 -47t-14.5 -51.5t-46 -25.5t-51.5 14q-10 8 -25 22l-16 16 q-12 10 -16 13q-66 23 -166.5 -14t-214.5 -123q-104 -78 -195 -172q-88 -94 -125 -164q-72 -125 -159 -334q-27 -66 -64 -260q-8 -39 -12 -72q4 -37 8 -98q0 -2 2 -15q6 -23 6 -30q6 -27 2 -47q-10 -41 -47 -56q-35 -12 -65 9q-39 23 -52 77q-4 31 -4 78q2 35 8 82 q-4 39 -32 166q-41 182 -176.5 497.5t-163.5 393.5z" />
<glyph unicode="&#x475;" horiz-adv-x="1452" d="M18 922q-6 29 8.5 53t43 30.5t53.5 -8t31 -43.5q29 -117 133 -288q4 -8 55 -93l76 -127q2 14 6 27q57 293 246.5 509t470.5 300q29 8 54.5 -6t33.5 -42t-6.5 -53.5t-40.5 -33.5q-244 -70 -407 -257.5t-216 -445.5q-18 -90 0 -297q0 -4 2 -8l4 -12q2 -8 4 -21 q16 -59 -6 -102q-20 -35 -59 -39q-51 -6 -74 43q-6 14 -10 43q-2 12 -3 24.5t-2 18.5t-3 10q-31 106 -76 199q-20 45 -46 90t-69 111l-55 90q-115 190 -148 328z" />
<glyph unicode="&#x2000;" horiz-adv-x="1023" />
<glyph unicode="&#x2001;" horiz-adv-x="2046" />
<glyph unicode="&#x2002;" horiz-adv-x="1023" />
<glyph unicode="&#x2003;" horiz-adv-x="2046" />
<glyph unicode="&#x2004;" horiz-adv-x="682" />
<glyph unicode="&#x2005;" horiz-adv-x="511" />
<glyph unicode="&#x2006;" horiz-adv-x="341" />
<glyph unicode="&#x2007;" horiz-adv-x="341" />
<glyph unicode="&#x2008;" horiz-adv-x="255" />
<glyph unicode="&#x2009;" horiz-adv-x="409" />
<glyph unicode="&#x200a;" horiz-adv-x="113" />
<glyph unicode="&#x2010;" d="M-151 459q11 27 38 37q240 102 514 137q29 2 51.5 -15.5t25.5 -46t-14.5 -51t-45.5 -26.5q-254 -31 -477 -125q-27 -12 -53.5 -1t-38 37.5t-0.5 53.5z" />
<glyph unicode="&#x2011;" d="M-151 459q11 27 38 37q240 102 514 137q29 2 51.5 -15.5t25.5 -46t-14.5 -51t-45.5 -26.5q-254 -31 -477 -125q-27 -12 -53.5 -1t-38 37.5t-0.5 53.5z" />
<glyph unicode="&#x2012;" d="M-151 459q11 27 38 37q240 102 514 137q29 2 51.5 -15.5t25.5 -46t-14.5 -51t-45.5 -26.5q-254 -31 -477 -125q-27 -12 -53.5 -1t-38 37.5t-0.5 53.5z" />
<glyph unicode="&#x2013;" horiz-adv-x="1454" d="M46 387q-3 37 19.5 64.5t59.5 31.5q76 6 247 23.5t269 26t241.5 16.5t262.5 8q37 0 62.5 -25.5t25.5 -62.5t-25.5 -62.5t-62.5 -25.5q-119 0 -259.5 -8t-237.5 -16.5t-263 -24.5l-244 -25q-37 -2 -64.5 20.5t-30.5 59.5z" />
<glyph unicode="&#x2014;" horiz-adv-x="1859" d="M-170 509q2 36 29.5 60.5t64.5 22.5q74 -4 137 -4q72 0 129.5 1t135 6t128 9t136.5 12.5t133 10.5q178 20 408.5 18t435.5 -43q37 -6 57.5 -36.5t13 -66.5t-38 -56.5t-65.5 -12.5q-188 37 -403.5 39t-393.5 -16q-45 -4 -131 -11.5t-137 -12.5t-132 -10t-142.5 -6t-137 -1 t-145.5 4q-35 2 -59.5 29.5t-22.5 63.5z" />
<glyph unicode="&#x2018;" horiz-adv-x="598" d="M109 1071q4 16 12 36.5t16 33.5l6 12q10 23 32.5 34t47.5 5q4 47 8 106q10 178 7 287q-2 29 18 49.5t49 22.5t49.5 -18.5t22.5 -49.5q2 -10 0 -111.5t-6 -187.5q-6 -117 -19 -186q-8 -45 -20 -72q-18 -55 -60 -69q-78 -29 -122 0q-55 35 -41 108z" />
<glyph unicode="&#x2019;" horiz-adv-x="757" d="M203 1131.5q-6 27.5 8 52.5q6 8 22 33l33 49q18 29 33 53q59 98 66 135l2 2q-18 -6 -37 -4q-43 4 -61.5 41t1.5 72q12 20 37 37q47 35 88 36q39 8 70 -18q14 -10 22 -23q6 -4 9 -8l4 -4l4 -4l2 -2q25 -16 30 -45t-12 -51q-6 -10 -16 -17q0 -4 -4 -36q-12 -61 -86 -183 q-14 -27 -33 -55l-35 -51l-20 -31q-16 -25 -44 -31t-52.5 9.5t-30.5 43z" />
<glyph unicode="&#x201a;" horiz-adv-x="608" d="M17 -276.5q-3 36.5 20 65.5q4 4 61 68q41 47 64 75q33 43 43 78h-6q-57 -4 -84 47q-16 33 -4 66q2 10 6 18q4 6 8 11q2 4 4 6q6 6 14 12q12 14 74 86q23 27 59.5 30t65.5 -20q25 -20 29.5 -52.5t-11.5 -61.5q16 -27 23 -64q23 -121 -78 -260q-29 -39 -76 -90 q-55 -61 -57 -64q-23 -27 -59.5 -29.5t-64.5 20t-31 59z" />
<glyph unicode="&#x201c;" horiz-adv-x="940" d="M76 1026q-18 66 51 107q8 6 14 10l9 4h2h2q26 22 59 16q16 37 30.5 78t28.5 88l23 80l27 92q16 59 22 84q8 29 32.5 43t53.5 6t43 -32.5t6 -53.5q-6 -20 -24.5 -91t-28.5 -105l-29 -95q-18 -57 -37.5 -105t-42.5 -91q-29 -59 -61 -92q-47 -45 -98 -33q-59 12 -82 90z M408 1067q12 49 63 94q37 35 41 41q39 61 55.5 145.5t13.5 167t-6 179.5q-2 29 18.5 49t49.5 22t49.5 -18.5t22.5 -48.5q2 -90 6 -180.5t-17.5 -200t-72.5 -189.5l-13 -16q8 -23 -0.5 -46.5t-31.5 -35.5q-4 -2 -8 -6l-17 -12q-8 -6 -18 -13q-25 -18 -43 -22q-47 -14 -78 22 q-25 29 -14 68z" />
<glyph unicode="&#x201d;" horiz-adv-x="968" d="M139 979l45 102q31 76 49 115l50 102q29 63 59.5 115.5t63.5 99.5q18 23 45.5 28t51 -12.5t28.5 -44.5t-11 -52q-31 -43 -58.5 -89.5t-55.5 -105.5l-46 -94q-16 -39 -49 -115l-43 -104q-10 -25 -37.5 -36t-53 0t-37 38.5t-1.5 52.5zM349 918.5q-7 27.5 7 52.5 q174 299 256 514q10 27 37 39t53.5 2t38.5 -36.5t2 -53.5q-82 -215 -268 -535q-14 -25 -41.5 -32t-52.5 7.5t-32 42z" />
<glyph unicode="&#x201e;" horiz-adv-x="976" d="M99.5 -284.5q-11.5 34.5 2.5 67.5q14 27 113 272q72 178 141 287q20 29 56.5 37t66 -12.5t37.5 -56t-12 -66.5q-57 -86 -125 -254q-92 -229 -117 -285q-16 -33 -51 -44t-67.5 4.5t-44 50zM360.5 -203q-10.5 35 6.5 68l51 92l53 96l43 82q25 51 41 96t27 91q10 37 40.5 55 t66.5 9t54.5 -39.5t10.5 -65.5q-14 -55 -34 -108.5t-48 -111.5l-45 -92q-18 -37 -55 -101.5t-50 -88.5q-18 -31 -53 -41t-66.5 7t-42 52z" />
<glyph unicode="&#x2022;" horiz-adv-x="1120" d="M410 715q0 4 4 29.5t9 51t11 44.5q45 127 96 194q63 84 142.5 89t138.5 -66q39 -47 63 -123q47 -156 11 -295q-23 -84 -83.5 -140.5t-156.5 -52.5q-113 4 -160 119q-10 22 -16 49q-31 10 -48.5 39t-10.5 62zM635 737q-2 -67 12 -104q4 -8 6 -10q20 0 36 12t26 51 q25 90 -8 195l-9 20q-12 0 -32 4q-6 -16 -11 -35q-18 -66 -20 -133z" />
<glyph unicode="&#x2026;" horiz-adv-x="1871" d="M184 63q0 16 4.5 37t10.5 45q4 20 10 45q0 2 2 5q7 24 27 47l12 20q41 59 96 55h4q35 20 64 21q39 0 61 -31q18 -20 19 -53q-2 -29 -19 -68q-33 -70 -88 -129q-33 -33 -61 -49q-49 -27 -93 -14q-33 10 -45 45q-4 10 -4 24zM715 33q33 121 57 174q35 72 78 96q41 25 82 10 q37 -12 65 -49q13 -14 13 -43v-2v-2q0 -2 -2 -6q0 -10 -2 -21q-4 -31 -13 -59q-10 -43 -24 -70q-31 -55 -82 -59q-25 -2 -47 6l-2 -8q-6 -25 -30 -38t-48.5 -7t-37.5 29.5t-7 48.5zM1362 0q0 2 3 23.5t7 42t10 34.5q20 55 58 97q59 68 119 55q4 -2 6 -2q41 16 71 -19 q14 -18 14 -43t-16 -41q-2 -47 -26 -86q-39 -59 -109 -53h-8q-2 -16 -6 -33q-4 -27 -26.5 -41t-48.5 -9t-40 27.5t-8 47.5z" />
<glyph unicode="&#x202f;" horiz-adv-x="409" />
<glyph unicode="&#x2039;" horiz-adv-x="942" d="M22 272.5q-14 69.5 17 133.5q39 94 162 202q162 141 391 264q31 16 65.5 6t52 -41.5t7.5 -66.5t-43 -53q-209 -113 -357 -242q-92 -82 -116 -139q-10 -25 0 -37q14 -4 43 -10l133 -23q229 -39 235 -41q35 -8 54.5 -38.5t11.5 -66.5t-39 -55.5t-68 -11.5l-223 39 q-90 14 -139 25q-33 6 -51 12q-14 2 -23 6q-20 6 -33 17q-66 51 -80 120.5z" />
<glyph unicode="&#x203a;" horiz-adv-x="1017" d="M7 941.5q5 35.5 34 58t64.5 17.5t58.5 -34q14 -16 29.5 -37.5t21.5 -27.5l14 -21q10 -10 21 -18l24 -19q12 -12 37 -29q16 -12 97 -57q113 -63 155 -92q98 -59 150 -107q92 -84 84 -163q-6 -53 -68 -111q-35 -33 -90 -74q-31 -23 -125 -82l-217 -133q-31 -18 -65.5 -10 t-54 40t-11.5 66.5t41 55.5q25 16 67 41l78 45l68 43q88 57 117 78q45 33 71 57l2 2l-14 14q-41 37 -125 88l-149 89q-90 49 -117 67q-33 25 -52.5 41t-39 35.5t-25.5 27t-31 39.5l-32 46q-23 29 -18 64.5z" />
<glyph unicode="&#x205f;" horiz-adv-x="511" />
<glyph unicode="&#x20ac;" horiz-adv-x="1929" d="M-145.5 490.5q-8.5 27.5 6 53t43.5 34.5l108 32q16 207 195 394q145 147 338.5 215.5t361.5 3.5q27 -12 38 -39t0 -53.5t-37.5 -38t-53.5 -0.5q-117 47 -270 -7q-152 -53 -277 -180q-115 -119 -145 -243q117 43 196 63q326 86 725 111q29 2 50.5 -17.5t23.5 -48.5 t-17.5 -50.5t-47.5 -23.5q-389 -23 -697 -106q-80 -20 -223 -72l-14 -4q6 -25 14 -47q18 21 47 25q164 16 469 64t442 65q29 2 51.5 -15.5t25.5 -46.5t-14 -51.5t-46 -26.5q-137 -16 -435 -62t-456 -65q178 -164 614 -198q332 -25 760 28q29 2 51.5 -15t25.5 -46 t-14.5 -51.5t-45.5 -26.5q-442 -55 -787 -29q-543 43 -747 287q-63 78 -88 166l-84 -27q-27 -8 -52.5 6.5t-34 42z" />
<glyph unicode="&#x2122;" horiz-adv-x="1622" d="M-88 1374.5q-2 28.5 18.5 49t49.5 22.5q61 2 171.5 -1t185.5 3t148 31q29 10 54.5 -3.5t35 -41t-4 -53t-40.5 -33.5q-90 -31 -198 -39q12 -27 0 -56q-68 -166 -90.5 -337t-22.5 -404q0 -29 -20.5 -49.5t-49 -20.5t-49 20.5t-20.5 49.5q0 242 24.5 427t98.5 366 q-6 0 -111.5 2t-107.5 0q-29 -2 -49.5 18.5t-22.5 49zM586 711q8 61 20 182q12 129 22.5 188.5t41 156.5t80.5 187q14 25 41.5 33t54.5 -6q37 -23 35 -66h14q29 -2 47 -24t16 -51q-10 -109 13 -230q12 -68 33 -98q4 10 10 21q23 47 53 133q16 43 33 94l28 88q12 39 15 43 l4 22q4 12 8 34t6 40q10 41 23 62q27 41 73 36q39 -4 62 -40q12 -20 22 -66q6 -33 15 -84q10 -84 22 -217l8 -113q4 -57 7.5 -97t5.5 -73l2 -32q2 -31 -16.5 -52.5t-48 -23.5t-51 16.5t-23.5 46.5q0 2 -2.5 35t-5.5 72t-7 96l-8 113l-4 57l-37 -104q-33 -92 -57 -146 q-16 -35 -31 -55q-29 -39 -61 -49q-98 -27 -160 65q-37 53 -55 152q-14 84 -17 188q-23 -59 -38 -125.5t-21 -118t-15.5 -146.5t-17.5 -161q-4 -29 -26.5 -47t-51.5 -14t-47 26.5t-14 51.5z" />
<glyph unicode="&#x25fc;" horiz-adv-x="1433" d="M0 0v1434h1434v-1434h-1434z" />
</font>
</defs>
</svg>
